SplineFontDB: 3.0
FontName: BebasNeue
FullName: Bebas Neue
FamilyName: Bebas Neue
Weight: Regular
Copyright: Copyright \\(c\\) 2010 by Ryoichi Tsunekawa. All rights reserved.
Version: 001.001
ItalicAngle: 0
UnderlinePosition: -110
UnderlineWidth: 50
Ascent: 750
Descent: 250
InvalidEm: 0
sfntRevision: 0x00016666
LayerCount: 2
Layer: 0 0 "Back" 1
Layer: 1 0 "Fore" 0
XUID: [1021 171 -1973713422 3617]
StyleMap: 0x0040
FSType: 0
OS2Version: 3
OS2_WeightWidthSlopeOnly: 0
OS2_UseTypoMetrics: 0
CreationTime: -816407976
ModificationTime: 1484332988
PfmFamily: 17
TTFWeight: 400
TTFWidth: 5
LineGap: 0
VLineGap: 0
Panose: 2 11 6 6 2 2 2 5 2 1
OS2TypoAscent: 750
OS2TypoAOffset: 0
OS2TypoDescent: -250
OS2TypoDOffset: 0
OS2TypoLinegap: 0
OS2WinAscent: 900
OS2WinAOffset: 0
OS2WinDescent: 300
OS2WinDOffset: 0
HheadAscent: 900
HheadAOffset: 0
HheadDescent: -300
HheadDOffset: 0
OS2SubXSize: 650
OS2SubYSize: 600
OS2SubXOff: 0
OS2SubYOff: 75
OS2SupXSize: 650
OS2SupYSize: 600
OS2SupXOff: 0
OS2SupYOff: 350
OS2StrikeYSize: 50
OS2StrikeYPos: 420
OS2CapHeight: 700
OS2XHeight: 700
OS2Vendor: 'DHRM'
OS2CodePages: 20000093.00000000
OS2UnicodeRanges: a000002f.0000004b.00000000.00000000
Lookup: 1 0 0 "'aalt' Access All Alternates in Latin lookup 0" { "'aalt' Access All Alternates in Latin lookup 0 subtable"  } ['aalt' ('DFLT' <'dflt' > 'latn' <'MOL ' 'ROM ' 'dflt' > ) ]
Lookup: 1 0 0 "'locl' Localized Forms in Latin lookup 1" { "'locl' Localized Forms in Latin lookup 1 subtable"  } ['locl' ('latn' <'MOL ' 'ROM ' > ) ]
Lookup: 1 0 0 "'pnum' Proportional Numbers in Latin lookup 2" { "'pnum' Proportional Numbers in Latin lookup 2 subtable"  } ['pnum' ('DFLT' <'dflt' > 'latn' <'MOL ' 'ROM ' 'dflt' > ) ]

StartChar: .notdef
Encoding: 65536 -1 0
Width: 733
Flags: W
LayerCount: 2
Fore
SplineSet
345 317 m 0
 324 317 316 342 307 342 c 0
 300 342 293 338 282 338 c 0
 271 338 261 352 261 363 c 0
 261 375 264 390 269 398 c 1
 251 380 258 342 228 320 c 0
 209 309 209 295 209 280 c 0
 209 271 231 246 231 246 c 2
 231 243 230 242 228 242 c 0
 224 242 217 246 216 247 c 1
 224 206 240 168 264 143 c 1
 209 143 l 1
 194 192 174 283 174 369 c 0
 174 491 212 607 350 607 c 0
 503 607 540 481 540 353 c 0
 540 275 525 197 515 143 c 1
 442 143 l 1
 479 176 498 215 504 260 c 1
 503 258 495 252 491 252 c 0
 490 252 488 253 488 254 c 2
 488 254 488 256 490 257 c 0
 501 264 504 266 506 291 c 1
 503 287 493 285 491 285 c 0
 487 285 476 276 465 276 c 0
 427 276 433 283 355 283 c 0
 316 283 284 271 264 271 c 0
 255 271 247 275 240 275 c 0
 234 275 212 278 212 287 c 0
 212 300 274 314 323 314 c 0
 333 314 337 313 347 313 c 0
 357 313 368 317 377 317 c 0
 444 317 495 309 504 297 c 1
 503 317 483 339 460 339 c 0
 456 339 454 342 454 346 c 2
 454 370 l 2
 454 382 451 403 438 404 c 1
 441 399 442 394 442 387 c 0
 442 365 427 341 404 341 c 0
 397 341 389 345 387 345 c 0
 381 345 368 317 345 317 c 0
733 291 m 1
 733 143 l 1
 708 198 626 320 597 320 c 1
 598 306 600 291 600 271 c 0
 600 223 593 187 585 143 c 1
 543 143 l 1
 551 195 559 266 559 342 c 0
 559 497 520 661 346 661 c 0
 198 661 156 502 156 353 c 0
 156 268 170 188 185 143 c 1
 138 143 l 1
 121 203 119 263 119 327 c 1
 81 306 24 183 0 143 c 1
 0 291 l 1
 25 352 92 404 113 427 c 1
 119 562 190 714 336 714 c 0
 523 714 574 579 593 435 c 1
 617 430 695 370 733 291 c 1
345 503 m 1
 344 504 342 507 342 509 c 0
 342 510 343 511 344 511 c 0
 347 511 359 494 387 494 c 0
 423 494 439 511 442 511 c 0
 444 511 446 510 446 509 c 0
 446 507 439 502 438 501 c 1
 450 501 472 497 490 490 c 1
 472 539 434 570 351 570 c 0
 274 570 225 517 209 452 c 1
 226 461 247 476 250 491 c 0
 247 493 244 497 244 498 c 0
 244 501 246 502 247 502 c 0
 248 502 264 486 296 486 c 0
 312 486 330 493 345 503 c 1
371 430 m 2
 371 441 364 476 357 476 c 0
 339 476 335 398 324 398 c 0
 318 398 312 404 303 404 c 0
 285 404 274 387 274 369 c 0
 274 362 278 356 285 355 c 0
 304 355 305 368 312 368 c 0
 318 368 326 341 344 341 c 0
 368 341 374 362 381 362 c 0
 387 362 395 355 400 355 c 0
 414 355 426 373 426 390 c 0
 426 402 419 416 404 416 c 0
 391 416 387 403 378 403 c 0
 372 403 371 411 371 416 c 2
 371 430 l 2
507 397 m 0
 504 420 503 446 498 465 c 1
 493 468 l 1
 493 437 461 425 434 425 c 0
 406 425 381 444 381 467 c 0
 381 469 383 473 383 476 c 0
 378 477 372 478 368 480 c 1
 383 458 381 423 388 423 c 0
 395 425 399 425 403 425 c 0
 416 425 426 420 434 411 c 1
 464 411 468 374 468 360 c 0
 468 352 499 348 510 318 c 1
 510 346 508 371 507 397 c 0
383 310 m 0
 381 310 357 306 346 306 c 0
 337 306 329 309 322 309 c 0
 289 309 237 293 237 288 c 0
 237 278 251 278 257 278 c 0
 302 278 323 291 355 291 c 0
 391 291 435 284 465 284 c 0
 475 284 485 291 485 293 c 0
 485 300 423 310 383 310 c 0
267 413 m 0
 241 413 223 430 221 444 c 1
 216 441 210 440 206 439 c 0
 202 423 202 409 202 396 c 0
 202 370 202 346 205 318 c 1
 219 339 243 345 247 371 c 0
 250 394 261 409 285 412 c 0
 292 415 300 417 308 417 c 0
 320 417 318 449 342 478 c 1
 329 474 l 1
 328 444 303 413 267 413 c 0
419 465 m 0
 408 465 404 473 403 478 c 1
 395 478 391 467 391 463 c 0
 391 448 418 439 437 439 c 0
 454 439 481 451 481 469 c 0
 481 480 454 486 438 486 c 1
 436 477 431 465 419 465 c 0
267 427 m 0
 285 427 313 444 313 462 c 0
 313 465 313 468 312 471 c 2
 303 471 l 2
 297 471 292 471 285 472 c 1
 282 463 274 458 267 458 c 0
 262 458 257 458 252 463 c 1
 247 458 241 455 234 451 c 1
 237 435 252 427 267 427 c 0
266 288 m 0
 265 288 264 289 264 291 c 0
 264 300 347 303 371 303 c 0
 391 303 464 301 464 295 c 0
 464 293 462 292 461 292 c 0
 433 296 403 297 373 297 c 0
 336 297 300 295 266 288 c 0
305 262 m 0
 305 271 355 272 368 272 c 0
 369 272 399 272 399 264 c 0
 399 262 399 261 397 261 c 0
 389 261 385 265 377 265 c 0
 358 265 342 264 331 264 c 0
 323 264 315 258 309 258 c 0
 307 258 305 259 305 262 c 0
417 473 m 0
 422 473 426 477 426 483 c 0
 426 484 426 486 426 486 c 1
 421 486 415 482 410 480 c 1
 410 475 413 473 417 473 c 0
266 466 m 0
 270 466 274 469 276 475 c 1
 272 476 269 477 265 479 c 1
 265 477 263 473 259 469 c 0
 260 467 263 466 266 466 c 0
323 34 m 1
 318 82 l 1
 310 0 l 1
 289 0 l 1
 303 125 l 1
 328 125 l 1
 333 65 l 1
 352 125 l 1
 378 125 l 1
 365 0 l 1
 344 0 l 1
 352 82 l 1
 337 34 l 1
 323 34 l 1
65 22 m 2
 64 7 56 0 44 0 c 2
 7 0 l 1
 19 125 l 1
 56 125 l 2
 68 125 75 118 74 104 c 2
 65 22 l 2
280 44 m 2
 279 36 275 30 270 27 c 1
 278 0 l 1
 257 0 l 1
 250 23 l 1
 244 23 l 1
 241 0 l 1
 218 0 l 1
 231 125 l 1
 268 125 l 2
 280 125 287 118 286 104 c 2
 280 44 l 2
182 0 m 1
 186 23 l 1
 172 23 l 1
 169 0 l 1
 148 0 l 1
 159 104 l 2
 160 118 169 125 181 125 c 2
 198 125 l 2
 210 125 217 118 216 104 c 2
 205 0 l 1
 182 0 l 1
414 0 m 1
 417 23 l 1
 404 23 l 1
 401 0 l 1
 378 0 l 1
 389 104 l 2
 390 118 401 125 413 125 c 2
 428 125 l 2
 440 125 449 118 448 104 c 2
 435 0 l 1
 414 0 l 1
590 0 m 1
 605 125 l 1
 640 125 l 2
 654 125 661 118 660 104 c 2
 654 44 l 2
 653 30 642 23 630 23 c 2
 616 23 l 1
 613 0 l 1
 590 0 l 1
112 0 m 1
 115 23 l 1
 102 23 l 1
 99 0 l 1
 76 0 l 1
 91 125 l 1
 112 125 l 1
 103 42 l 1
 116 42 l 1
 125 125 l 1
 148 125 l 1
 134 0 l 1
 112 0 l 1
533 125 m 1
 556 125 l 1
 547 46 l 2
 547 43 547 42 551 42 c 2
 556 42 l 2
 559 42 561 43 561 46 c 2
 569 125 l 1
 590 125 l 1
 582 44 l 2
 581 31 573 24 563 23 c 1
 554 0 l 1
 531 0 l 1
 540 23 l 1
 530 24 524 31 525 44 c 2
 533 125 l 1
509 106 m 1
 498 0 l 1
 475 0 l 1
 486 106 l 1
 473 106 l 1
 475 125 l 1
 524 125 l 1
 522 106 l 1
 509 106 l 1
52 102 m 2
 53 105 52 106 49 106 c 2
 40 106 l 1
 30 18 l 1
 41 18 l 2
 43 18 44 20 44 22 c 2
 52 102 l 2
636 102 m 2
 637 105 636 106 633 106 c 2
 624 106 l 1
 617 42 l 1
 626 42 l 2
 629 42 631 43 631 46 c 2
 636 102 l 2
173 42 m 1
 187 42 l 1
 194 102 l 2
 194 105 194 106 191 106 c 2
 185 106 l 2
 181 106 179 105 179 102 c 2
 173 42 l 1
264 102 m 2
 264 105 264 106 261 106 c 2
 252 106 l 1
 245 42 l 1
 254 42 l 2
 257 42 259 43 259 46 c 2
 264 102 l 2
405 42 m 1
 418 42 l 1
 424 102 l 2
 424 105 424 106 421 106 c 2
 416 106 l 2
 413 106 411 105 411 102 c 2
 405 42 l 1
711 57 m 1
 709 39 l 1
 687 39 l 1
 685 18 l 1
 713 18 l 1
 711 0 l 1
 662 0 l 1
 675 125 l 1
 724 125 l 1
 722 106 l 1
 694 106 l 1
 689 57 l 1
 711 57 l 1
EndSplineSet
EndChar

StartChar: exclam
Encoding: 33 33 2
Width: 190
Flags: MW
HStem: 0 106<42 148 42 148> 680 20G<40 150 150 150>
VStem: 40 110<408 700 408 700>
LayerCount: 2
Fore
SplineSet
136 155 m 1
 54 155 l 1
 40 408 l 1
 40 700 l 1
 150 700 l 1
 150 408 l 1
 136 155 l 1
42 106 m 1
 148 106 l 1
 148 0 l 1
 42 0 l 1
 42 106 l 1
EndSplineSet
EndChar

StartChar: quotedbl
Encoding: 34 34 3
Width: 325
Flags: MW
HStem: 494 206<55 55 55 130 194 269 194 194>
VStem: 47 90 186 90
LayerCount: 2
Fore
SplineSet
55 494 m 1
 40 700 l 1
 146 700 l 1
 130 494 l 1
 55 494 l 1
194 494 m 1xa0
 179 700 l 1
 285 700 l 1
 269 494 l 1
 194 494 l 1xa0
EndSplineSet
EndChar

StartChar: numbersign
Encoding: 35 35 4
Width: 410
Flags: MW
HStem: 0 21G<43 133 43 43 198 288 198 198> 200 78<23 64 15 72 162 219 317 360> 461 78<49 91 41 99 189 246 344 387> 680 20G<116 206 206 206 271 361 361 361>
VStem: 15 380<200 539>
LayerCount: 2
Fore
SplineSet
198 0 m 1
 219 200 l 1
 154 200 l 1
 133 0 l 1
 43 0 l 1
 64 200 l 1
 15 200 l 1
 23 278 l 1
 72 278 l 1
 91 461 l 1
 41 461 l 1
 49 539 l 1
 99 539 l 1
 116 700 l 1
 206 700 l 1
 189 539 l 1
 254 539 l 1
 271 700 l 1
 361 700 l 1
 344 539 l 1
 395 539 l 1
 387 461 l 1
 336 461 l 1
 317 278 l 1
 368 278 l 1
 360 200 l 1
 309 200 l 1
 288 0 l 1
 198 0 l 1
181 461 m 1
 162 278 l 1
 227 278 l 1
 246 461 l 1
 181 461 l 1
EndSplineSet
EndChar

StartChar: dollar
Encoding: 36 36 5
Width: 396
Flags: MW
HStem: -45 21G<153 243 153 153> 6 97<153 212.5 177.5 243> 598 95<153 219.5> 725 20G<153 243 243 243>
VStem: 34 104<178 226 146 226> 37 110<504 554 504 569> 153 90<-45 6 -45 6 693 745> 252 110<146 196> 257 104<500 522 500 529 500 554>
LayerCount: 2
Fore
SplineSet
37 522 m 0xf7
 37 616 76 676 153 693 c 1
 153 745 l 1
 243 745 l 1
 243 693 l 1
 321 677 361 617 361 522 c 2
 361 500 l 1
 257 500 l 1
 257 529 l 2
 257 579 237 598 202 598 c 0
 167 598 147 579 147 529 c 0xf680
 147 479 167 444 241 385 c 0
 331 313 362 258 362 178 c 0
 362 83 321 22 243 6 c 1
 243 -45 l 1
 153 -45 l 1
 153 6 l 1
 74 22 34 83 34 178 c 2
 34 226 l 1
 138 226 l 1
 138 171 l 2xfb
 138 121 160 103 195 103 c 0
 230 103 252 121 252 171 c 0
 252 221 232 257 158 315 c 0
 68 386 37 442 37 522 c 0xf7
EndSplineSet
EndChar

StartChar: percent
Encoding: 37 37 6
Width: 627
Flags: MW
HStem: -5 63<475.5 498 475.5 521.5> 0 21G<140 140 140 205> 251 63<128.5 151 128.5 174.5> 386 63<475.5 498> 642 63<128.5 151> 680 20G<416 481 481 481>
VStem: 34 70<363 593 593 598> 140 341 176 70<358 363 363 593> 381 70<107 337 337 342> 523 70<102 107 107 337>
LayerCount: 2
Fore
SplineSet
104 598 m 2x2a80
 104 358 l 2
 104 327 117 314 140 314 c 0
 162 314 176 327 176 358 c 2
 176 598 l 2
 176 629 162 642 140 642 c 0
 117 642 104 629 104 598 c 2x2a80
34 363 m 2
 34 593 l 2
 34 665 71 705 140 705 c 0
 209 705 246 665 246 593 c 2
 246 363 l 2
 246 291 209 251 140 251 c 0
 71 251 34 291 34 363 c 2
140 0 m 1x45
 416 700 l 1
 481 700 l 1
 205 0 l 1
 140 0 l 1x45
451 342 m 2x9060
 451 102 l 2
 451 71 464 58 487 58 c 0
 509 58 523 71 523 102 c 2
 523 342 l 2
 523 373 509 386 487 386 c 0
 464 386 451 373 451 342 c 2x9060
381 107 m 2
 381 337 l 2
 381 409 418 449 487 449 c 0
 556 449 593 409 593 337 c 2
 593 107 l 2
 593 35 556 -5 487 -5 c 0
 418 -5 381 35 381 107 c 2
EndSplineSet
EndChar

StartChar: ampersand
Encoding: 38 38 7
Width: 414
Flags: MW
HStem: -8 100<122.5 224.5> 0 21G<275 387 275 275> 315 100<217 223 223 265 375 404> 600 100<205 207 207 331>
VStem: 41 110<152 161 161 223 223 226 136 258.5 514 527 527 532> 265 110<55 85 153 315 415 493>
LayerCount: 2
Fore
SplineSet
41 223 m 2xbc
 41 294 63 345 117 369 c 1
 117 371 l 1
 65 393 41 439 41 514 c 2
 41 527 l 2
 41 639 95 700 205 700 c 2
 331 700 l 1
 331 600 l 1
 207 600 l 2
 172 600 151 582 151 532 c 2
 151 489 l 2
 151 433 176 415 217 415 c 2
 265 415 l 1
 265 493 l 1
 375 493 l 1
 375 415 l 1
 404 415 l 1
 404 315 l 1
 375 315 l 1
 375 85 l 2
 375 51 376 26 387 0 c 1
 275 0 l 1
 270 14 267 24 265 55 c 1x7c
 263 55 l 1
 244 14 212 -8 163 -8 c 0
 82 -8 41 49 41 152 c 2
 41 223 l 2xbc
151 161 m 2
 151 111 173 92 208 92 c 0
 241 92 263 109 265 153 c 2
 265 315 l 1xbc
 223 315 l 2
 173 315 151 291 151 226 c 2
 151 161 l 2
EndSplineSet
EndChar

StartChar: quotesingle
Encoding: 39 39 8
Width: 180
Flags: MW
HStem: 494 206<52 52 52 127>
VStem: 44 90
LayerCount: 2
Fore
SplineSet
52 494 m 1
 37 700 l 1
 143 700 l 1
 127 494 l 1
 52 494 l 1
EndSplineSet
EndChar

StartChar: parenleft
Encoding: 40 40 9
Width: 251
Flags: MW
HStem: 0 90<146 235 208 235 208 235> 610 90<201 208 208 235>
VStem: 47 110<153 547>
LayerCount: 2
Fore
SplineSet
201 700 m 2
 235 700 l 1
 235 610 l 1
 208 610 l 2
 173 610 157 597 157 547 c 2
 157 153 l 2
 157 103 173 90 208 90 c 2
 235 90 l 1
 235 0 l 1
 201 0 l 2
 91 0 47 41 47 153 c 2
 47 547 l 2
 47 659 91 700 201 700 c 2
EndSplineSet
EndChar

StartChar: parenright
Encoding: 41 41 10
Width: 251
Flags: MW
HStem: 0 90<16 43 43 50 16 43> 610 90<16 43 16 50>
VStem: 94 110<153 547>
LayerCount: 2
Fore
SplineSet
16 700 m 1
 50 700 l 2
 160 700 204 659 204 547 c 2
 204 153 l 2
 204 41 160 0 50 0 c 2
 16 0 l 1
 16 90 l 1
 43 90 l 2
 78 90 94 103 94 153 c 2
 94 547 l 2
 94 597 78 610 43 610 c 2
 16 610 l 1
 16 700 l 1
EndSplineSet
EndChar

StartChar: asterisk
Encoding: 42 42 11
Width: 396
Flags: MW
HStem: 327 21G<121 121 275 275> 680 20G<153 243 243 243>
LayerCount: 2
Fore
SplineSet
30 610 m 1
 179 535 l 1
 153 700 l 1
 243 700 l 1
 217 535 l 1
 366 610 l 1
 394 525 l 1
 230 497 l 1
 347 380 l 1
 275 327 l 1
 198 475 l 1
 121 327 l 1
 49 380 l 1
 166 497 l 1
 2 525 l 1
 30 610 l 1
EndSplineSet
EndChar

StartChar: plus
Encoding: 43 43 12
Width: 396
Flags: MW
HStem: 311 78<25 159 25 159 237 371>
VStem: 159 78<174 311 174 311 389 524>
LayerCount: 2
Fore
SplineSet
237 524 m 1
 237 389 l 1
 371 389 l 1
 371 311 l 1
 237 311 l 1
 237 174 l 1
 159 174 l 1
 159 311 l 1
 25 311 l 1
 25 389 l 1
 159 389 l 1
 159 524 l 1
 237 524 l 1
EndSplineSet
EndChar

StartChar: comma
Encoding: 44 44 13
Width: 186
Flags: MW
HStem: -100 21G<53 98 53 53> 0 106<40 82 40 146>
VStem: 40 106<11 106 11 106 11 106>
LayerCount: 2
Fore
SplineSet
82 0 m 1
 40 0 l 1
 40 106 l 1
 146 106 l 1
 146 11 l 1
 98 -100 l 1
 53 -100 l 1
 82 0 l 1
EndSplineSet
EndChar

StartChar: hyphen
Encoding: 45 45 14
Width: 270
Flags: MW
HStem: 300 100<35 235 35 235>
VStem: 35 200<300 400 300 400>
LayerCount: 2
Fore
SplineSet
35 300 m 1
 35 400 l 1
 235 400 l 1
 235 300 l 1
 35 300 l 1
EndSplineSet
EndChar

StartChar: period
Encoding: 46 46 15
Width: 186
Flags: MW
HStem: 0 106<40 146 40 146>
VStem: 40 106<0 106 0 106>
LayerCount: 2
Fore
SplineSet
40 106 m 1
 146 106 l 1
 146 0 l 1
 40 0 l 1
 40 106 l 1
EndSplineSet
EndChar

StartChar: slash
Encoding: 47 47 16
Width: 381
Flags: MW
HStem: 0 21G<5 5 5 100> 680 20G<281 376 376 376>
VStem: 5 371
LayerCount: 2
Fore
SplineSet
5 0 m 1
 281 700 l 1
 376 700 l 1
 100 0 l 1
 5 0 l 1
EndSplineSet
EndChar

StartChar: colon
Encoding: 58 58 17
Width: 186
Flags: MW
HStem: 0 106<40 146 40 146> 381 106<40 146 40 146>
VStem: 40 106<0 106 0 106 381 487>
LayerCount: 2
Fore
SplineSet
40 106 m 1
 146 106 l 1
 146 0 l 1
 40 0 l 1
 40 106 l 1
40 487 m 1x60
 146 487 l 1
 146 381 l 1
 40 381 l 1
 40 487 l 1x60
EndSplineSet
EndChar

StartChar: semicolon
Encoding: 59 59 18
Width: 186
Flags: MW
HStem: -100 21G<53 98 53 53> 0 106<40 82 40 146> 381 106<40 146 40 146>
VStem: 40 106<11 106 11 106 11 106 381 487>
LayerCount: 2
Fore
SplineSet
82 0 m 1
 40 0 l 1
 40 106 l 1
 146 106 l 1
 146 11 l 1
 98 -100 l 1
 53 -100 l 1
 82 0 l 1
40 487 m 1x30
 146 487 l 1
 146 381 l 1
 40 381 l 1
 40 487 l 1x30
EndSplineSet
EndChar

StartChar: less
Encoding: 60 60 19
Width: 396
Flags: MW
HStem: 191 318<356 356>
VStem: 30 326<191 389 191 389>
LayerCount: 2
Fore
SplineSet
356 191 m 1
 30 311 l 1
 30 389 l 1
 356 509 l 1
 356 430 l 1
 132 350 l 1
 356 270 l 1
 356 191 l 1
EndSplineSet
EndChar

StartChar: equal
Encoding: 61 61 20
Width: 396
Flags: MW
HStem: 230 78<35 361 35 361> 392 78<35 361 35 361>
VStem: 35 326<230 308 230 308 392 470 230 470>
LayerCount: 2
Fore
SplineSet
35 308 m 1
 361 308 l 1
 361 230 l 1
 35 230 l 1
 35 308 l 1
35 470 m 1
 361 470 l 1
 361 392 l 1
 35 392 l 1
 35 470 l 1
EndSplineSet
EndChar

StartChar: greater
Encoding: 62 62 21
Width: 396
Flags: MW
HStem: 191 318<40 40>
VStem: 40 326<191 311 270 311 311 509 311 509>
LayerCount: 2
Fore
SplineSet
366 311 m 1
 40 191 l 1
 40 270 l 1
 264 350 l 1
 40 430 l 1
 40 509 l 1
 366 389 l 1
 366 311 l 1
EndSplineSet
EndChar

StartChar: question
Encoding: 63 63 22
Width: 360
Flags: MW
HStem: 0 106<115 221 115 221> 608 100<161.5 196.5>
VStem: 20 104<463 532 532 539 463 588> 114 100<189 216.5 187.5 226> 115 106<0 106 0 106> 234 110<505.5 564>
LayerCount: 2
Fore
SplineSet
218 155 m 1xd4
 120 155 l 1
 116 167 114 180 114 198 c 0xd4
 114 254 128 295 171 356 c 0
 220 426 234 472 234 539 c 0
 234 589 214 608 179 608 c 0
 144 608 124 589 124 539 c 2
 124 463 l 1
 20 463 l 1
 20 532 l 2xe4
 20 644 75 708 182 708 c 0
 289 708 344 644 344 532 c 0
 344 457 324 403 270 331 c 0
 227 273 214 239 214 194 c 0
 214 181 215 168 218 155 c 1xd4
115 106 m 1xcc
 221 106 l 1
 221 0 l 1
 115 0 l 1
 115 106 l 1xcc
EndSplineSet
EndChar

StartChar: at
Encoding: 64 64 23
Width: 689
Flags: MW
HStem: -60 84<271.5 382> 133 93 440 96<348.5 353 297 376.5> 655 85<300 458.5>
VStem: 24 94<204.5 399 204.5 413.5> 199 98<215 279.5> 588 83<393 506.5>
LayerCount: 2
Fore
SplineSet
476 127 m 0
 425 127 393 146 389 193 c 1
 387 193 l 1
 367 152 337 133 293 133 c 0
 232 133 199 177 199 253 c 0
 199 264 200 276 201 287 c 2
 212 388 l 2
 222 486 262 536 332 536 c 0
 374 536 401 514 414 475 c 1
 416 475 l 1
 425 532 l 1
 518 532 l 1
 488 243 l 2
 486 226 492 218 508 218 c 0
 564 218 588 342 588 444 c 0
 588 569 528 655 389 655 c 0
 211 655 118 513 118 285 c 0
 118 124 192 24 351 24 c 0
 425 24 488 38 558 92 c 1
 550 -4 l 1
 484 -48 419 -60 345 -60 c 0
 120 -60 24 83 24 290 c 0
 24 537 146 740 393 740 c 0
 604 740 671 608 671 446 c 0
 671 200 553 127 476 127 c 0
307 377 m 2
 298 292 l 2
 297 284 297 282 297 277 c 0
 297 242 314 227 341 226 c 0
 371 225 392 243 397 289 c 2
 407 384 l 2
 408 390 408 393 408 396 c 0
 408 426 389 440 364 440 c 0
 333 440 312 424 307 377 c 2
EndSplineSet
EndChar

StartChar: A
Encoding: 65 65 24
Width: 407
Flags: MW
HStem: 0 21G<11 112 11 11 285 396 285 285> 127 95<145 251 145 266 131 251> 680 20G<123 284 284 284>
VStem: 11 385<0 0>
LayerCount: 2
Fore
SplineSet
284 700 m 1
 396 0 l 1
 285 0 l 1
 266 127 l 1
 131 127 l 1
 112 0 l 1
 11 0 l 1
 123 700 l 1
 284 700 l 1
197 576 m 1
 145 222 l 1
 251 222 l 1
 199 576 l 1
 197 576 l 1
EndSplineSet
EndChar

StartChar: B
Encoding: 66 66 25
Width: 406
Flags: MW
HStem: 0 100<150 213 150 213> 315 100<150 193 193 199 150 193> 600 100<150 203 150 150>
VStem: 40 110<100 315 100 415 415 600> 259 110<489 514 514 528 528 539 478 553> 270 110<169 223 112 230 112 262.5>
LayerCount: 2
Fore
SplineSet
206 700 m 2xf8
 320 700 369 647 369 539 c 2
 369 514 l 2
 369 442 347 397 298 374 c 1xf8
 298 372 l 1
 357 349 380 297 380 223 c 2
 380 166 l 2xf4
 380 58 323 0 213 0 c 2
 40 0 l 1
 40 700 l 1
 206 700 l 2xf8
199 315 m 2
 150 315 l 1xf8
 150 100 l 1
 213 100 l 2
 250 100 270 117 270 169 c 2
 270 230 l 2
 270 295 249 315 199 315 c 2
203 600 m 2
 150 600 l 1
 150 415 l 1
 193 415 l 2
 234 415 259 433 259 489 c 2
 259 528 l 2
 259 578 242 600 203 600 c 2
EndSplineSet
EndChar

StartChar: C
Encoding: 67 67 26
Width: 386
Flags: MW
HStem: -8 101<180.5 215.5 180.5 249> 608 100<180.5 215.5>
VStem: 31 110<168 532 532 539> 255 104<161 168 168 261 112 261 464 532>
LayerCount: 2
Fore
SplineSet
255 261 m 1
 359 261 l 1
 359 168 l 2
 359 56 303 -8 195 -8 c 0
 87 -8 31 56 31 168 c 2
 31 532 l 2
 31 644 87 708 195 708 c 0
 303 708 359 644 359 532 c 2
 359 464 l 1
 255 464 l 1
 255 539 l 2
 255 589 233 608 198 608 c 0
 163 608 141 589 141 539 c 2
 141 161 l 2
 141 111 163 93 198 93 c 0
 233 93 255 111 255 161 c 2
 255 261 l 1
EndSplineSet
EndChar

StartChar: D
Encoding: 68 68 27
Width: 408
Flags: MW
HStem: 0 100<150 212 212 214> 600 100<150 212 150 150>
VStem: 40 110<100 600 100 700 100 700> 268 110<168 173 173 527>
LayerCount: 2
Fore
SplineSet
40 0 m 1
 40 700 l 1
 214 700 l 2
 324 700 378 639 378 527 c 2
 378 173 l 2
 378 61 324 0 214 0 c 2
 40 0 l 1
212 600 m 2
 150 600 l 1
 150 100 l 1
 212 100 l 2
 247 100 268 118 268 168 c 2
 268 532 l 2
 268 582 247 600 212 600 c 2
EndSplineSet
EndChar

StartChar: E
Encoding: 69 69 28
Width: 368
Flags: MW
HStem: 0 100<150 340 150 340> 305 100<150 301 150 301> 600 100<150 150 150 340>
VStem: 40 110<100 305 405 600>
LayerCount: 2
Fore
SplineSet
150 600 m 1
 150 405 l 1
 301 405 l 1
 301 305 l 1
 150 305 l 1
 150 100 l 1
 340 100 l 1
 340 0 l 1
 40 0 l 1
 40 700 l 1
 340 700 l 1
 340 600 l 1
 150 600 l 1
EndSplineSet
EndChar

StartChar: F
Encoding: 70 70 29
Width: 344
Flags: MW
HStem: 0 21G<40 150 40 40> 289 100<150 292 150 292> 600 100<150 150 150 331>
VStem: 40 110<0 289 389 600>
LayerCount: 2
Fore
SplineSet
150 600 m 1
 150 389 l 1
 292 389 l 1
 292 289 l 1
 150 289 l 1
 150 0 l 1
 40 0 l 1
 40 700 l 1
 331 700 l 1
 331 600 l 1
 150 600 l 1
EndSplineSet
EndChar

StartChar: G
Encoding: 71 71 30
Width: 390
Flags: MW
HStem: -8 101<180.5 215.5 180.5 249> 290 100<205 359 205 255> 608 100<180.5 215.5>
VStem: 31 110<168 532 532 539> 255 104<161 168 168 290 290 290 464 532>
LayerCount: 2
Fore
SplineSet
205 290 m 1
 205 390 l 1
 359 390 l 1
 359 168 l 2
 359 56 303 -8 195 -8 c 0
 87 -8 31 56 31 168 c 2
 31 532 l 2
 31 644 87 708 195 708 c 0
 303 708 359 644 359 532 c 2
 359 464 l 1
 255 464 l 1
 255 539 l 2
 255 589 233 608 198 608 c 0
 163 608 141 589 141 539 c 2
 141 161 l 2
 141 111 163 93 198 93 c 0
 233 93 255 111 255 161 c 2
 255 290 l 1
 205 290 l 1
EndSplineSet
EndChar

StartChar: H
Encoding: 72 72 31
Width: 427
Flags: MW
HStem: 0 21G<40 150 40 40 275 275 275 387> 300 100<150 275 150 275> 680 20G<40 150 150 150 275 387 387 387>
VStem: 40 110<0 300 0 400 400 700> 275 112<0 300 300 300 400 700 0 700>
LayerCount: 2
Fore
SplineSet
150 300 m 1
 150 0 l 1
 40 0 l 1
 40 700 l 1
 150 700 l 1
 150 400 l 1
 275 400 l 1
 275 700 l 1
 387 700 l 1
 387 0 l 1
 275 0 l 1
 275 300 l 1
 150 300 l 1
EndSplineSet
EndChar

StartChar: I
Encoding: 73 73 32
Width: 190
Flags: MW
HStem: 0 21G<40 40 40 150> 680 20G<40 150 150 150>
VStem: 40 110<0 700 0 700>
LayerCount: 2
Fore
SplineSet
40 0 m 1
 40 700 l 1
 150 700 l 1
 150 0 l 1
 40 0 l 1
EndSplineSet
EndChar

StartChar: J
Encoding: 74 74 33
Width: 256
Flags: MW
HStem: -2 101<53 65.5 42 104.5> 680 20G<111 221 221 221>
VStem: 111 110<166 174 174 700>
LayerCount: 2
Fore
SplineSet
10 0 m 1
 10 100 l 1
 22 99 36 99 48 99 c 0
 83 99 111 112 111 166 c 2
 111 700 l 1
 221 700 l 1
 221 174 l 2
 221 34 146 -2 63 -2 c 0
 43 -2 28 -2 10 0 c 1
EndSplineSet
EndChar

StartChar: K
Encoding: 75 75 34
Width: 414
Flags: MW
HStem: 0 21G<40 150 40 40 291 404 291 291> 680 20G<40 150 150 150 294 404 404 404>
VStem: 40 110<0 215 397 700>
LayerCount: 2
Fore
SplineSet
291 0 m 1
 184 279 l 1
 150 215 l 1
 150 0 l 1
 40 0 l 1
 40 700 l 1
 150 700 l 1
 150 397 l 1
 152 397 l 1
 294 700 l 1
 404 700 l 1
 251 388 l 1
 404 0 l 1
 291 0 l 1
EndSplineSet
EndChar

StartChar: L
Encoding: 76 76 35
Width: 339
Flags: MW
HStem: 0 100<150 331 150 331> 680 20G<40 150 150 150>
VStem: 40 110<100 700 100 700 100 700>
LayerCount: 2
Fore
SplineSet
40 0 m 1
 40 700 l 1
 150 700 l 1
 150 100 l 1
 331 100 l 1
 331 0 l 1
 40 0 l 1
EndSplineSet
EndChar

StartChar: M
Encoding: 77 77 36
Width: 541
Flags: MW
HStem: 0 21G<39 135 39 39 217 321 217 217 397 501 397 397> 680 20G<39 192 192 192 348 501 501 501>
VStem: 39 96<0 495 0 700> 397 104<0 502 502 502>
LayerCount: 2
Fore
SplineSet
192 700 m 1
 272 203 l 1
 274 203 l 1
 348 700 l 1
 501 700 l 1
 501 0 l 1
 397 0 l 1
 397 502 l 1
 395 502 l 1
 321 0 l 1
 217 0 l 1
 137 495 l 1
 135 495 l 1
 135 0 l 1
 39 0 l 1
 39 700 l 1
 192 700 l 1
EndSplineSet
EndChar

StartChar: N
Encoding: 78 78 37
Width: 427
Flags: MW
HStem: 0 21G<39 138 39 39 275 388 275 275> 680 20G<39 177 177 177 290 388 388 388>
VStem: 39 99<0 507 0 700> 290 98<281 700 0 700>
LayerCount: 2
Fore
SplineSet
275 0 m 1
 140 507 l 1
 138 507 l 1
 138 0 l 1
 39 0 l 1
 39 700 l 1
 177 700 l 1
 288 281 l 1
 290 281 l 1
 290 700 l 1
 388 700 l 1
 388 0 l 1
 275 0 l 1
EndSplineSet
EndChar

StartChar: O
Encoding: 79 79 38
Width: 396
Flags: MW
HStem: -8 100<180.5 215.5 180.5 252> 608 100<180.5 215.5>
VStem: 31 110<168 532 532 539> 255 110<161 168 168 532>
LayerCount: 2
Fore
SplineSet
141 539 m 2
 141 161 l 2
 141 111 163 92 198 92 c 0
 233 92 255 111 255 161 c 2
 255 539 l 2
 255 589 233 608 198 608 c 0
 163 608 141 589 141 539 c 2
31 168 m 2
 31 532 l 2
 31 644 90 708 198 708 c 0
 306 708 365 644 365 532 c 2
 365 168 l 2
 365 56 306 -8 198 -8 c 0
 90 -8 31 56 31 168 c 2
EndSplineSet
EndChar

StartChar: P
Encoding: 80 80 39
Width: 377
Flags: MW
HStem: 0 21G<40 150 40 40> 263 100<150 202 150 202> 600 100<150 202 150 150>
VStem: 40 110<0 263 0 363 363 600> 256 110<429 436 436 527 380 534 380 559>
LayerCount: 2
Fore
SplineSet
202 700 m 2
 312 700 366 639 366 527 c 2
 366 436 l 2
 366 324 312 263 202 263 c 2
 150 263 l 1
 150 0 l 1
 40 0 l 1
 40 700 l 1
 202 700 l 2
202 600 m 2
 150 600 l 1
 150 363 l 1
 202 363 l 2
 237 363 256 379 256 429 c 2
 256 534 l 2
 256 584 237 600 202 600 c 2
EndSplineSet
EndChar

StartChar: Q
Encoding: 81 81 40
Width: 396
Flags: MW
HStem: -43 98<345.5 385 375 385 375 385> -8 100<180.5 212.5> 608 100<180.5 215.5>
VStem: 31 110<168 532 532 539> 255 110<161 168 168 532> 275 110
LayerCount: 2
Fore
SplineSet
31 168 m 2x74
 31 532 l 2
 31 644 90 708 198 708 c 0
 306 708 365 644 365 532 c 2
 365 168 l 2x78
 365 129 358 96 344 70 c 1
 349 57 357 55 375 55 c 2
 385 55 l 1
 385 -43 l 1
 370 -43 l 2xb4
 321 -43 290 -25 275 5 c 1
 253 -3 227 -8 198 -8 c 0
 90 -8 31 56 31 168 c 2x74
141 539 m 2
 141 161 l 2
 141 111 163 92 198 92 c 0
 233 92 255 111 255 161 c 2
 255 539 l 2
 255 589 233 608 198 608 c 0
 163 608 141 589 141 539 c 2
EndSplineSet
EndChar

StartChar: R
Encoding: 82 82 41
Width: 402
Flags: MW
HStem: 0 21G<40 150 40 40 270 382 270 270> 285 100<150 188 150 193> 600 100<150 203 150 150>
VStem: 40 110<0 285 0 385 385 600> 260 110<86 193 68 196>
LayerCount: 2
Fore
SplineSet
382 0 m 1
 270 0 l 1
 264 18 260 29 260 86 c 2
 260 196 l 2
 260 261 238 285 188 285 c 2
 150 285 l 1
 150 0 l 1
 40 0 l 1
 40 700 l 1
 206 700 l 2
 320 700 369 647 369 539 c 2
 369 484 l 2
 369 412 346 366 297 343 c 1
 297 341 l 1
 352 318 370 266 370 193 c 2
 370 85 l 2
 370 51 371 26 382 0 c 1
203 600 m 2
 150 600 l 1
 150 385 l 1
 193 385 l 2
 234 385 259 403 259 459 c 2
 259 528 l 2
 259 578 242 600 203 600 c 2
EndSplineSet
EndChar

StartChar: S
Encoding: 83 83 42
Width: 374
Flags: MW
HStem: -8 101<166.5 201.5 166.5 241> 608 100<173.5 208.5>
VStem: 23 104<168 211 136 211> 26 110<513.5 564 513.5 588> 241 110<136 186.5> 246 104<510 532 510 539 510 564>
LayerCount: 2
Fore
SplineSet
26 532 m 0xd8
 26 644 81 708 188 708 c 0
 295 708 350 644 350 532 c 2
 350 510 l 1
 246 510 l 1
 246 539 l 2
 246 589 226 608 191 608 c 0
 156 608 136 589 136 539 c 0xd4
 136 488 158 450 230 387 c 0
 322 306 351 248 351 168 c 0
 351 56 295 -8 187 -8 c 0
 79 -8 23 56 23 168 c 2
 23 211 l 1
 127 211 l 1
 127 161 l 2xe8
 127 111 149 93 184 93 c 0
 219 93 241 111 241 161 c 0
 241 212 219 250 147 313 c 0
 55 394 26 452 26 532 c 0xd8
EndSplineSet
EndChar

StartChar: T
Encoding: 84 84 43
Width: 356
Flags: MW
HStem: 0 21G<123 233 123 123> 600 100<8 348 8 123 233 233 233 348>
VStem: 123 110<0 600 0 600>
LayerCount: 2
Fore
SplineSet
8 600 m 1
 8 700 l 1
 348 700 l 1
 348 600 l 1
 233 600 l 1
 233 0 l 1
 123 0 l 1
 123 600 l 1
 8 600 l 1
EndSplineSet
EndChar

StartChar: U
Encoding: 85 85 44
Width: 398
Flags: MW
HStem: -9 101<184.5 219.5 184.5 253> 680 20G<35 145 145 145 259 363 363 363>
VStem: 35 110<167 700> 259 104<160 167 167 700>
LayerCount: 2
Fore
SplineSet
35 700 m 1
 145 700 l 1
 145 160 l 2
 145 110 167 92 202 92 c 0
 237 92 259 110 259 160 c 2
 259 700 l 1
 363 700 l 1
 363 167 l 2
 363 55 307 -9 199 -9 c 0
 91 -9 35 55 35 167 c 2
 35 700 l 1
EndSplineSet
EndChar

StartChar: V
Encoding: 86 86 45
Width: 402
Flags: MW
HStem: 0 21G<119 283 119 119> 680 20G<11 122 122 122 290 391 391 391>
VStem: 11 380<700 700>
LayerCount: 2
Fore
SplineSet
122 700 m 1
 205 129 l 1
 207 129 l 1
 290 700 l 1
 391 700 l 1
 283 0 l 1
 119 0 l 1
 11 700 l 1
 122 700 l 1
EndSplineSet
EndChar

StartChar: W
Encoding: 87 87 46
Width: 563
Flags: MW
HStem: 0 21G<93 244 93 93 324 470 324 324> 680 20G<15 122 122 122 234 340 340 340 452 548 548 548>
VStem: 15 533<700 700>
LayerCount: 2
Fore
SplineSet
324 0 m 1
 285 373 l 1
 283 373 l 1
 244 0 l 1
 93 0 l 1
 15 700 l 1
 122 700 l 1
 180 148 l 1
 182 148 l 1
 234 700 l 1
 340 700 l 1
 394 144 l 1
 396 144 l 1
 452 700 l 1
 548 700 l 1
 470 0 l 1
 324 0 l 1
EndSplineSet
EndChar

StartChar: X
Encoding: 88 88 47
Width: 430
Flags: MW
HStem: 0 21G<15 118 15 15 299 415 299 299> 680 20G<23 137 137 137 305 407 407 407>
VStem: 15 400<0 0>
LayerCount: 2
Fore
SplineSet
305 700 m 1
 407 700 l 1
 292 360 l 1
 415 0 l 1
 299 0 l 1
 210 277 l 1
 208 277 l 1
 118 0 l 1
 15 0 l 1
 138 360 l 1
 23 700 l 1
 137 700 l 1
 219 442 l 1
 221 442 l 1
 305 700 l 1
EndSplineSet
EndChar

StartChar: Y
Encoding: 89 89 48
Width: 396
Flags: MW
HStem: 0 21G<143 143 143 253> 680 20G<4 119 119 119 287 392 392 392>
VStem: 143 110<0 232 0 232>
LayerCount: 2
Fore
SplineSet
143 0 m 1
 143 232 l 1
 4 700 l 1
 119 700 l 1
 202 381 l 1
 204 381 l 1
 287 700 l 1
 392 700 l 1
 253 232 l 1
 253 0 l 1
 143 0 l 1
EndSplineSet
EndChar

StartChar: Z
Encoding: 90 90 49
Width: 370
Flags: MW
HStem: 0 100<136 345 136 345> 600 100<33 232 33 345>
VStem: 23 322<0 98 98 98>
LayerCount: 2
Fore
SplineSet
33 700 m 1
 345 700 l 1
 345 602 l 1
 136 100 l 1
 345 100 l 1
 345 0 l 1
 23 0 l 1
 23 98 l 1
 232 600 l 1
 33 600 l 1
 33 700 l 1
EndSplineSet
EndChar

StartChar: bracketleft
Encoding: 91 91 50
Width: 251
Flags: MW
HStem: 0 90<157 229 157 229> 610 90<157 229 157 157>
VStem: 47 110<90 610 90 700 90 700>
LayerCount: 2
Fore
SplineSet
47 0 m 1
 47 700 l 1
 229 700 l 1
 229 610 l 1
 157 610 l 1
 157 90 l 1
 229 90 l 1
 229 0 l 1
 47 0 l 1
EndSplineSet
EndChar

StartChar: backslash
Encoding: 92 92 51
Width: 381
Flags: MW
HStem: 0 21G<281 376 281 281> 680 20G<5 100 100 100>
VStem: 5 371
LayerCount: 2
Fore
SplineSet
100 700 m 1
 376 0 l 1
 281 0 l 1
 5 700 l 1
 100 700 l 1
EndSplineSet
EndChar

StartChar: bracketright
Encoding: 93 93 52
Width: 251
Flags: MW
HStem: 0 90<22 94 22 204 22 94> 610 90<22 94 22 204>
VStem: 94 110<90 610 610 610>
LayerCount: 2
Fore
SplineSet
204 700 m 1
 204 0 l 1
 22 0 l 1
 22 90 l 1
 94 90 l 1
 94 610 l 1
 22 610 l 1
 22 700 l 1
 204 700 l 1
EndSplineSet
EndChar

StartChar: asciicircum
Encoding: 94 94 53
Width: 396
Flags: MW
HStem: 680 20G<159 237 237 237>
VStem: 20 356<390 390>
LayerCount: 2
Fore
SplineSet
20 390 m 1
 159 700 l 1
 237 700 l 1
 376 390 l 1
 288 390 l 1
 198 600 l 1
 108 390 l 1
 20 390 l 1
EndSplineSet
EndChar

StartChar: underscore
Encoding: 95 95 54
Width: 500
Flags: MW
HStem: -90 80<0 500 0 500>
VStem: 0 500<-90 -10 -90 -10>
LayerCount: 2
Fore
SplineSet
0 -90 m 1
 0 -10 l 1
 500 -10 l 1
 500 -90 l 1
 0 -90 l 1
EndSplineSet
EndChar

StartChar: grave
Encoding: 96 96 55
Width: 250
Flags: MW
HStem: 737 111<146 157 44 225 146 146>
VStem: 44 181<737 848>
LayerCount: 2
Fore
SplineSet
44 848 m 1
 157 848 l 1
 225 737 l 1
 146 737 l 1
 44 848 l 1
EndSplineSet
EndChar

StartChar: a
Encoding: 97 97 56
Width: 407
Flags: MW
HStem: 0 21G<11 112 11 11 285 396 285 285> 127 95<145 251 145 266 131 251> 680 20G<123 284 284 284>
VStem: 11 385<0 0>
LayerCount: 2
Fore
SplineSet
284 700 m 1
 396 0 l 1
 285 0 l 1
 266 127 l 1
 131 127 l 1
 112 0 l 1
 11 0 l 1
 123 700 l 1
 284 700 l 1
197 576 m 1
 145 222 l 1
 251 222 l 1
 199 576 l 1
 197 576 l 1
EndSplineSet
EndChar

StartChar: b
Encoding: 98 98 57
Width: 406
Flags: MW
HStem: 0 100<150 213 150 213> 315 100<150 193 193 199 150 193> 600 100<150 203 150 150>
VStem: 40 110<100 315 100 415 415 600> 259 110<489 514 514 528 528 539 478 553> 270 110<169 223 112 230 112 262.5>
LayerCount: 2
Fore
SplineSet
206 700 m 2xf8
 320 700 369 647 369 539 c 2
 369 514 l 2
 369 442 347 397 298 374 c 1xf8
 298 372 l 1
 357 349 380 297 380 223 c 2
 380 166 l 2xf4
 380 58 323 0 213 0 c 2
 40 0 l 1
 40 700 l 1
 206 700 l 2xf8
199 315 m 2
 150 315 l 1xf8
 150 100 l 1
 213 100 l 2
 250 100 270 117 270 169 c 2
 270 230 l 2
 270 295 249 315 199 315 c 2
203 600 m 2
 150 600 l 1
 150 415 l 1
 193 415 l 2
 234 415 259 433 259 489 c 2
 259 528 l 2
 259 578 242 600 203 600 c 2
EndSplineSet
EndChar

StartChar: c
Encoding: 99 99 58
Width: 386
Flags: MW
HStem: -8 101<180.5 215.5 180.5 249> 608 100<180.5 215.5>
VStem: 31 110<168 532 532 539> 255 104<161 168 168 261 112 261 464 532>
LayerCount: 2
Fore
SplineSet
255 261 m 1
 359 261 l 1
 359 168 l 2
 359 56 303 -8 195 -8 c 0
 87 -8 31 56 31 168 c 2
 31 532 l 2
 31 644 87 708 195 708 c 0
 303 708 359 644 359 532 c 2
 359 464 l 1
 255 464 l 1
 255 539 l 2
 255 589 233 608 198 608 c 0
 163 608 141 589 141 539 c 2
 141 161 l 2
 141 111 163 93 198 93 c 0
 233 93 255 111 255 161 c 2
 255 261 l 1
EndSplineSet
EndChar

StartChar: d
Encoding: 100 100 59
Width: 408
Flags: MW
HStem: 0 100<150 212 212 214> 600 100<150 212 150 150>
VStem: 40 110<100 600 100 700 100 700> 268 110<168 173 173 527>
LayerCount: 2
Fore
SplineSet
40 0 m 1
 40 700 l 1
 214 700 l 2
 324 700 378 639 378 527 c 2
 378 173 l 2
 378 61 324 0 214 0 c 2
 40 0 l 1
212 600 m 2
 150 600 l 1
 150 100 l 1
 212 100 l 2
 247 100 268 118 268 168 c 2
 268 532 l 2
 268 582 247 600 212 600 c 2
EndSplineSet
EndChar

StartChar: e
Encoding: 101 101 60
Width: 368
Flags: MW
HStem: 0 100<150 340 150 340> 305 100<150 301 150 301> 600 100<150 150 150 340>
VStem: 40 110<100 305 405 600>
LayerCount: 2
Fore
SplineSet
150 600 m 1
 150 405 l 1
 301 405 l 1
 301 305 l 1
 150 305 l 1
 150 100 l 1
 340 100 l 1
 340 0 l 1
 40 0 l 1
 40 700 l 1
 340 700 l 1
 340 600 l 1
 150 600 l 1
EndSplineSet
EndChar

StartChar: f
Encoding: 102 102 61
Width: 344
Flags: MW
HStem: 0 21G<40 150 40 40> 289 100<150 292 150 292> 600 100<150 150 150 331>
VStem: 40 110<0 289 389 600>
LayerCount: 2
Fore
SplineSet
150 600 m 1
 150 389 l 1
 292 389 l 1
 292 289 l 1
 150 289 l 1
 150 0 l 1
 40 0 l 1
 40 700 l 1
 331 700 l 1
 331 600 l 1
 150 600 l 1
EndSplineSet
EndChar

StartChar: g
Encoding: 103 103 62
Width: 390
Flags: MW
HStem: -8 101<180.5 215.5 180.5 249> 290 100<205 359 205 255> 608 100<180.5 215.5>
VStem: 31 110<168 532 532 539> 255 104<161 168 168 290 290 290 464 532>
LayerCount: 2
Fore
SplineSet
205 290 m 1
 205 390 l 1
 359 390 l 1
 359 168 l 2
 359 56 303 -8 195 -8 c 0
 87 -8 31 56 31 168 c 2
 31 532 l 2
 31 644 87 708 195 708 c 0
 303 708 359 644 359 532 c 2
 359 464 l 1
 255 464 l 1
 255 539 l 2
 255 589 233 608 198 608 c 0
 163 608 141 589 141 539 c 2
 141 161 l 2
 141 111 163 93 198 93 c 0
 233 93 255 111 255 161 c 2
 255 290 l 1
 205 290 l 1
EndSplineSet
EndChar

StartChar: h
Encoding: 104 104 63
Width: 427
Flags: MW
HStem: 0 21G<40 150 40 40 275 275 275 387> 300 100<150 275 150 275> 680 20G<40 150 150 150 275 387 387 387>
VStem: 40 110<0 300 0 400 400 700> 275 112<0 300 300 300 400 700 0 700>
LayerCount: 2
Fore
SplineSet
150 300 m 1
 150 0 l 1
 40 0 l 1
 40 700 l 1
 150 700 l 1
 150 400 l 1
 275 400 l 1
 275 700 l 1
 387 700 l 1
 387 0 l 1
 275 0 l 1
 275 300 l 1
 150 300 l 1
EndSplineSet
EndChar

StartChar: i
Encoding: 105 105 64
Width: 190
Flags: MW
HStem: 0 21G<40 40 40 150> 680 20G<40 150 150 150>
VStem: 40 110<0 700 0 700>
LayerCount: 2
Fore
SplineSet
40 0 m 1
 40 700 l 1
 150 700 l 1
 150 0 l 1
 40 0 l 1
EndSplineSet
EndChar

StartChar: j
Encoding: 106 106 65
Width: 256
Flags: MW
HStem: -2 101<53 65.5 42 104.5> 680 20G<111 221 221 221>
VStem: 111 110<166 174 174 700>
LayerCount: 2
Fore
SplineSet
10 0 m 1
 10 100 l 1
 22 99 36 99 48 99 c 0
 83 99 111 112 111 166 c 2
 111 700 l 1
 221 700 l 1
 221 174 l 2
 221 34 146 -2 63 -2 c 0
 43 -2 28 -2 10 0 c 1
EndSplineSet
EndChar

StartChar: k
Encoding: 107 107 66
Width: 414
Flags: MW
HStem: 0 21G<40 150 40 40 291 404 291 291> 680 20G<40 150 150 150 294 404 404 404>
VStem: 40 110<0 215 397 700>
LayerCount: 2
Fore
SplineSet
291 0 m 1
 184 279 l 1
 150 215 l 1
 150 0 l 1
 40 0 l 1
 40 700 l 1
 150 700 l 1
 150 397 l 1
 152 397 l 1
 294 700 l 1
 404 700 l 1
 251 388 l 1
 404 0 l 1
 291 0 l 1
EndSplineSet
EndChar

StartChar: l
Encoding: 108 108 67
Width: 339
Flags: MW
HStem: 0 100<150 331 150 331> 680 20G<40 150 150 150>
VStem: 40 110<100 700 100 700 100 700>
LayerCount: 2
Fore
SplineSet
40 0 m 1
 40 700 l 1
 150 700 l 1
 150 100 l 1
 331 100 l 1
 331 0 l 1
 40 0 l 1
EndSplineSet
EndChar

StartChar: m
Encoding: 109 109 68
Width: 541
Flags: MW
HStem: 0 21G<39 135 39 39 217 321 217 217 397 501 397 397> 680 20G<39 192 192 192 348 501 501 501>
VStem: 39 96<0 495 0 700> 397 104<0 502 502 502>
LayerCount: 2
Fore
SplineSet
192 700 m 1
 272 203 l 1
 274 203 l 1
 348 700 l 1
 501 700 l 1
 501 0 l 1
 397 0 l 1
 397 502 l 1
 395 502 l 1
 321 0 l 1
 217 0 l 1
 137 495 l 1
 135 495 l 1
 135 0 l 1
 39 0 l 1
 39 700 l 1
 192 700 l 1
EndSplineSet
EndChar

StartChar: n
Encoding: 110 110 69
Width: 427
Flags: MW
HStem: 0 21G<39 138 39 39 275 388 275 275> 680 20G<39 177 177 177 290 388 388 388>
VStem: 39 99<0 507 0 700> 290 98<281 700 0 700>
LayerCount: 2
Fore
SplineSet
275 0 m 1
 140 507 l 1
 138 507 l 1
 138 0 l 1
 39 0 l 1
 39 700 l 1
 177 700 l 1
 288 281 l 1
 290 281 l 1
 290 700 l 1
 388 700 l 1
 388 0 l 1
 275 0 l 1
EndSplineSet
EndChar

StartChar: o
Encoding: 111 111 70
Width: 396
Flags: MW
HStem: -8 100<180.5 215.5 180.5 252> 608 100<180.5 215.5>
VStem: 31 110<168 532 532 539> 255 110<161 168 168 532>
LayerCount: 2
Fore
SplineSet
141 539 m 2
 141 161 l 2
 141 111 163 92 198 92 c 0
 233 92 255 111 255 161 c 2
 255 539 l 2
 255 589 233 608 198 608 c 0
 163 608 141 589 141 539 c 2
31 168 m 2
 31 532 l 2
 31 644 90 708 198 708 c 0
 306 708 365 644 365 532 c 2
 365 168 l 2
 365 56 306 -8 198 -8 c 0
 90 -8 31 56 31 168 c 2
EndSplineSet
EndChar

StartChar: p
Encoding: 112 112 71
Width: 377
Flags: MW
HStem: 0 21G<40 150 40 40> 263 100<150 202 150 202> 600 100<150 202 150 150>
VStem: 40 110<0 263 0 363 363 600> 256 110<429 436 436 527 380 534 380 559>
LayerCount: 2
Fore
SplineSet
202 700 m 2
 312 700 366 639 366 527 c 2
 366 436 l 2
 366 324 312 263 202 263 c 2
 150 263 l 1
 150 0 l 1
 40 0 l 1
 40 700 l 1
 202 700 l 2
202 600 m 2
 150 600 l 1
 150 363 l 1
 202 363 l 2
 237 363 256 379 256 429 c 2
 256 534 l 2
 256 584 237 600 202 600 c 2
EndSplineSet
EndChar

StartChar: q
Encoding: 113 113 72
Width: 396
Flags: MW
HStem: -43 98<345.5 385 375 385 375 385> -8 100<180.5 212.5> 608 100<180.5 215.5>
VStem: 31 110<168 532 532 539> 255 110<161 168 168 532> 275 110
LayerCount: 2
Fore
SplineSet
31 168 m 2x74
 31 532 l 2
 31 644 90 708 198 708 c 0
 306 708 365 644 365 532 c 2
 365 168 l 2x78
 365 129 358 96 344 70 c 1
 349 57 357 55 375 55 c 2
 385 55 l 1
 385 -43 l 1
 370 -43 l 2xb4
 321 -43 290 -25 275 5 c 1
 253 -3 227 -8 198 -8 c 0
 90 -8 31 56 31 168 c 2x74
141 539 m 2
 141 161 l 2
 141 111 163 92 198 92 c 0
 233 92 255 111 255 161 c 2
 255 539 l 2
 255 589 233 608 198 608 c 0
 163 608 141 589 141 539 c 2
EndSplineSet
EndChar

StartChar: r
Encoding: 114 114 73
Width: 402
Flags: MW
HStem: 0 21G<40 150 40 40 270 382 270 270> 285 100<150 188 150 193> 600 100<150 203 150 150>
VStem: 40 110<0 285 0 385 385 600> 260 110<86 193 68 196>
LayerCount: 2
Fore
SplineSet
382 0 m 1
 270 0 l 1
 264 18 260 29 260 86 c 2
 260 196 l 2
 260 261 238 285 188 285 c 2
 150 285 l 1
 150 0 l 1
 40 0 l 1
 40 700 l 1
 206 700 l 2
 320 700 369 647 369 539 c 2
 369 484 l 2
 369 412 346 366 297 343 c 1
 297 341 l 1
 352 318 370 266 370 193 c 2
 370 85 l 2
 370 51 371 26 382 0 c 1
203 600 m 2
 150 600 l 1
 150 385 l 1
 193 385 l 2
 234 385 259 403 259 459 c 2
 259 528 l 2
 259 578 242 600 203 600 c 2
EndSplineSet
EndChar

StartChar: s
Encoding: 115 115 74
Width: 374
Flags: MW
HStem: -8 101<166.5 201.5 166.5 241> 608 100<173.5 208.5>
VStem: 23 104<168 211 136 211> 26 110<513.5 564 513.5 588> 241 110<136 186.5> 246 104<510 532 510 539 510 564>
LayerCount: 2
Fore
SplineSet
26 532 m 0xd8
 26 644 81 708 188 708 c 0
 295 708 350 644 350 532 c 2
 350 510 l 1
 246 510 l 1
 246 539 l 2
 246 589 226 608 191 608 c 0
 156 608 136 589 136 539 c 0xd4
 136 488 158 450 230 387 c 0
 322 306 351 248 351 168 c 0
 351 56 295 -8 187 -8 c 0
 79 -8 23 56 23 168 c 2
 23 211 l 1
 127 211 l 1
 127 161 l 2xe8
 127 111 149 93 184 93 c 0
 219 93 241 111 241 161 c 0
 241 212 219 250 147 313 c 0
 55 394 26 452 26 532 c 0xd8
EndSplineSet
EndChar

StartChar: t
Encoding: 116 116 75
Width: 356
Flags: MW
HStem: 0 21G<123 233 123 123> 600 100<8 348 8 123 233 233 233 348>
VStem: 123 110<0 600 0 600>
LayerCount: 2
Fore
SplineSet
8 600 m 1
 8 700 l 1
 348 700 l 1
 348 600 l 1
 233 600 l 1
 233 0 l 1
 123 0 l 1
 123 600 l 1
 8 600 l 1
EndSplineSet
EndChar

StartChar: u
Encoding: 117 117 76
Width: 398
Flags: MW
HStem: -9 101<184.5 219.5 184.5 253> 680 20G<35 145 145 145 259 363 363 363>
VStem: 35 110<167 700> 259 104<160 167 167 700>
LayerCount: 2
Fore
SplineSet
35 700 m 1
 145 700 l 1
 145 160 l 2
 145 110 167 92 202 92 c 0
 237 92 259 110 259 160 c 2
 259 700 l 1
 363 700 l 1
 363 167 l 2
 363 55 307 -9 199 -9 c 0
 91 -9 35 55 35 167 c 2
 35 700 l 1
EndSplineSet
EndChar

StartChar: v
Encoding: 118 118 77
Width: 402
Flags: MW
HStem: 0 21G<119 283 119 119> 680 20G<11 122 122 122 290 391 391 391>
VStem: 11 380<700 700>
LayerCount: 2
Fore
SplineSet
122 700 m 1
 205 129 l 1
 207 129 l 1
 290 700 l 1
 391 700 l 1
 283 0 l 1
 119 0 l 1
 11 700 l 1
 122 700 l 1
EndSplineSet
EndChar

StartChar: w
Encoding: 119 119 78
Width: 563
Flags: MW
HStem: 0 21G<93 244 93 93 324 470 324 324> 680 20G<15 122 122 122 234 340 340 340 452 548 548 548>
VStem: 15 533<700 700>
LayerCount: 2
Fore
SplineSet
324 0 m 1
 285 373 l 1
 283 373 l 1
 244 0 l 1
 93 0 l 1
 15 700 l 1
 122 700 l 1
 180 148 l 1
 182 148 l 1
 234 700 l 1
 340 700 l 1
 394 144 l 1
 396 144 l 1
 452 700 l 1
 548 700 l 1
 470 0 l 1
 324 0 l 1
EndSplineSet
EndChar

StartChar: x
Encoding: 120 120 79
Width: 430
Flags: MW
HStem: 0 21G<15 118 15 15 299 415 299 299> 680 20G<23 137 137 137 305 407 407 407>
VStem: 15 400<0 0>
LayerCount: 2
Fore
SplineSet
305 700 m 1
 407 700 l 1
 292 360 l 1
 415 0 l 1
 299 0 l 1
 210 277 l 1
 208 277 l 1
 118 0 l 1
 15 0 l 1
 138 360 l 1
 23 700 l 1
 137 700 l 1
 219 442 l 1
 221 442 l 1
 305 700 l 1
EndSplineSet
EndChar

StartChar: y
Encoding: 121 121 80
Width: 396
Flags: MW
HStem: 0 21G<143 143 143 253> 680 20G<4 119 119 119 287 392 392 392>
VStem: 143 110<0 232 0 232>
LayerCount: 2
Fore
SplineSet
143 0 m 1
 143 232 l 1
 4 700 l 1
 119 700 l 1
 202 381 l 1
 204 381 l 1
 287 700 l 1
 392 700 l 1
 253 232 l 1
 253 0 l 1
 143 0 l 1
EndSplineSet
EndChar

StartChar: z
Encoding: 122 122 81
Width: 370
Flags: MW
HStem: 0 100<136 345 136 345> 600 100<33 232 33 345>
VStem: 23 322<0 98 98 98>
LayerCount: 2
Fore
SplineSet
33 700 m 1
 345 700 l 1
 345 602 l 1
 136 100 l 1
 345 100 l 1
 345 0 l 1
 23 0 l 1
 23 98 l 1
 232 600 l 1
 33 600 l 1
 33 700 l 1
EndSplineSet
EndChar

StartChar: braceleft
Encoding: 123 123 82
Width: 257
Flags: MW
HStem: 0 90<154 241 225 241 225 241> 305 90<11 32> 610 90<207.5 225 225 241>
VStem: 70 99
CounterMasks: 1 e0
LayerCount: 2
Fore
SplineSet
102 350 m 1
 153 337 165 298 167 261 c 2
 172 161 l 2
 175 106 190 90 225 90 c 2
 241 90 l 1
 241 0 l 1
 185 0 l 2
 123 0 79 35 74 111 c 2
 66 245 l 2
 63 291 53 305 11 305 c 1
 11 395 l 1
 53 395 63 409 66 455 c 2
 74 589 l 2
 79 665 123 700 185 700 c 2
 241 700 l 1
 241 610 l 1
 225 610 l 2
 190 610 175 594 172 539 c 2
 167 439 l 2
 165 402 153 363 102 350 c 1
EndSplineSet
EndChar

StartChar: bar
Encoding: 124 124 83
Width: 500
Flags: MW
HStem: -65 830<210 300 210 300>
VStem: 210 90<-65 765 -65 765>
LayerCount: 2
Fore
SplineSet
210 -65 m 1
 210 765 l 1
 300 765 l 1
 300 -65 l 1
 210 -65 l 1
EndSplineSet
EndChar

StartChar: braceright
Encoding: 125 125 84
Width: 257
Flags: MW
HStem: 0 90<16 32 32 49.5 16 72 16 32> 305 90<225 246> 610 90<16 32 16 72>
VStem: 87 100
CounterMasks: 1 e0
LayerCount: 2
Fore
SplineSet
155 350 m 1
 104 363 92 402 90 439 c 2
 85 539 l 2
 82 594 67 610 32 610 c 2
 16 610 l 1
 16 700 l 1
 72 700 l 2
 134 700 178 665 183 589 c 2
 191 455 l 2
 194 409 204 395 246 395 c 1
 246 305 l 1
 204 305 194 291 191 245 c 2
 183 111 l 2
 178 35 134 0 72 0 c 2
 16 0 l 1
 16 90 l 1
 32 90 l 2
 67 90 82 106 85 161 c 2
 90 261 l 2
 92 298 104 337 155 350 c 1
EndSplineSet
EndChar

StartChar: asciitilde
Encoding: 126 126 85
Width: 396
Flags: MW
HStem: 278 83<262.5 280.5 262.5 291> 339 83<115.5 133.5>
VStem: 8 380<332 364>
LayerCount: 2
Fore
SplineSet
60 282 m 1x60
 8 332 l 1
 52 397 85 422 127 422 c 0x60
 148 422 169 414 207 389 c 0
 240 367 255 361 270 361 c 0
 291 361 302 371 336 418 c 1
 388 364 l 1
 346 302 313 278 269 278 c 0xa0
 248 278 227 286 189 311 c 0
 156 333 141 339 126 339 c 0
 105 339 92 328 60 282 c 1x60
EndSplineSet
EndChar

StartChar: exclamdown
Encoding: 161 161 87
Width: 190
Flags: MW
HStem: 0 21G<40 150 40 40> 594 106<42 148 42 148>
VStem: 40 110<0 292 0 292>
LayerCount: 2
Fore
SplineSet
54 545 m 1
 136 545 l 1
 150 292 l 1
 150 0 l 1
 40 0 l 1
 40 292 l 1
 54 545 l 1
148 594 m 1
 42 594 l 1
 42 700 l 1
 148 700 l 1
 148 594 l 1
EndSplineSet
EndChar

StartChar: cent
Encoding: 162 162 88
Width: 396
Flags: MW
HStem: 36 97<185.5 243> 568 96<185.5 243>
VStem: 36 110<208 492 492 499> 153 90<-15 36 -15 37 -15 37 664 715> 260 104<201 208 208 281 160 281 444 492>
LayerCount: 2
Fore
SplineSet
153 -15 m 1
 153 37 l 1
 76 53 36 113 36 208 c 2
 36 492 l 2
 36 586 76 646 153 663 c 1
 153 715 l 1
 243 715 l 1
 243 664 l 1
 323 648 364 588 364 492 c 2
 364 444 l 1
 260 444 l 1
 260 499 l 2
 260 549 238 568 203 568 c 0
 168 568 146 549 146 499 c 2
 146 201 l 2
 146 151 168 133 203 133 c 0
 238 133 260 151 260 201 c 2
 260 281 l 1
 364 281 l 1
 364 208 l 2
 364 112 323 51 243 36 c 1
 243 -15 l 1
 153 -15 l 1
EndSplineSet
EndChar

StartChar: sterling
Encoding: 163 163 89
Width: 396
Flags: MW
HStem: 0 100<168 357 168 357> 210 85<44 111 44 111 44 125 224 224 224 338> 608 100<187.5 222.5>
VStem: 40 110<509 564 509 588> 125 99<210 210> 260 104<463 532 463 539 463 564>
LayerCount: 2
Fore
SplineSet
44 210 m 1xec
 44 295 l 1
 111 295 l 1
 106 311 99 326 86 351 c 0
 51 422 40 467 40 532 c 0
 40 644 95 708 202 708 c 0
 309 708 364 644 364 532 c 2
 364 463 l 1
 260 463 l 1
 260 539 l 2
 260 589 240 608 205 608 c 0
 170 608 150 589 150 539 c 0xf4
 150 479 159 434 191 366 c 0
 210 325 213 312 217 295 c 1
 338 295 l 1
 338 210 l 1
 224 210 l 1
 219 159 198 124 168 100 c 1
 357 100 l 1
 357 0 l 1
 30 0 l 1
 30 96 l 1
 82 96 123 138 125 210 c 1
 44 210 l 1xec
EndSplineSet
EndChar

StartChar: currency
Encoding: 164 164 90
Width: 396
Flags: MW
HStem: 221 65<185.5 210> 414 65<185.5 210 185.5 215.5>
VStem: 69 65<337.5 362> 262 65<337.5 362 337.5 367.5>
LayerCount: 2
Fore
SplineSet
134 350 m 0
 134 315 163 286 198 286 c 0
 233 286 262 315 262 350 c 0
 262 385 233 414 198 414 c 0
 163 414 134 385 134 350 c 0
32 227 m 1
 87 282 l 1
 75 302 69 325 69 350 c 0
 69 374 75 398 87 417 c 1
 32 473 l 1
 75 516 l 1
 131 460 l 1
 150 472 173 479 198 479 c 0
 222 479 245 472 265 460 c 1
 321 516 l 1
 364 473 l 1
 308 417 l 1
 320 397 327 374 327 350 c 0
 327 325 320 302 308 283 c 1
 364 227 l 1
 321 184 l 1
 265 239 l 1
 246 227 222 221 198 221 c 0
 173 221 150 227 130 239 c 1
 75 184 l 1
 32 227 l 1
EndSplineSet
EndChar

StartChar: yen
Encoding: 165 165 91
Width: 396
Flags: MW
HStem: 0 21G<143 253 143 143> 116 55<52 143 52 143 253 344> 216 55<52 134 52 143 52 134 261 344> 680 20G<7 122 122 122 284 389 389 389>
VStem: 143 110<0 116 0 116 171 216 0 216>
LayerCount: 2
Fore
SplineSet
284 700 m 1
 389 700 l 1
 261 271 l 1
 344 271 l 1
 344 216 l 1
 253 216 l 1
 253 171 l 1
 344 171 l 1
 344 116 l 1
 253 116 l 1
 253 0 l 1
 143 0 l 1
 143 116 l 1
 52 116 l 1
 52 171 l 1
 143 171 l 1
 143 216 l 1
 52 216 l 1
 52 271 l 1
 134 271 l 1
 7 700 l 1
 122 700 l 1
 202 391 l 1
 204 391 l 1
 284 700 l 1
EndSplineSet
EndChar

StartChar: brokenbar
Encoding: 166 166 92
Width: 500
Flags: MW
HStem: -65 830<210 300 210 300>
VStem: 210 90<-65 290 -65 290 410 765>
LayerCount: 2
Fore
SplineSet
210 410 m 1
 210 765 l 1
 300 765 l 1
 300 410 l 1
 210 410 l 1
210 -65 m 1
 210 290 l 1
 300 290 l 1
 300 -65 l 1
 210 -65 l 1
EndSplineSet
EndChar

StartChar: section
Encoding: 167 167 93
Width: 396
Flags: MW
HStem: -73 91<177.5 212.5 177.5 251.5> 617 91<182.5 217.5>
VStem: 35 110<548.5 579 548.5 606> 36 104<63 78 78 113 60 113> 250 110<56 86.5> 255 105<297.5 333.5>
LayerCount: 2
Fore
SplineSet
35 314 m 0xe8
 35 365 58 409 104 435 c 1xd4
 104 437 l 1
 66 462 35 497 35 566 c 0
 35 646 90 708 197 708 c 0
 304 708 359 652 359 572 c 2
 359 536 l 1
 255 536 l 1
 255 557 l 2
 255 593 235 617 200 617 c 0
 165 617 145 597 145 561 c 0
 145 536 162 517 221 493 c 0xe4
 322 452 360 400 360 321 c 0
 360 270 336 225 290 199 c 1
 290 197 l 1
 329 173 360 137 360 69 c 0
 360 -11 305 -73 198 -73 c 0
 91 -73 36 -17 36 63 c 2
 36 113 l 1
 140 113 l 1
 140 78 l 2xd4
 140 42 160 18 195 18 c 0
 230 18 250 38 250 74 c 0
 250 99 234 117 174 142 c 0
 73 184 35 235 35 314 c 0xe8
140 318 m 0
 140 284 158 262 201 241 c 1
 232 246 255 278 255 317 c 0
 255 350 236 373 193 393 c 1
 162 388 140 357 140 318 c 0
EndSplineSet
EndChar

StartChar: dieresis
Encoding: 168 168 94
Width: 250
Flags: MW
HStem: 737 96<1 97 1 97 1 153 153 249>
VStem: 1 96<737 833 737 833> 153 96<737 833 737 833>
LayerCount: 2
Fore
SplineSet
1 833 m 1
 97 833 l 1
 97 737 l 1
 1 737 l 1
 1 833 l 1
153 833 m 1
 249 833 l 1
 249 737 l 1
 153 737 l 1
 153 833 l 1
EndSplineSet
EndChar

StartChar: copyright
Encoding: 169 169 95
Width: 736
Flags: MW
HStem: -8 70<289 447 289 467> 130 71<354 378 354 401.5> 500 70<354 378> 638 70<289 447>
VStem: 20 72<266.5 433.5 266.5 454> 251 76<252 446 446 452> 405 72<248 252 252 308 213 308 410 446> 644 72<266.5 433.5>
LayerCount: 2
Fore
SplineSet
405 308 m 1
 477 308 l 1
 477 252 l 2
 477 174 439 130 364 130 c 0
 289 130 251 174 251 252 c 2
 251 446 l 2
 251 526 289 570 364 570 c 0
 439 570 477 526 477 446 c 2
 477 410 l 1
 405 410 l 1
 405 452 l 2
 405 487 390 500 366 500 c 0
 342 500 327 487 327 452 c 2
 327 248 l 2
 327 213 342 201 366 201 c 0
 390 201 405 213 405 248 c 2
 405 308 l 1
20 350 m 0
 20 558 170 708 368 708 c 0
 566 708 716 558 716 350 c 0
 716 142 566 -8 368 -8 c 0
 170 -8 20 142 20 350 c 0
92 350 m 0
 92 183 210 62 368 62 c 0
 526 62 644 183 644 350 c 0
 644 517 526 638 368 638 c 0
 210 638 92 517 92 350 c 0
EndSplineSet
EndChar

StartChar: ordfeminine
Encoding: 170 170 96
Width: 278
Flags: MW
HStem: 218 69<30 242 30 242> 328 64<125 126> 506 52<172 172> 641 64<133 153.5>
VStem: 30 70<429 433 433 435 435 444 419 480.5> 44 66<575 594 594 598 575 629> 172 70<428 506 506 506 558 594>
LayerCount: 2
Fore
SplineSet
30 433 m 2xfa
 30 528 89 555 172 558 c 1xfa
 172 604 l 2
 172 630 163 641 144 641 c 0
 122 641 110 630 110 598 c 2
 110 575 l 1
 44 575 l 1
 44 594 l 2
 44 664 78 705 147 705 c 0xf6
 214 705 242 664 242 594 c 2
 242 333 l 1
 183 333 l 1
 180 381 l 1
 178 381 l 1
 167 346 144 328 108 328 c 0
 56 328 30 363 30 429 c 2
 30 433 l 2xfa
30 287 m 1
 242 287 l 1
 242 218 l 1
 30 218 l 1
 30 287 l 1
100 444 m 2
 100 435 l 2
 100 403 114 392 136 392 c 0
 157 392 170 401 172 428 c 2
 172 506 l 1
 110 503 100 471 100 444 c 2
EndSplineSet
EndChar

StartChar: guillemotleft
Encoding: 171 171 97
Width: 355
Flags: MW
HStem: 78 530<78 177 78 177 78 240 240 339>
VStem: 16 323<78 351>
LayerCount: 2
Fore
SplineSet
78 608 m 1
 177 608 l 1
 116 351 l 1
 177 78 l 1
 78 78 l 1
 16 351 l 1
 78 608 l 1
240 608 m 1
 339 608 l 1
 278 351 l 1
 339 78 l 1
 240 78 l 1
 178 351 l 1
 240 608 l 1
EndSplineSet
EndChar

StartChar: logicalnot
Encoding: 172 172 98
Width: 396
Flags: MW
HStem: 311 78<25 293 25 371>
VStem: 293 78<174 311 311 311>
LayerCount: 2
Fore
SplineSet
25 389 m 1
 371 389 l 1
 371 174 l 1
 293 174 l 1
 293 311 l 1
 25 311 l 1
 25 389 l 1
EndSplineSet
EndChar

StartChar: uni00AD
Encoding: 173 173 99
Width: 270
Flags: MW
HStem: 300 100<35 235 35 235>
VStem: 35 200<300 400 300 400>
LayerCount: 2
Fore
SplineSet
35 300 m 1
 35 400 l 1
 235 400 l 1
 235 300 l 1
 35 300 l 1
EndSplineSet
EndChar

StartChar: registered
Encoding: 174 174 100
Width: 736
Flags: MW
HStem: -8 70<289 447 289 467> 304 70<334 360 334 365> 494 70<334 370 334 334> 638 70<289 447>
VStem: 20 72<266.5 433.5 266.5 454> 258 76<136 304 136 374 374 494> 411 76<196 241 183.5 242 183.5 265 425 443 443 452> 644 72<266.5 433.5>
LayerCount: 2
Fore
SplineSet
20 350 m 0
 20 558 170 708 368 708 c 0
 566 708 716 558 716 350 c 0
 716 142 566 -8 368 -8 c 0
 170 -8 20 142 20 350 c 0
92 350 m 0
 92 183 210 62 368 62 c 0
 526 62 644 183 644 350 c 0
 644 517 526 638 368 638 c 0
 210 638 92 517 92 350 c 0
496 136 m 1
 418 136 l 1
 413 149 411 156 411 196 c 2
 411 242 l 2
 411 288 395 304 360 304 c 2
 334 304 l 1
 334 136 l 1
 258 136 l 1
 258 564 l 1
 374 564 l 2
 452 564 487 527 487 452 c 2
 487 443 l 2
 487 392 471 361 435 345 c 1
 435 343 l 1
 474 327 487 292 487 241 c 2
 487 195 l 2
 487 172 488 154 496 136 c 1
370 494 m 2
 334 494 l 1
 334 374 l 1
 365 374 l 2
 393 374 411 386 411 425 c 2
 411 443 l 2
 411 478 399 494 370 494 c 2
EndSplineSet
EndChar

StartChar: macron
Encoding: 175 175 101
Width: 250
Flags: MW
HStem: 741 78<10 240 10 240>
VStem: 10 230<741 819 741 819>
LayerCount: 2
Fore
SplineSet
10 819 m 1
 240 819 l 1
 240 741 l 1
 10 741 l 1
 10 819 l 1
EndSplineSet
EndChar

StartChar: degree
Encoding: 176 176 102
Width: 228
Flags: MW
HStem: 510 50<100.5 127.5 100.5 141.5> 658 50<100.5 127.5>
VStem: 15 50<595.5 622.5 595.5 636.5> 163 50<595.5 622.5>
LayerCount: 2
Fore
SplineSet
15 609 m 0
 15 664 59 708 114 708 c 0
 169 708 213 664 213 609 c 0
 213 554 169 510 114 510 c 0
 59 510 15 554 15 609 c 0
65 609 m 0
 65 582 87 560 114 560 c 0
 141 560 163 582 163 609 c 0
 163 636 141 658 114 658 c 0
 87 658 65 636 65 609 c 0
EndSplineSet
EndChar

StartChar: plusminus
Encoding: 177 177 103
Width: 396
Flags: MW
HStem: 174 78<35 159 237 361 35 159> 332 78<35 159 35 159 237 361>
VStem: 159 78<252 332 410 524>
LayerCount: 2
Fore
SplineSet
237 252 m 1
 361 252 l 1
 361 174 l 1
 35 174 l 1
 35 252 l 1
 159 252 l 1
 159 332 l 1
 35 332 l 1
 35 410 l 1
 159 410 l 1
 159 524 l 1
 237 524 l 1
 237 410 l 1
 361 410 l 1
 361 332 l 1
 237 332 l 1
 237 252 l 1
EndSplineSet
EndChar

StartChar: twosuperior
Encoding: 178 178 104
Width: 280
Flags: MW
HStem: 351 63<112 244 112 244> 738 63<132 156.5>
VStem: 42 66<647 690 690 694 647 726> 180 70<663.5 705.5>
LayerCount: 2
Fore
SplineSet
180 688 m 0
 180 723 169 738 144 738 c 0
 120 738 108 723 108 694 c 2
 108 647 l 1
 42 647 l 1
 42 690 l 2
 42 762 78 801 146 801 c 0
 214 801 250 762 250 690 c 0
 250 631 229 582 164 513 c 0
 121 467 111 447 111 424 c 0
 111 418 111 416 112 414 c 2
 244 414 l 1
 244 351 l 1
 42 351 l 1
 42 405 l 2
 42 454 58 491 111 547 c 0
 163 601 180 639 180 688 c 0
EndSplineSet
EndChar

StartChar: threesuperior
Encoding: 179 179 105
Width: 280
Flags: MW
HStem: 346 63<127 149 127 174.5> 550 63<105 129 105 132> 737 63<127 149>
VStem: 36 66<458 494 437.5 494 665 688 688 693> 174 70<460 493 422 494 422 515 661 677 677 686 686 688>
LayerCount: 2
Fore
SplineSet
174 460 m 2
 174 494 l 2
 174 536 160 550 129 550 c 2
 105 550 l 1
 105 613 l 1
 132 613 l 2
 158 613 174 626 174 661 c 2
 174 686 l 2
 174 726 160 737 138 737 c 0
 116 737 102 724 102 693 c 2
 102 665 l 1
 36 665 l 1
 36 688 l 2
 36 760 71 800 140 800 c 0
 209 800 244 760 244 688 c 2
 244 677 l 2
 244 629 229 601 195 587 c 1
 195 585 l 1
 230 570 244 538 244 493 c 2
 244 458 l 2
 244 386 209 346 140 346 c 0
 71 346 36 386 36 458 c 2
 36 494 l 1
 102 494 l 1
 102 453 l 2
 102 422 116 409 138 409 c 0
 160 409 174 420 174 460 c 2
EndSplineSet
EndChar

StartChar: acute
Encoding: 180 180 106
Width: 250
Flags: MW
HStem: 737 111<95 101 27 203>
VStem: 27 176<737 848>
LayerCount: 2
Fore
SplineSet
95 848 m 1
 203 848 l 1
 101 737 l 1
 27 737 l 1
 95 848 l 1
EndSplineSet
EndChar

StartChar: uni00B5
Encoding: 181 181 107
Width: 396
Flags: MW
HStem: -8 100<180.5 187.5> 0 21G<265 365 265 265>
VStem: 31 110<-93 -6 136 161 161 500> 255 110<161 500 0 500>
LayerCount: 2
Fore
SplineSet
141 500 m 1xb0
 141 161 l 2
 141 111 163 92 198 92 c 0xb0
 233 92 255 111 255 161 c 2
 255 500 l 1
 365 500 l 1
 365 0 l 1
 265 0 l 1x70
 265 52 l 1
 245 13 210 -8 165 -8 c 0
 156 -8 148 -7 141 -6 c 1
 141 -93 l 1
 31 -93 l 1
 31 500 l 1
 141 500 l 1xb0
EndSplineSet
EndChar

StartChar: paragraph
Encoding: 182 182 108
Width: 396
Flags: MW
HStem: -65 21G<142 222 142 142 276 356 276 276> 620 80<222 276 222 222>
VStem: 142 80<-65 265 265 265> 276 80<-65 620 620 620>
LayerCount: 2
Fore
SplineSet
356 700 m 1
 356 -65 l 1
 276 -65 l 1
 276 620 l 1
 222 620 l 1
 222 -65 l 1
 142 -65 l 1
 142 265 l 1
 58 265 14 336 14 436 c 2
 14 527 l 2
 14 639 68 700 178 700 c 2
 356 700 l 1
EndSplineSet
EndChar

StartChar: periodcentered
Encoding: 183 183 109
Width: 186
Flags: MW
HStem: 297 106<40 146 40 146>
VStem: 40 106<297 403 297 403>
LayerCount: 2
Fore
SplineSet
40 403 m 1
 146 403 l 1
 146 297 l 1
 40 297 l 1
 40 403 l 1
EndSplineSet
EndChar

StartChar: cedilla
Encoding: 184 184 110
Width: 250
Flags: MW
HStem: -147 40<116.5 130.5 116.5 151.5> -147 68<94.5 100 26 151.5> -57 18
VStem: 26 74<-89 -87 -87 -79 -94.5 -79> 101 48<-39 14 -39 14 -39 14> 147 76<-91.5 -73.5>
LayerCount: 2
Fore
SplineSet
26 -89 m 2xb4
 26 -79 l 1
 100 -79 l 1x74
 100 -87 l 2
 100 -102 111 -107 122 -107 c 0
 139 -107 147 -100 147 -83 c 0xb4
 147 -64 135 -57 111 -57 c 2
 101 -57 l 1
 101 14 l 1
 149 14 l 1
 149 -39 l 1xb8
 198 -39 223 -51 223 -86 c 0
 223 -140 181 -147 122 -147 c 0
 67 -147 26 -135 26 -89 c 2xb4
EndSplineSet
EndChar

StartChar: onesuperior
Encoding: 185 185 111
Width: 200
Flags: MW
HStem: 351 21G<79 149 79 79> 690 49<25 52 25 52 25 79> 775 20G<103 149 149 149>
VStem: 79 70<351 690 690 690>
LayerCount: 2
Fore
SplineSet
25 690 m 1
 25 739 l 1
 79 739 91 765 103 795 c 1
 149 795 l 1
 149 351 l 1
 79 351 l 1
 79 690 l 1
 25 690 l 1
EndSplineSet
EndChar

StartChar: ordmasculine
Encoding: 186 186 112
Width: 280
Flags: MW
HStem: 218 69<34 246 34 246> 328 64<128.5 151 128.5 174.5> 641 64<128.5 151>
VStem: 34 70<439 594 594 598> 176 70<435 439 439 594>
LayerCount: 2
Fore
SplineSet
104 598 m 2
 104 435 l 2
 104 403 117 392 140 392 c 0
 162 392 176 403 176 435 c 2
 176 598 l 2
 176 630 162 641 140 641 c 0
 117 641 104 630 104 598 c 2
34 439 m 2
 34 594 l 2
 34 664 71 705 140 705 c 0
 209 705 246 664 246 594 c 2
 246 439 l 2
 246 369 209 328 140 328 c 0
 71 328 34 369 34 439 c 2
34 287 m 1
 246 287 l 1
 246 218 l 1
 34 218 l 1
 34 287 l 1
EndSplineSet
EndChar

StartChar: guillemotright
Encoding: 187 187 113
Width: 355
Flags: MW
HStem: 78 530<16 115 16 115 178 277 16 178>
VStem: 16 323<78 351 351 608>
LayerCount: 2
Fore
SplineSet
178 608 m 1
 277 608 l 1
 339 351 l 1
 277 78 l 1
 178 78 l 1
 239 351 l 1
 178 608 l 1
16 608 m 1
 115 608 l 1
 177 351 l 1
 115 78 l 1
 16 78 l 1
 77 351 l 1
 16 608 l 1
EndSplineSet
EndChar

StartChar: onequarter
Encoding: 188 188 114
Width: 627
Flags: MW
HStem: 0 21G<160 160 160 225 505 505 505 574> 80 64<371 371 434 505 574 607> 256 21G<119 189 119 119> 424 20G<498 574 574 574> 595 49<65 92 65 92 65 119> 680 20G<143 189 189 189 436 501 501 501>
VStem: 119 70<256 595 595 595> 160 341 505 69<0 80 0 80 144 308 308 308>
LayerCount: 2
Fore
SplineSet
65 595 m 1x2e
 65 644 l 1
 119 644 131 670 143 700 c 1
 189 700 l 1
 189 256 l 1
 119 256 l 1
 119 595 l 1
 65 595 l 1x2e
160 0 m 1x85
 436 700 l 1
 501 700 l 1
 225 0 l 1
 160 0 l 1x85
371 80 m 1xd080
 371 144 l 1
 498 444 l 1
 574 444 l 1
 574 144 l 1
 607 144 l 1
 607 80 l 1
 574 80 l 1
 574 0 l 1
 505 0 l 1
 505 80 l 1
 371 80 l 1xd080
434 144 m 1
 505 144 l 1
 505 308 l 1
 503 308 l 1
 434 144 l 1
EndSplineSet
EndChar

StartChar: onehalf
Encoding: 189 189 115
Width: 627
Flags: MW
HStem: 0 21G<130 130 130 195 389 389 389 591> 0 63<459 591 459 591> 256 21G<119 189 119 119> 387 63<479 503.5> 595 49<65 92 65 92 65 119> 680 20G<143 189 189 189 406 471 471 471>
VStem: 119 70<256 595 595 595> 130 341 389 66<296 339 339 343 296 375> 527 70<312.5 354.5>
LayerCount: 2
Fore
SplineSet
65 595 m 1x2e
 65 644 l 1
 119 644 131 670 143 700 c 1
 189 700 l 1
 189 256 l 1
 119 256 l 1
 119 595 l 1
 65 595 l 1x2e
130 0 m 1x85
 406 700 l 1
 471 700 l 1
 195 0 l 1
 130 0 l 1x85
527 337 m 0x50c0
 527 372 516 387 491 387 c 0
 467 387 455 372 455 343 c 2
 455 296 l 1
 389 296 l 1
 389 339 l 2
 389 411 425 450 493 450 c 0
 561 450 597 411 597 339 c 0
 597 280 576 231 511 162 c 0
 468 116 458 96 458 73 c 0
 458 67 458 65 459 63 c 2
 591 63 l 1
 591 0 l 1
 389 0 l 1
 389 54 l 2
 389 103 405 140 458 196 c 0
 510 250 527 288 527 337 c 0x50c0
EndSplineSet
EndChar

StartChar: threequarters
Encoding: 190 190 116
Width: 627
Flags: MW
HStem: 0 21G<170 170 170 235 505 505 505 574> 80 64<371 371 434 505 574 607> 251 63<127 149 127 174.5> 424 20G<498 574 574 574> 455 63<105 129 105 132> 642 63<127 149> 680 20G<446 511 511 511>
VStem: 36 66<363 399 342.5 399 570 593 593 598> 170 341 174 70<365 398 327 399 327 420 566 582 582 591 591 593> 505 69<0 80 0 80 144 308 308 308>
LayerCount: 2
Fore
SplineSet
174 365 m 2x2d40
 174 399 l 2
 174 441 160 455 129 455 c 2
 105 455 l 1
 105 518 l 1
 132 518 l 2
 158 518 174 531 174 566 c 2
 174 591 l 2
 174 631 160 642 138 642 c 0
 116 642 102 629 102 598 c 2
 102 570 l 1
 36 570 l 1
 36 593 l 2
 36 665 71 705 140 705 c 0
 209 705 244 665 244 593 c 2
 244 582 l 2
 244 534 229 506 195 492 c 1
 195 490 l 1
 230 475 244 443 244 398 c 2
 244 363 l 2
 244 291 209 251 140 251 c 0
 71 251 36 291 36 363 c 2
 36 399 l 1
 102 399 l 1
 102 358 l 2
 102 327 116 314 138 314 c 0
 160 314 174 325 174 365 c 2x2d40
170 0 m 1x8280
 446 700 l 1
 511 700 l 1
 235 0 l 1
 170 0 l 1x8280
371 80 m 1xd020
 371 144 l 1
 498 444 l 1
 574 444 l 1
 574 144 l 1
 607 144 l 1
 607 80 l 1
 574 80 l 1
 574 0 l 1
 505 0 l 1
 505 80 l 1
 371 80 l 1xd020
434 144 m 1
 505 144 l 1
 505 308 l 1
 503 308 l 1
 434 144 l 1
EndSplineSet
EndChar

StartChar: questiondown
Encoding: 191 191 117
Width: 360
Flags: MW
HStem: -8 100<163.5 198.5 163.5 231.5> 594 106<139 245 139 245>
VStem: 16 110<136 194.5 136 205.5> 139 106<594 700> 146 100<483.5 511 474 512.5> 236 104<161 168 168 237 112 237>
LayerCount: 2
Fore
SplineSet
142 545 m 1xe8
 240 545 l 1
 244 533 246 520 246 502 c 0xe8
 246 446 232 405 189 344 c 0
 140 274 126 228 126 161 c 0
 126 111 146 92 181 92 c 0
 216 92 236 111 236 161 c 2
 236 237 l 1
 340 237 l 1
 340 168 l 2xe4
 340 56 285 -8 178 -8 c 0
 71 -8 16 56 16 168 c 0
 16 243 36 297 90 369 c 0
 133 427 146 461 146 506 c 0
 146 519 145 532 142 545 c 1xe8
245 594 m 1xf0
 139 594 l 1
 139 700 l 1
 245 700 l 1
 245 594 l 1xf0
EndSplineSet
EndChar

StartChar: Agrave
Encoding: 192 192 118
Width: 407
Flags: MW
HStem: 0 21G<11 112 11 11 285 396 285 285> 127 95<145 251 145 266 131 251> 680 20G<123 284 284 284> 737 111<185 196 83 264 185 185>
VStem: 11 385<0 0> 83 181<737 848>
LayerCount: 2
Fore
SplineSet
284 700 m 1xe8
 396 0 l 1
 285 0 l 1
 266 127 l 1
 131 127 l 1
 112 0 l 1
 11 0 l 1
 123 700 l 1
 284 700 l 1xe8
197 576 m 1
 145 222 l 1
 251 222 l 1
 199 576 l 1
 197 576 l 1
83 848 m 1x14
 196 848 l 1
 264 737 l 1
 185 737 l 1
 83 848 l 1x14
EndSplineSet
EndChar

StartChar: Aacute
Encoding: 193 193 119
Width: 407
Flags: MW
HStem: 0 21G<11 112 11 11 285 396 285 285> 127 95<145 251 145 266 131 251> 680 20G<123 284 284 284> 737 111<213 219 145 321>
VStem: 11 385<0 0> 145 176<737 848>
LayerCount: 2
Fore
SplineSet
284 700 m 1xe8
 396 0 l 1
 285 0 l 1
 266 127 l 1
 131 127 l 1
 112 0 l 1
 11 0 l 1
 123 700 l 1
 284 700 l 1xe8
197 576 m 1
 145 222 l 1
 251 222 l 1
 199 576 l 1
 197 576 l 1
213 848 m 1x14
 321 848 l 1
 219 737 l 1
 145 737 l 1
 213 848 l 1x14
EndSplineSet
EndChar

StartChar: Acircumflex
Encoding: 194 194 120
Width: 407
Flags: MW
HStem: 0 21G<11 112 11 11 285 396 285 285> 127 95<145 251 145 266 131 251> 680 20G<123 284 284 284> 737 111<154 159 65 253 248 248 248 253 154 342>
VStem: 11 385<0 0> 65 277<737 737>
LayerCount: 2
Fore
SplineSet
284 700 m 1xe8
 396 0 l 1
 285 0 l 1
 266 127 l 1
 131 127 l 1
 112 0 l 1
 11 0 l 1
 123 700 l 1
 284 700 l 1xe8
197 576 m 1
 145 222 l 1
 251 222 l 1
 199 576 l 1
 197 576 l 1
159 737 m 1x14
 65 737 l 1
 154 848 l 1
 253 848 l 1
 342 737 l 1
 248 737 l 1
 203 792 l 1
 159 737 l 1x14
EndSplineSet
EndChar

StartChar: Atilde
Encoding: 195 195 121
Width: 407
Flags: MW
HStem: 0 21G<11 112 11 11 285 396 285 285> 127 95<145 251 145 266 131 251> 680 20G<123 284 284 284> 737 76<246 254 237.5 274> 762 76<153 162 133 169.5>
VStem: 11 385<0 0> 68 271<770 805>
LayerCount: 2
Fore
SplineSet
284 700 m 1xe4
 396 0 l 1
 285 0 l 1
 266 127 l 1
 131 127 l 1
 112 0 l 1
 11 0 l 1
 123 700 l 1
 284 700 l 1xe4
197 576 m 1
 145 222 l 1
 251 222 l 1
 199 576 l 1
 197 576 l 1
243 813 m 0x12
 265 813 276 821 286 842 c 1
 339 805 l 1
 322 760 294 737 254 737 c 0x12
 238 737 224 740 201 751 c 0
 185 759 175 762 164 762 c 0
 142 762 131 754 121 733 c 1
 68 770 l 1
 85 815 113 838 153 838 c 0x0a
 171 838 186 834 206 824 c 0
 222 816 232 813 243 813 c 0x12
EndSplineSet
EndChar

StartChar: Adieresis
Encoding: 196 196 122
Width: 407
Flags: MW
HStem: 0 21G<11 112 11 11 285 396 285 285> 127 95<145 251 145 266 131 251> 680 20G<123 284 284 284> 737 96<79 175 79 175 79 231 231 327>
VStem: 11 385<0 0> 79 96<737 833 737 833> 231 96<737 833 737 833>
LayerCount: 2
Fore
SplineSet
284 700 m 1xe8
 396 0 l 1
 285 0 l 1
 266 127 l 1
 131 127 l 1
 112 0 l 1
 11 0 l 1
 123 700 l 1
 284 700 l 1xe8
197 576 m 1
 145 222 l 1
 251 222 l 1
 199 576 l 1
 197 576 l 1
79 833 m 1x16
 175 833 l 1
 175 737 l 1
 79 737 l 1
 79 833 l 1x16
231 833 m 1
 327 833 l 1
 327 737 l 1
 231 737 l 1
 231 833 l 1
EndSplineSet
EndChar

StartChar: Aring
Encoding: 197 197 123
Width: 407
Flags: MW
HStem: 0 21G<11 112 11 11 285 396 285 285> 127 95<145 251 145 266 131 251> 680 20G<123 284 284 284> 734 50<194.5 211.5 194.5 225.5> 844 50<194.5 211.5>
VStem: 11 385<0 0> 123 50<805.5 822.5 805.5 836.5> 233 50<805.5 822.5>
LayerCount: 2
Fore
SplineSet
284 700 m 1xe4
 396 0 l 1
 285 0 l 1
 266 127 l 1
 131 127 l 1
 112 0 l 1
 11 0 l 1
 123 700 l 1
 284 700 l 1xe4
197 576 m 1
 145 222 l 1
 251 222 l 1
 199 576 l 1
 197 576 l 1
123 814 m 0x1b
 123 859 158 894 203 894 c 0
 248 894 283 859 283 814 c 0
 283 769 248 734 203 734 c 0
 158 734 123 769 123 814 c 0x1b
173 814 m 0
 173 797 186 784 203 784 c 0
 220 784 233 797 233 814 c 0
 233 831 220 844 203 844 c 0
 186 844 173 831 173 814 c 0
EndSplineSet
EndChar

StartChar: AE
Encoding: 198 198 124
Width: 580
Flags: MW
HStem: 0 100<362 552 362 552> 127 95<166 252 166 252 141 252> 305 100<362 513 362 513> 600 100<362 552 362 362>
VStem: 252 110<100 127 127 127 222 305 405 559 559 559>
LayerCount: 2
Fore
SplineSet
252 0 m 1
 252 127 l 1
 141 127 l 1xf8
 109 0 l 1
 4 0 l 1
 191 700 l 1
 552 700 l 1
 552 600 l 1
 362 600 l 1
 362 405 l 1
 513 405 l 1
 513 305 l 1
 362 305 l 1
 362 100 l 1
 552 100 l 1
 552 0 l 1
 252 0 l 1
166 222 m 1
 252 222 l 1
 252 559 l 1
 250 559 l 1
 166 222 l 1
EndSplineSet
EndChar

StartChar: Ccedilla
Encoding: 199 199 125
Width: 386
Flags: MW
HStem: -147 40<184.5 198.5 184.5 219.5> -147 68<162.5 168 94 219.5> -57 18 -6 99<169 215.5> 608 100<180.5 215.5>
VStem: 31 110<168 532 532 539> 94 74<-89 -87 -87 -79 -94.5 -79> 169 48<-39 -7 -39 -6 -39 -6> 215 76<-91.5 -73.5> 255 104<161 168 168 261 116 261 464 532>
LayerCount: 2
Fore
SplineSet
255 261 m 1x7d40
 359 261 l 1
 359 168 l 2
 359 64 310 1 217 -7 c 1
 217 -39 l 1x7d40
 266 -39 291 -51 291 -86 c 0
 291 -140 249 -147 190 -147 c 0
 135 -147 94 -135 94 -89 c 2
 94 -79 l 1
 168 -79 l 1x7a80
 168 -87 l 2
 168 -102 179 -107 190 -107 c 0
 207 -107 215 -100 215 -83 c 0xba80
 215 -64 203 -57 179 -57 c 2
 169 -57 l 1
 169 -6 l 1
 78 3 31 65 31 168 c 2
 31 532 l 2
 31 644 87 708 195 708 c 0
 303 708 359 644 359 532 c 2
 359 464 l 1
 255 464 l 1
 255 539 l 2
 255 589 233 608 198 608 c 0
 163 608 141 589 141 539 c 2
 141 161 l 2
 141 111 163 93 198 93 c 0
 233 93 255 111 255 161 c 2
 255 261 l 1x7d40
EndSplineSet
EndChar

StartChar: Egrave
Encoding: 200 200 126
Width: 368
Flags: MW
HStem: 0 100<150 340 150 340> 305 100<150 301 150 301> 600 100<150 150 150 340> 737 111<170 181 68 249 170 170>
VStem: 40 110<100 305 405 600> 68 181<737 848>
LayerCount: 2
Fore
SplineSet
150 600 m 1xe8
 150 405 l 1
 301 405 l 1
 301 305 l 1
 150 305 l 1
 150 100 l 1
 340 100 l 1
 340 0 l 1
 40 0 l 1
 40 700 l 1
 340 700 l 1
 340 600 l 1
 150 600 l 1xe8
68 848 m 1x14
 181 848 l 1
 249 737 l 1
 170 737 l 1
 68 848 l 1x14
EndSplineSet
EndChar

StartChar: Eacute
Encoding: 201 201 127
Width: 368
Flags: MW
HStem: 0 100<150 340 150 340> 305 100<150 301 150 301> 600 100<150 150 150 340> 737 111<199 205 131 307>
VStem: 40 110<100 305 405 600> 131 176<737 848>
LayerCount: 2
Fore
SplineSet
150 600 m 1xe8
 150 405 l 1
 301 405 l 1
 301 305 l 1
 150 305 l 1
 150 100 l 1
 340 100 l 1
 340 0 l 1
 40 0 l 1
 40 700 l 1
 340 700 l 1
 340 600 l 1
 150 600 l 1xe8
199 848 m 1x14
 307 848 l 1
 205 737 l 1
 131 737 l 1
 199 848 l 1x14
EndSplineSet
EndChar

StartChar: Ecircumflex
Encoding: 202 202 128
Width: 368
Flags: MW
HStem: 0 100<150 340 150 340> 305 100<150 301 150 301> 600 100<150 150 150 340> 737 111<139 144 50 238 233 233 233 238 139 327>
VStem: 40 110<100 305 405 600> 50 277<737 737>
LayerCount: 2
Fore
SplineSet
150 600 m 1xe8
 150 405 l 1
 301 405 l 1
 301 305 l 1
 150 305 l 1
 150 100 l 1
 340 100 l 1
 340 0 l 1
 40 0 l 1
 40 700 l 1
 340 700 l 1
 340 600 l 1
 150 600 l 1xe8
144 737 m 1x14
 50 737 l 1
 139 848 l 1
 238 848 l 1
 327 737 l 1
 233 737 l 1
 188 792 l 1
 144 737 l 1x14
EndSplineSet
EndChar

StartChar: Edieresis
Encoding: 203 203 129
Width: 368
Flags: MW
HStem: 0 100<150 340 150 340> 305 100<150 301 150 301> 600 100<150 150 150 340> 737 96<65 161 65 161 65 217 217 313>
VStem: 40 110<100 305 405 600> 65 96<737 833 737 833> 217 96<737 833 737 833>
LayerCount: 2
Fore
SplineSet
150 600 m 1xe8
 150 405 l 1
 301 405 l 1
 301 305 l 1
 150 305 l 1
 150 100 l 1
 340 100 l 1
 340 0 l 1
 40 0 l 1
 40 700 l 1
 340 700 l 1
 340 600 l 1
 150 600 l 1xe8
65 833 m 1x16
 161 833 l 1
 161 737 l 1
 65 737 l 1
 65 833 l 1x16
217 833 m 1
 313 833 l 1
 313 737 l 1
 217 737 l 1
 217 833 l 1
EndSplineSet
EndChar

StartChar: Igrave
Encoding: 204 204 130
Width: 190
Flags: MW
HStem: 0 21G<40 40 40 150> 680 20G<40 150 150 150> 737 111<77 88 -25 156 77 77>
VStem: -25 181<737 848> 40 110<0 700 0 700>
LayerCount: 2
Fore
SplineSet
40 0 m 1xc8
 40 700 l 1
 150 700 l 1
 150 0 l 1
 40 0 l 1xc8
-25 848 m 1x30
 88 848 l 1
 156 737 l 1
 77 737 l 1
 -25 848 l 1x30
EndSplineSet
EndChar

StartChar: Iacute
Encoding: 205 205 131
Width: 190
Flags: MW
HStem: 0 21G<40 40 40 150> 680 20G<40 150 150 150> 737 111<105 111 37 213>
VStem: 37 176<737 848> 40 110<0 700 0 700>
LayerCount: 2
Fore
SplineSet
40 0 m 1xc8
 40 700 l 1
 150 700 l 1
 150 0 l 1
 40 0 l 1xc8
105 848 m 1x30
 213 848 l 1
 111 737 l 1
 37 737 l 1
 105 848 l 1x30
EndSplineSet
EndChar

StartChar: Icircumflex
Encoding: 206 206 132
Width: 190
Flags: MW
HStem: 0 21G<40 40 40 150> 680 20G<40 150 150 150> 737 111<46 51 -43 145 140 140 140 145 46 234>
VStem: -43 277<737 737> 40 110<0 700 0 700>
LayerCount: 2
Fore
SplineSet
40 0 m 1xc8
 40 700 l 1
 150 700 l 1
 150 0 l 1
 40 0 l 1xc8
51 737 m 1x30
 -43 737 l 1
 46 848 l 1
 145 848 l 1
 234 737 l 1
 140 737 l 1
 95 792 l 1
 51 737 l 1x30
EndSplineSet
EndChar

StartChar: Idieresis
Encoding: 207 207 133
Width: 190
Flags: MW
HStem: 0 21G<40 40 40 150> 680 20G<40 150 150 150> 737 96<-29 67 -29 67 -29 123 123 219>
VStem: -29 96<737 833 737 833> 40 110<0 700 0 700> 123 96<737 833 737 833>
LayerCount: 2
Fore
SplineSet
40 0 m 1xc8
 40 700 l 1
 150 700 l 1
 150 0 l 1
 40 0 l 1xc8
-29 833 m 1x34
 67 833 l 1
 67 737 l 1
 -29 737 l 1
 -29 833 l 1x34
123 833 m 1
 219 833 l 1
 219 737 l 1
 123 737 l 1
 123 833 l 1
EndSplineSet
EndChar

StartChar: Eth
Encoding: 208 208 134
Width: 408
Flags: MW
HStem: 0 100<150 212 212 214> 305 90<4 40 4 40 150 218> 600 100<150 212 150 150>
VStem: 40 110<100 305 100 305 100 305 395 600> 268 110<168 173 173 527>
CounterMasks: 1 e0
LayerCount: 2
Fore
SplineSet
40 0 m 1
 40 305 l 1
 4 305 l 1
 4 395 l 1
 40 395 l 1
 40 700 l 1
 214 700 l 2
 324 700 378 639 378 527 c 2
 378 173 l 2
 378 61 324 0 214 0 c 2
 40 0 l 1
212 600 m 2
 150 600 l 1
 150 395 l 1
 218 395 l 1
 218 305 l 1
 150 305 l 1
 150 100 l 1
 212 100 l 2
 247 100 268 118 268 168 c 2
 268 532 l 2
 268 582 247 600 212 600 c 2
EndSplineSet
EndChar

StartChar: Ntilde
Encoding: 209 209 135
Width: 427
Flags: MW
HStem: 0 21G<39 138 39 39 275 388 275 275> 680 20G<39 177 177 177 290 388 388 388> 737 76<256 264 247.5 284> 762 76<163 172 143 179.5>
VStem: 39 99<0 507 0 700> 78 271<770 805> 290 98<281 700 0 700>
LayerCount: 2
Fore
SplineSet
275 0 m 1xca
 140 507 l 1
 138 507 l 1
 138 0 l 1
 39 0 l 1
 39 700 l 1
 177 700 l 1
 288 281 l 1
 290 281 l 1
 290 700 l 1
 388 700 l 1
 388 0 l 1
 275 0 l 1xca
253 813 m 0x24
 275 813 286 821 296 842 c 1
 349 805 l 1
 332 760 304 737 264 737 c 0x24
 248 737 234 740 211 751 c 0
 195 759 185 762 174 762 c 0
 152 762 141 754 131 733 c 1
 78 770 l 1
 95 815 123 838 163 838 c 0x14
 181 838 196 834 216 824 c 0
 232 816 242 813 253 813 c 0x24
EndSplineSet
EndChar

StartChar: Ograve
Encoding: 210 210 136
Width: 396
Flags: MW
HStem: -8 100<180.5 215.5 180.5 252> 608 100<180.5 215.5> 737 111<179 190 77 258 179 179>
VStem: 31 110<168 532 532 539> 77 181<737 848> 255 110<161 168 168 532>
LayerCount: 2
Fore
SplineSet
141 539 m 2xd4
 141 161 l 2
 141 111 163 92 198 92 c 0
 233 92 255 111 255 161 c 2
 255 539 l 2
 255 589 233 608 198 608 c 0
 163 608 141 589 141 539 c 2xd4
31 168 m 2
 31 532 l 2
 31 644 90 708 198 708 c 0
 306 708 365 644 365 532 c 2
 365 168 l 2
 365 56 306 -8 198 -8 c 0
 90 -8 31 56 31 168 c 2
77 848 m 1x28
 190 848 l 1
 258 737 l 1
 179 737 l 1
 77 848 l 1x28
EndSplineSet
EndChar

StartChar: Oacute
Encoding: 211 211 137
Width: 396
Flags: MW
HStem: -8 100<180.5 215.5 180.5 252> 608 100<180.5 215.5> 737 111<208 214 140 316>
VStem: 31 110<168 532 532 539> 140 176<737 848> 255 110<161 168 168 532>
LayerCount: 2
Fore
SplineSet
141 539 m 2xd4
 141 161 l 2
 141 111 163 92 198 92 c 0
 233 92 255 111 255 161 c 2
 255 539 l 2
 255 589 233 608 198 608 c 0
 163 608 141 589 141 539 c 2xd4
31 168 m 2
 31 532 l 2
 31 644 90 708 198 708 c 0
 306 708 365 644 365 532 c 2
 365 168 l 2
 365 56 306 -8 198 -8 c 0
 90 -8 31 56 31 168 c 2
208 848 m 1x28
 316 848 l 1
 214 737 l 1
 140 737 l 1
 208 848 l 1x28
EndSplineSet
EndChar

StartChar: Ocircumflex
Encoding: 212 212 138
Width: 396
Flags: MW
HStem: -8 100<180.5 215.5 180.5 252> 608 100<180.5 215.5> 737 111<148 153 59 247 242 242 242 247 148 336>
VStem: 31 110<168 532 532 539> 59 277<737 737> 255 110<161 168 168 532>
LayerCount: 2
Fore
SplineSet
141 539 m 2xd4
 141 161 l 2
 141 111 163 92 198 92 c 0
 233 92 255 111 255 161 c 2
 255 539 l 2
 255 589 233 608 198 608 c 0
 163 608 141 589 141 539 c 2xd4
31 168 m 2
 31 532 l 2
 31 644 90 708 198 708 c 0
 306 708 365 644 365 532 c 2
 365 168 l 2
 365 56 306 -8 198 -8 c 0
 90 -8 31 56 31 168 c 2
153 737 m 1x28
 59 737 l 1
 148 848 l 1
 247 848 l 1
 336 737 l 1
 242 737 l 1
 197 792 l 1
 153 737 l 1x28
EndSplineSet
EndChar

StartChar: Otilde
Encoding: 213 213 139
Width: 396
Flags: MW
HStem: -8 100<180.5 215.5 180.5 252> 608 100<180.5 215.5> 737 76<241 249 232.5 269> 762 76<148 157 128 164.5>
VStem: 31 110<168 532 532 539> 63 271<770 805> 255 110<161 168 168 532>
LayerCount: 2
Fore
SplineSet
141 539 m 2xca
 141 161 l 2
 141 111 163 92 198 92 c 0
 233 92 255 111 255 161 c 2
 255 539 l 2
 255 589 233 608 198 608 c 0
 163 608 141 589 141 539 c 2xca
31 168 m 2
 31 532 l 2
 31 644 90 708 198 708 c 0
 306 708 365 644 365 532 c 2
 365 168 l 2
 365 56 306 -8 198 -8 c 0
 90 -8 31 56 31 168 c 2
238 813 m 0x24
 260 813 271 821 281 842 c 1
 334 805 l 1
 317 760 289 737 249 737 c 0x24
 233 737 219 740 196 751 c 0
 180 759 170 762 159 762 c 0
 137 762 126 754 116 733 c 1
 63 770 l 1
 80 815 108 838 148 838 c 0x14
 166 838 181 834 201 824 c 0
 217 816 227 813 238 813 c 0x24
EndSplineSet
EndChar

StartChar: Odieresis
Encoding: 214 214 140
Width: 396
Flags: MW
HStem: -8 100<180.5 215.5 180.5 252> 608 100<180.5 215.5> 737 96<74 170 74 170 74 226 226 322>
VStem: 31 110<168 532 532 539> 74 96<737 833 737 833> 226 96<737 833 737 833> 255 110<161 168 168 532>
LayerCount: 2
Fore
SplineSet
141 539 m 2xd2
 141 161 l 2
 141 111 163 92 198 92 c 0
 233 92 255 111 255 161 c 2
 255 539 l 2
 255 589 233 608 198 608 c 0
 163 608 141 589 141 539 c 2xd2
31 168 m 2
 31 532 l 2
 31 644 90 708 198 708 c 0
 306 708 365 644 365 532 c 2
 365 168 l 2
 365 56 306 -8 198 -8 c 0
 90 -8 31 56 31 168 c 2
74 833 m 1x2c
 170 833 l 1
 170 737 l 1
 74 737 l 1
 74 833 l 1x2c
226 833 m 1
 322 833 l 1
 322 737 l 1
 226 737 l 1
 226 833 l 1
EndSplineSet
EndChar

StartChar: multiply
Encoding: 215 215 141
Width: 396
Flags: MW
HStem: 191 318<91 304 304 304>
VStem: 38 319<244 244>
LayerCount: 2
Fore
SplineSet
92 508 m 1
 198 403 l 1
 304 509 l 1
 357 456 l 1
 251 350 l 1
 357 244 l 1
 304 191 l 1
 198 297 l 1
 91 191 l 1
 38 244 l 1
 144 350 l 1
 39 455 l 1
 92 508 l 1
EndSplineSet
EndChar

StartChar: Oslash
Encoding: 216 216 142
Width: 396
Flags: MW
HStem: -8 100<183 215.5 183 252> 608 100<180.5 212.5>
VStem: 31 110<257 532 532 539 257 588> 255 110<161 168 168 443 443 443>
LayerCount: 2
Fore
SplineSet
31 168 m 2
 31 532 l 2
 31 644 90 708 198 708 c 0
 238 708 272 699 298 682 c 1
 318 737 l 1
 355 724 l 1
 329 653 l 1
 353 624 365 583 365 532 c 2
 365 168 l 2
 365 56 306 -8 198 -8 c 0
 158 -8 124 0 98 17 c 1
 78 -37 l 1
 41 -24 l 1
 66 46 l 1
 43 76 31 117 31 168 c 2
253 443 m 1
 142 140 l 1
 148 105 168 92 198 92 c 0
 233 92 255 111 255 161 c 2
 255 443 l 1
 253 443 l 1
141 539 m 2
 141 257 l 1
 143 257 l 1
 253 560 l 1
 248 594 227 608 198 608 c 0
 163 608 141 589 141 539 c 2
EndSplineSet
EndChar

StartChar: Ugrave
Encoding: 217 217 143
Width: 398
Flags: MW
HStem: -9 101<184.5 219.5 184.5 253> 680 20G<35 145 145 145 259 363 363 363> 737 111<181 192 79 260 181 181>
VStem: 35 110<167 700> 79 181<737 848> 259 104<160 167 167 700>
LayerCount: 2
Fore
SplineSet
35 700 m 1xd4
 145 700 l 1
 145 160 l 2
 145 110 167 92 202 92 c 0
 237 92 259 110 259 160 c 2
 259 700 l 1
 363 700 l 1
 363 167 l 2
 363 55 307 -9 199 -9 c 0
 91 -9 35 55 35 167 c 2
 35 700 l 1xd4
79 848 m 1x28
 192 848 l 1
 260 737 l 1
 181 737 l 1
 79 848 l 1x28
EndSplineSet
EndChar

StartChar: Uacute
Encoding: 218 218 144
Width: 398
Flags: MW
HStem: -9 101<184.5 219.5 184.5 253> 680 20G<35 145 145 145 259 363 363 363> 737 111<210 216 142 318>
VStem: 35 110<167 700> 142 176<737 848> 259 104<160 167 167 700>
LayerCount: 2
Fore
SplineSet
35 700 m 1xd4
 145 700 l 1
 145 160 l 2
 145 110 167 92 202 92 c 0
 237 92 259 110 259 160 c 2
 259 700 l 1
 363 700 l 1
 363 167 l 2
 363 55 307 -9 199 -9 c 0
 91 -9 35 55 35 167 c 2
 35 700 l 1xd4
210 848 m 1x28
 318 848 l 1
 216 737 l 1
 142 737 l 1
 210 848 l 1x28
EndSplineSet
EndChar

StartChar: Ucircumflex
Encoding: 219 219 145
Width: 398
Flags: MW
HStem: -9 101<184.5 219.5 184.5 253> 680 20G<35 145 145 145 259 363 363 363> 737 111<151 156 62 250 245 245 245 250 151 339>
VStem: 35 110<167 700> 62 277<737 737> 259 104<160 167 167 700>
LayerCount: 2
Fore
SplineSet
35 700 m 1xd4
 145 700 l 1
 145 160 l 2
 145 110 167 92 202 92 c 0
 237 92 259 110 259 160 c 2
 259 700 l 1
 363 700 l 1
 363 167 l 2
 363 55 307 -9 199 -9 c 0
 91 -9 35 55 35 167 c 2
 35 700 l 1xd4
156 737 m 1x28
 62 737 l 1
 151 848 l 1
 250 848 l 1
 339 737 l 1
 245 737 l 1
 200 792 l 1
 156 737 l 1x28
EndSplineSet
EndChar

StartChar: Udieresis
Encoding: 220 220 146
Width: 398
Flags: MW
HStem: -9 101<184.5 219.5 184.5 253> 680 20G<35 145 145 145 259 363 363 363> 737 96<77 173 77 173 77 229 229 325>
VStem: 35 110<167 700> 77 96<737 833 737 833> 229 96<737 833 737 833> 259 104<160 167 167 700>
LayerCount: 2
Fore
SplineSet
35 700 m 1xd2
 145 700 l 1
 145 160 l 2
 145 110 167 92 202 92 c 0
 237 92 259 110 259 160 c 2
 259 700 l 1
 363 700 l 1
 363 167 l 2
 363 55 307 -9 199 -9 c 0
 91 -9 35 55 35 167 c 2
 35 700 l 1xd2
77 833 m 1x2c
 173 833 l 1
 173 737 l 1
 77 737 l 1
 77 833 l 1x2c
229 833 m 1
 325 833 l 1
 325 737 l 1
 229 737 l 1
 229 833 l 1
EndSplineSet
EndChar

StartChar: Yacute
Encoding: 221 221 147
Width: 396
Flags: MW
HStem: 0 21G<143 143 143 253> 680 20G<4 119 119 119 287 392 392 392> 737 111<212 218 144 320>
VStem: 143 110<0 232 0 232> 144 176<737 848>
LayerCount: 2
Fore
SplineSet
143 0 m 1xd0
 143 232 l 1
 4 700 l 1
 119 700 l 1
 202 381 l 1
 204 381 l 1
 287 700 l 1
 392 700 l 1
 253 232 l 1
 253 0 l 1
 143 0 l 1xd0
212 848 m 1x28
 320 848 l 1
 218 737 l 1
 144 737 l 1
 212 848 l 1x28
EndSplineSet
EndChar

StartChar: Thorn
Encoding: 222 222 148
Width: 377
Flags: MW
HStem: 0 21G<40 40 40 150> 183 100<150 202 150 202> 520 100<150 202 150 202> 680 20G<40 150 150 150>
VStem: 40 110<0 183 0 283 283 520 620 700> 256 110<349 356 356 447 300 454 300 479>
LayerCount: 2
Fore
SplineSet
40 0 m 1
 40 700 l 1
 150 700 l 1
 150 620 l 1
 202 620 l 2
 312 620 366 559 366 447 c 2
 366 356 l 2
 366 244 312 183 202 183 c 2
 150 183 l 1
 150 0 l 1
 40 0 l 1
202 520 m 2
 150 520 l 1
 150 283 l 1
 202 283 l 2
 237 283 256 299 256 349 c 2
 256 454 l 2
 256 504 237 520 202 520 c 2
EndSplineSet
EndChar

StartChar: germandbls
Encoding: 223 223 149
Width: 748
Flags: MW
HStem: -8 101<166.5 201.5 166.5 241 540.5 575.5> 608 100<173.5 208.5 547.5 582.5>
VStem: 23 104<168 211 136 211> 26 110<513.5 564 513.5 588> 241 110<136 186.5> 246 104<510 532 510 539 510 564> 397 104<168 211 136 211> 400 110<513.5 564 513.5 588> 615 110<136 186.5> 620 104<510 532 510 539 510 564>
LayerCount: 2
Fore
SplineSet
26 532 m 0xd8
 26 644 81 708 188 708 c 0
 295 708 350 644 350 532 c 2
 350 510 l 1
 246 510 l 1
 246 539 l 2
 246 589 226 608 191 608 c 0
 156 608 136 589 136 539 c 0xd4
 136 488 158 450 230 387 c 0
 322 306 351 248 351 168 c 0
 351 56 295 -8 187 -8 c 0
 79 -8 23 56 23 168 c 2
 23 211 l 1
 127 211 l 1
 127 161 l 2xe8
 127 111 149 93 184 93 c 0
 219 93 241 111 241 161 c 0
 241 212 219 250 147 313 c 0
 55 394 26 452 26 532 c 0xd8
400 532 m 0xc180
 400 644 455 708 562 708 c 0
 669 708 724 644 724 532 c 2
 724 510 l 1
 620 510 l 1
 620 539 l 2
 620 589 600 608 565 608 c 0
 530 608 510 589 510 539 c 0xc140
 510 488 532 450 604 387 c 0
 696 306 725 248 725 168 c 0
 725 56 669 -8 561 -8 c 0
 453 -8 397 56 397 168 c 2
 397 211 l 1
 501 211 l 1
 501 161 l 2xc280
 501 111 523 93 558 93 c 0
 593 93 615 111 615 161 c 0
 615 212 593 250 521 313 c 0
 429 394 400 452 400 532 c 0xc180
EndSplineSet
EndChar

StartChar: agrave
Encoding: 224 224 150
Width: 407
Flags: MW
HStem: 0 21G<11 112 11 11 285 396 285 285> 127 95<145 251 145 266 131 251> 680 20G<123 284 284 284> 737 111<185 196 83 264 185 185>
VStem: 11 385<0 0> 83 181<737 848>
LayerCount: 2
Fore
SplineSet
284 700 m 1xe8
 396 0 l 1
 285 0 l 1
 266 127 l 1
 131 127 l 1
 112 0 l 1
 11 0 l 1
 123 700 l 1
 284 700 l 1xe8
197 576 m 1
 145 222 l 1
 251 222 l 1
 199 576 l 1
 197 576 l 1
83 848 m 1x14
 196 848 l 1
 264 737 l 1
 185 737 l 1
 83 848 l 1x14
EndSplineSet
EndChar

StartChar: aacute
Encoding: 225 225 151
Width: 407
Flags: MW
HStem: 0 21G<11 112 11 11 285 396 285 285> 127 95<145 251 145 266 131 251> 680 20G<123 284 284 284> 737 111<213 219 145 321>
VStem: 11 385<0 0> 145 176<737 848>
LayerCount: 2
Fore
SplineSet
284 700 m 1xe8
 396 0 l 1
 285 0 l 1
 266 127 l 1
 131 127 l 1
 112 0 l 1
 11 0 l 1
 123 700 l 1
 284 700 l 1xe8
197 576 m 1
 145 222 l 1
 251 222 l 1
 199 576 l 1
 197 576 l 1
213 848 m 1x14
 321 848 l 1
 219 737 l 1
 145 737 l 1
 213 848 l 1x14
EndSplineSet
EndChar

StartChar: acircumflex
Encoding: 226 226 152
Width: 407
Flags: MW
HStem: 0 21G<11 112 11 11 285 396 285 285> 127 95<145 251 145 266 131 251> 680 20G<123 284 284 284> 737 111<154 159 65 253 248 248 248 253 154 342>
VStem: 11 385<0 0> 65 277<737 737>
LayerCount: 2
Fore
SplineSet
284 700 m 1xe8
 396 0 l 1
 285 0 l 1
 266 127 l 1
 131 127 l 1
 112 0 l 1
 11 0 l 1
 123 700 l 1
 284 700 l 1xe8
197 576 m 1
 145 222 l 1
 251 222 l 1
 199 576 l 1
 197 576 l 1
159 737 m 1x14
 65 737 l 1
 154 848 l 1
 253 848 l 1
 342 737 l 1
 248 737 l 1
 203 792 l 1
 159 737 l 1x14
EndSplineSet
EndChar

StartChar: atilde
Encoding: 227 227 153
Width: 407
Flags: MW
HStem: 0 21G<11 112 11 11 285 396 285 285> 127 95<145 251 145 266 131 251> 680 20G<123 284 284 284> 737 76<246 254 237.5 274> 762 76<153 162 133 169.5>
VStem: 11 385<0 0> 68 271<770 805>
LayerCount: 2
Fore
SplineSet
284 700 m 1xe4
 396 0 l 1
 285 0 l 1
 266 127 l 1
 131 127 l 1
 112 0 l 1
 11 0 l 1
 123 700 l 1
 284 700 l 1xe4
197 576 m 1
 145 222 l 1
 251 222 l 1
 199 576 l 1
 197 576 l 1
243 813 m 0x12
 265 813 276 821 286 842 c 1
 339 805 l 1
 322 760 294 737 254 737 c 0x12
 238 737 224 740 201 751 c 0
 185 759 175 762 164 762 c 0
 142 762 131 754 121 733 c 1
 68 770 l 1
 85 815 113 838 153 838 c 0x0a
 171 838 186 834 206 824 c 0
 222 816 232 813 243 813 c 0x12
EndSplineSet
EndChar

StartChar: adieresis
Encoding: 228 228 154
Width: 407
Flags: MW
HStem: 0 21G<11 112 11 11 285 396 285 285> 127 95<145 251 145 266 131 251> 680 20G<123 284 284 284> 737 96<79 175 79 175 79 231 231 327>
VStem: 11 385<0 0> 79 96<737 833 737 833> 231 96<737 833 737 833>
LayerCount: 2
Fore
SplineSet
284 700 m 1xe8
 396 0 l 1
 285 0 l 1
 266 127 l 1
 131 127 l 1
 112 0 l 1
 11 0 l 1
 123 700 l 1
 284 700 l 1xe8
197 576 m 1
 145 222 l 1
 251 222 l 1
 199 576 l 1
 197 576 l 1
79 833 m 1x16
 175 833 l 1
 175 737 l 1
 79 737 l 1
 79 833 l 1x16
231 833 m 1
 327 833 l 1
 327 737 l 1
 231 737 l 1
 231 833 l 1
EndSplineSet
EndChar

StartChar: aring
Encoding: 229 229 155
Width: 407
Flags: MW
HStem: 0 21G<11 112 11 11 285 396 285 285> 127 95<145 251 145 266 131 251> 680 20G<123 284 284 284> 734 50<194.5 211.5 194.5 225.5> 844 50<194.5 211.5>
VStem: 11 385<0 0> 123 50<805.5 822.5 805.5 836.5> 233 50<805.5 822.5>
LayerCount: 2
Fore
SplineSet
284 700 m 1xe4
 396 0 l 1
 285 0 l 1
 266 127 l 1
 131 127 l 1
 112 0 l 1
 11 0 l 1
 123 700 l 1
 284 700 l 1xe4
197 576 m 1
 145 222 l 1
 251 222 l 1
 199 576 l 1
 197 576 l 1
123 814 m 0x1b
 123 859 158 894 203 894 c 0
 248 894 283 859 283 814 c 0
 283 769 248 734 203 734 c 0
 158 734 123 769 123 814 c 0x1b
173 814 m 0
 173 797 186 784 203 784 c 0
 220 784 233 797 233 814 c 0
 233 831 220 844 203 844 c 0
 186 844 173 831 173 814 c 0
EndSplineSet
EndChar

StartChar: ae
Encoding: 230 230 156
Width: 580
Flags: MW
HStem: 0 100<362 552 362 552> 127 95<166 252 166 252 141 252> 305 100<362 513 362 513> 600 100<362 362 362 552>
VStem: 252 110<100 127 127 127 222 305 405 559 559 559>
LayerCount: 2
Fore
SplineSet
362 600 m 1
 362 405 l 1
 513 405 l 1
 513 305 l 1
 362 305 l 1
 362 100 l 1
 552 100 l 1
 552 0 l 1
 252 0 l 1xb8
 252 127 l 1
 141 127 l 1xf8
 109 0 l 1
 4 0 l 1
 191 700 l 1
 552 700 l 1
 552 600 l 1
 362 600 l 1
166 222 m 1xf8
 252 222 l 1
 252 559 l 1
 250 559 l 1
 166 222 l 1xf8
EndSplineSet
EndChar

StartChar: ccedilla
Encoding: 231 231 157
Width: 386
Flags: MW
HStem: -147 40<184.5 198.5 184.5 219.5> -147 68<162.5 168 94 219.5> -57 18 -7 100<180.5 217> 608 100<180.5 215.5>
VStem: 31 110<168 532 532 539> 94 74<-89 -87 -87 -79 -94.5 -79> 169 48<-39 -7 -39 -6 -39 -6> 215 76<-91.5 -73.5> 255 104<161 168 168 261 116 261 464 532>
LayerCount: 2
Fore
SplineSet
255 261 m 1x7d40
 359 261 l 1
 359 168 l 2
 359 64 310 1 217 -7 c 1
 217 -39 l 1x7d40
 266 -39 291 -51 291 -86 c 0
 291 -140 249 -147 190 -147 c 0
 135 -147 94 -135 94 -89 c 2
 94 -79 l 1
 168 -79 l 1x7a80
 168 -87 l 2
 168 -102 179 -107 190 -107 c 0
 207 -107 215 -100 215 -83 c 0xba80
 215 -64 203 -57 179 -57 c 2
 169 -57 l 1
 169 -6 l 1
 78 3 31 65 31 168 c 2
 31 532 l 2
 31 644 87 708 195 708 c 0
 303 708 359 644 359 532 c 2
 359 464 l 1
 255 464 l 1
 255 539 l 2
 255 589 233 608 198 608 c 0
 163 608 141 589 141 539 c 2
 141 161 l 2
 141 111 163 93 198 93 c 0
 233 93 255 111 255 161 c 2
 255 261 l 1x7d40
EndSplineSet
EndChar

StartChar: egrave
Encoding: 232 232 158
Width: 368
Flags: MW
HStem: 0 100<150 340 150 340> 305 100<150 301 150 301> 600 100<150 150 150 340> 737 111<170 181 68 249 170 170>
VStem: 40 110<100 305 405 600> 68 181<737 848>
LayerCount: 2
Fore
SplineSet
150 600 m 1xe8
 150 405 l 1
 301 405 l 1
 301 305 l 1
 150 305 l 1
 150 100 l 1
 340 100 l 1
 340 0 l 1
 40 0 l 1
 40 700 l 1
 340 700 l 1
 340 600 l 1
 150 600 l 1xe8
68 848 m 1x14
 181 848 l 1
 249 737 l 1
 170 737 l 1
 68 848 l 1x14
EndSplineSet
EndChar

StartChar: eacute
Encoding: 233 233 159
Width: 368
Flags: MW
HStem: 0 100<150 340 150 340> 305 100<150 301 150 301> 600 100<150 150 150 340> 737 111<199 205 131 307>
VStem: 40 110<100 305 405 600> 131 176<737 848>
LayerCount: 2
Fore
SplineSet
150 600 m 1xe8
 150 405 l 1
 301 405 l 1
 301 305 l 1
 150 305 l 1
 150 100 l 1
 340 100 l 1
 340 0 l 1
 40 0 l 1
 40 700 l 1
 340 700 l 1
 340 600 l 1
 150 600 l 1xe8
199 848 m 1x14
 307 848 l 1
 205 737 l 1
 131 737 l 1
 199 848 l 1x14
EndSplineSet
EndChar

StartChar: ecircumflex
Encoding: 234 234 160
Width: 368
Flags: MW
HStem: 0 100<150 340 150 340> 305 100<150 301 150 301> 600 100<150 150 150 340> 737 111<139 144 50 238 233 233 233 238 139 327>
VStem: 40 110<100 305 405 600> 50 277<737 737>
LayerCount: 2
Fore
SplineSet
150 600 m 1xe8
 150 405 l 1
 301 405 l 1
 301 305 l 1
 150 305 l 1
 150 100 l 1
 340 100 l 1
 340 0 l 1
 40 0 l 1
 40 700 l 1
 340 700 l 1
 340 600 l 1
 150 600 l 1xe8
144 737 m 1x14
 50 737 l 1
 139 848 l 1
 238 848 l 1
 327 737 l 1
 233 737 l 1
 188 792 l 1
 144 737 l 1x14
EndSplineSet
EndChar

StartChar: edieresis
Encoding: 235 235 161
Width: 368
Flags: MW
HStem: 0 100<150 340 150 340> 305 100<150 301 150 301> 600 100<150 150 150 340> 737 96<65 161 65 161 65 217 217 313>
VStem: 40 110<100 305 405 600> 65 96<737 833 737 833> 217 96<737 833 737 833>
LayerCount: 2
Fore
SplineSet
150 600 m 1xe8
 150 405 l 1
 301 405 l 1
 301 305 l 1
 150 305 l 1
 150 100 l 1
 340 100 l 1
 340 0 l 1
 40 0 l 1
 40 700 l 1
 340 700 l 1
 340 600 l 1
 150 600 l 1xe8
65 833 m 1x16
 161 833 l 1
 161 737 l 1
 65 737 l 1
 65 833 l 1x16
217 833 m 1
 313 833 l 1
 313 737 l 1
 217 737 l 1
 217 833 l 1
EndSplineSet
EndChar

StartChar: igrave
Encoding: 236 236 162
Width: 190
Flags: MW
HStem: 0 21G<40 40 40 150> 680 20G<40 150 150 150> 737 111<77 88 -25 156 77 77>
VStem: -25 181<737 848> 40 110<0 700 0 700>
LayerCount: 2
Fore
SplineSet
40 0 m 1xc8
 40 700 l 1
 150 700 l 1
 150 0 l 1
 40 0 l 1xc8
-25 848 m 1x30
 88 848 l 1
 156 737 l 1
 77 737 l 1
 -25 848 l 1x30
EndSplineSet
EndChar

StartChar: iacute
Encoding: 237 237 163
Width: 190
Flags: MW
HStem: 0 21G<40 40 40 150> 680 20G<40 150 150 150> 737 111<105 111 37 213>
VStem: 37 176<737 848> 40 110<0 700 0 700>
LayerCount: 2
Fore
SplineSet
40 0 m 1xc8
 40 700 l 1
 150 700 l 1
 150 0 l 1
 40 0 l 1xc8
105 848 m 1x30
 213 848 l 1
 111 737 l 1
 37 737 l 1
 105 848 l 1x30
EndSplineSet
EndChar

StartChar: icircumflex
Encoding: 238 238 164
Width: 190
Flags: MW
HStem: 0 21G<40 40 40 150> 680 20G<40 150 150 150> 737 111<46 51 -43 145 140 140 140 145 46 234>
VStem: -43 277<737 737> 40 110<0 700 0 700>
LayerCount: 2
Fore
SplineSet
40 0 m 1xc8
 40 700 l 1
 150 700 l 1
 150 0 l 1
 40 0 l 1xc8
51 737 m 1x30
 -43 737 l 1
 46 848 l 1
 145 848 l 1
 234 737 l 1
 140 737 l 1
 95 792 l 1
 51 737 l 1x30
EndSplineSet
EndChar

StartChar: idieresis
Encoding: 239 239 165
Width: 190
Flags: MW
HStem: 0 21G<40 40 40 150> 680 20G<40 150 150 150> 737 96<-29 67 -29 67 -29 123 123 219>
VStem: -29 96<737 833 737 833> 40 110<0 700 0 700> 123 96<737 833 737 833>
LayerCount: 2
Fore
SplineSet
40 0 m 1xc8
 40 700 l 1
 150 700 l 1
 150 0 l 1
 40 0 l 1xc8
-29 833 m 1x34
 67 833 l 1
 67 737 l 1
 -29 737 l 1
 -29 833 l 1x34
123 833 m 1
 219 833 l 1
 219 737 l 1
 123 737 l 1
 123 833 l 1
EndSplineSet
EndChar

StartChar: eth
Encoding: 240 240 166
Width: 408
Flags: MW
HStem: 0 100<150 212 212 214> 305 90<4 40 4 40 150 218> 600 100<150 212 150 150>
VStem: 40 110<100 305 100 305 100 305 395 600> 268 110<168 173 173 527>
CounterMasks: 1 e0
LayerCount: 2
Fore
SplineSet
40 0 m 1
 40 305 l 1
 4 305 l 1
 4 395 l 1
 40 395 l 1
 40 700 l 1
 214 700 l 2
 324 700 378 639 378 527 c 2
 378 173 l 2
 378 61 324 0 214 0 c 2
 40 0 l 1
212 600 m 2
 150 600 l 1
 150 395 l 1
 218 395 l 1
 218 305 l 1
 150 305 l 1
 150 100 l 1
 212 100 l 2
 247 100 268 118 268 168 c 2
 268 532 l 2
 268 582 247 600 212 600 c 2
EndSplineSet
EndChar

StartChar: ntilde
Encoding: 241 241 167
Width: 427
Flags: MW
HStem: 0 21G<39 138 39 39 275 388 275 275> 680 20G<39 177 177 177 290 388 388 388> 737 76<256 264 247.5 284> 762 76<163 172 143 179.5>
VStem: 39 99<0 507 0 700> 78 271<770 805> 290 98<281 700 0 700>
LayerCount: 2
Fore
SplineSet
275 0 m 1xca
 140 507 l 1
 138 507 l 1
 138 0 l 1
 39 0 l 1
 39 700 l 1
 177 700 l 1
 288 281 l 1
 290 281 l 1
 290 700 l 1
 388 700 l 1
 388 0 l 1
 275 0 l 1xca
253 813 m 0x24
 275 813 286 821 296 842 c 1
 349 805 l 1
 332 760 304 737 264 737 c 0x24
 248 737 234 740 211 751 c 0
 195 759 185 762 174 762 c 0
 152 762 141 754 131 733 c 1
 78 770 l 1
 95 815 123 838 163 838 c 0x14
 181 838 196 834 216 824 c 0
 232 816 242 813 253 813 c 0x24
EndSplineSet
EndChar

StartChar: ograve
Encoding: 242 242 168
Width: 396
Flags: MW
HStem: -8 100<180.5 215.5 180.5 252> 608 100<180.5 215.5> 737 111<179 190 77 258 179 179>
VStem: 31 110<168 532 532 539> 77 181<737 848> 255 110<161 168 168 532>
LayerCount: 2
Fore
SplineSet
141 539 m 2xd4
 141 161 l 2
 141 111 163 92 198 92 c 0
 233 92 255 111 255 161 c 2
 255 539 l 2
 255 589 233 608 198 608 c 0
 163 608 141 589 141 539 c 2xd4
31 168 m 2
 31 532 l 2
 31 644 90 708 198 708 c 0
 306 708 365 644 365 532 c 2
 365 168 l 2
 365 56 306 -8 198 -8 c 0
 90 -8 31 56 31 168 c 2
77 848 m 1x28
 190 848 l 1
 258 737 l 1
 179 737 l 1
 77 848 l 1x28
EndSplineSet
EndChar

StartChar: oacute
Encoding: 243 243 169
Width: 396
Flags: MW
HStem: -8 100<180.5 215.5 180.5 252> 608 100<180.5 215.5> 737 111<208 214 140 316>
VStem: 31 110<168 532 532 539> 140 176<737 848> 255 110<161 168 168 532>
LayerCount: 2
Fore
SplineSet
141 539 m 2xd4
 141 161 l 2
 141 111 163 92 198 92 c 0
 233 92 255 111 255 161 c 2
 255 539 l 2
 255 589 233 608 198 608 c 0
 163 608 141 589 141 539 c 2xd4
31 168 m 2
 31 532 l 2
 31 644 90 708 198 708 c 0
 306 708 365 644 365 532 c 2
 365 168 l 2
 365 56 306 -8 198 -8 c 0
 90 -8 31 56 31 168 c 2
208 848 m 1x28
 316 848 l 1
 214 737 l 1
 140 737 l 1
 208 848 l 1x28
EndSplineSet
EndChar

StartChar: ocircumflex
Encoding: 244 244 170
Width: 396
Flags: MW
HStem: -8 100<180.5 215.5 180.5 252> 608 100<180.5 215.5> 737 111<148 153 59 247 242 242 242 247 148 336>
VStem: 31 110<168 532 532 539> 59 277<737 737> 255 110<161 168 168 532>
LayerCount: 2
Fore
SplineSet
141 539 m 2xd4
 141 161 l 2
 141 111 163 92 198 92 c 0
 233 92 255 111 255 161 c 2
 255 539 l 2
 255 589 233 608 198 608 c 0
 163 608 141 589 141 539 c 2xd4
31 168 m 2
 31 532 l 2
 31 644 90 708 198 708 c 0
 306 708 365 644 365 532 c 2
 365 168 l 2
 365 56 306 -8 198 -8 c 0
 90 -8 31 56 31 168 c 2
153 737 m 1x28
 59 737 l 1
 148 848 l 1
 247 848 l 1
 336 737 l 1
 242 737 l 1
 197 792 l 1
 153 737 l 1x28
EndSplineSet
EndChar

StartChar: otilde
Encoding: 245 245 171
Width: 396
Flags: MW
HStem: -8 100<180.5 215.5 180.5 252> 608 100<180.5 215.5> 737 76<241 249 232.5 269> 762 76<148 157 128 164.5>
VStem: 31 110<168 532 532 539> 63 271<770 805> 255 110<161 168 168 532>
LayerCount: 2
Fore
SplineSet
141 539 m 2xca
 141 161 l 2
 141 111 163 92 198 92 c 0
 233 92 255 111 255 161 c 2
 255 539 l 2
 255 589 233 608 198 608 c 0
 163 608 141 589 141 539 c 2xca
31 168 m 2
 31 532 l 2
 31 644 90 708 198 708 c 0
 306 708 365 644 365 532 c 2
 365 168 l 2
 365 56 306 -8 198 -8 c 0
 90 -8 31 56 31 168 c 2
238 813 m 0x24
 260 813 271 821 281 842 c 1
 334 805 l 1
 317 760 289 737 249 737 c 0x24
 233 737 219 740 196 751 c 0
 180 759 170 762 159 762 c 0
 137 762 126 754 116 733 c 1
 63 770 l 1
 80 815 108 838 148 838 c 0x14
 166 838 181 834 201 824 c 0
 217 816 227 813 238 813 c 0x24
EndSplineSet
EndChar

StartChar: odieresis
Encoding: 246 246 172
Width: 396
Flags: MW
HStem: -8 100<180.5 215.5 180.5 252> 608 100<180.5 215.5> 737 96<74 170 74 170 74 226 226 322>
VStem: 31 110<168 532 532 539> 74 96<737 833 737 833> 226 96<737 833 737 833> 255 110<161 168 168 532>
LayerCount: 2
Fore
SplineSet
141 539 m 2xd2
 141 161 l 2
 141 111 163 92 198 92 c 0
 233 92 255 111 255 161 c 2
 255 539 l 2
 255 589 233 608 198 608 c 0
 163 608 141 589 141 539 c 2xd2
31 168 m 2
 31 532 l 2
 31 644 90 708 198 708 c 0
 306 708 365 644 365 532 c 2
 365 168 l 2
 365 56 306 -8 198 -8 c 0
 90 -8 31 56 31 168 c 2
74 833 m 1x2c
 170 833 l 1
 170 737 l 1
 74 737 l 1
 74 833 l 1x2c
226 833 m 1
 322 833 l 1
 322 737 l 1
 226 737 l 1
 226 833 l 1
EndSplineSet
EndChar

StartChar: divide
Encoding: 247 247 173
Width: 396
Flags: MW
HStem: 144 106<145 251 145 251> 311 78<25 371 25 371> 449 106<145 251 145 251>
VStem: 145 106<144 250 144 250 449 555>
LayerCount: 2
Fore
SplineSet
145 250 m 1
 251 250 l 1
 251 144 l 1
 145 144 l 1
 145 250 l 1
145 555 m 1
 251 555 l 1
 251 449 l 1
 145 449 l 1
 145 555 l 1
25 389 m 1
 371 389 l 1
 371 311 l 1
 25 311 l 1
 25 389 l 1
EndSplineSet
EndChar

StartChar: oslash
Encoding: 248 248 174
Width: 396
Flags: MW
HStem: -8 100<183 215.5 183 252> 608 100<180.5 212.5>
VStem: 31 110<257 532 532 539 257 588> 255 110<161 168 168 443 443 443>
LayerCount: 2
Fore
SplineSet
31 168 m 2
 31 532 l 2
 31 644 90 708 198 708 c 0
 238 708 272 699 298 682 c 1
 318 737 l 1
 355 724 l 1
 329 653 l 1
 353 624 365 583 365 532 c 2
 365 168 l 2
 365 56 306 -8 198 -8 c 0
 158 -8 124 0 98 17 c 1
 78 -37 l 1
 41 -24 l 1
 66 46 l 1
 43 76 31 117 31 168 c 2
253 443 m 1
 142 140 l 1
 148 105 168 92 198 92 c 0
 233 92 255 111 255 161 c 2
 255 443 l 1
 253 443 l 1
141 539 m 2
 141 257 l 1
 143 257 l 1
 253 560 l 1
 248 594 227 608 198 608 c 0
 163 608 141 589 141 539 c 2
EndSplineSet
EndChar

StartChar: ugrave
Encoding: 249 249 175
Width: 398
Flags: MW
HStem: -9 101<184.5 219.5 184.5 253> 680 20G<35 145 145 145 259 363 363 363> 737 111<181 192 79 260 181 181>
VStem: 35 110<167 700> 79 181<737 848> 259 104<160 167 167 700>
LayerCount: 2
Fore
SplineSet
35 700 m 1xd4
 145 700 l 1
 145 160 l 2
 145 110 167 92 202 92 c 0
 237 92 259 110 259 160 c 2
 259 700 l 1
 363 700 l 1
 363 167 l 2
 363 55 307 -9 199 -9 c 0
 91 -9 35 55 35 167 c 2
 35 700 l 1xd4
79 848 m 1x28
 192 848 l 1
 260 737 l 1
 181 737 l 1
 79 848 l 1x28
EndSplineSet
EndChar

StartChar: uacute
Encoding: 250 250 176
Width: 398
Flags: MW
HStem: -9 101<184.5 219.5 184.5 253> 680 20G<35 145 145 145 259 363 363 363> 737 111<210 216 142 318>
VStem: 35 110<167 700> 142 176<737 848> 259 104<160 167 167 700>
LayerCount: 2
Fore
SplineSet
35 700 m 1xd4
 145 700 l 1
 145 160 l 2
 145 110 167 92 202 92 c 0
 237 92 259 110 259 160 c 2
 259 700 l 1
 363 700 l 1
 363 167 l 2
 363 55 307 -9 199 -9 c 0
 91 -9 35 55 35 167 c 2
 35 700 l 1xd4
210 848 m 1x28
 318 848 l 1
 216 737 l 1
 142 737 l 1
 210 848 l 1x28
EndSplineSet
EndChar

StartChar: ucircumflex
Encoding: 251 251 177
Width: 398
Flags: MW
HStem: -9 101<184.5 219.5 184.5 253> 680 20G<35 145 145 145 259 363 363 363> 737 111<151 156 62 250 245 245 245 250 151 339>
VStem: 35 110<167 700> 62 277<737 737> 259 104<160 167 167 700>
LayerCount: 2
Fore
SplineSet
35 700 m 1xd4
 145 700 l 1
 145 160 l 2
 145 110 167 92 202 92 c 0
 237 92 259 110 259 160 c 2
 259 700 l 1
 363 700 l 1
 363 167 l 2
 363 55 307 -9 199 -9 c 0
 91 -9 35 55 35 167 c 2
 35 700 l 1xd4
156 737 m 1x28
 62 737 l 1
 151 848 l 1
 250 848 l 1
 339 737 l 1
 245 737 l 1
 200 792 l 1
 156 737 l 1x28
EndSplineSet
EndChar

StartChar: udieresis
Encoding: 252 252 178
Width: 398
Flags: MW
HStem: -9 101<184.5 219.5 184.5 253> 680 20G<35 145 145 145 259 363 363 363> 737 96<77 173 77 173 77 229 229 325>
VStem: 35 110<167 700> 77 96<737 833 737 833> 229 96<737 833 737 833> 259 104<160 167 167 700>
LayerCount: 2
Fore
SplineSet
35 700 m 1xd2
 145 700 l 1
 145 160 l 2
 145 110 167 92 202 92 c 0
 237 92 259 110 259 160 c 2
 259 700 l 1
 363 700 l 1
 363 167 l 2
 363 55 307 -9 199 -9 c 0
 91 -9 35 55 35 167 c 2
 35 700 l 1xd2
77 833 m 1x2c
 173 833 l 1
 173 737 l 1
 77 737 l 1
 77 833 l 1x2c
229 833 m 1
 325 833 l 1
 325 737 l 1
 229 737 l 1
 229 833 l 1
EndSplineSet
EndChar

StartChar: yacute
Encoding: 253 253 179
Width: 396
Flags: MW
HStem: 0 21G<143 143 143 253> 680 20G<4 119 119 119 287 392 392 392> 737 111<212 218 144 320>
VStem: 143 110<0 232 0 232> 144 176<737 848>
LayerCount: 2
Fore
SplineSet
143 0 m 1xd0
 143 232 l 1
 4 700 l 1
 119 700 l 1
 202 381 l 1
 204 381 l 1
 287 700 l 1
 392 700 l 1
 253 232 l 1
 253 0 l 1
 143 0 l 1xd0
212 848 m 1x28
 320 848 l 1
 218 737 l 1
 144 737 l 1
 212 848 l 1x28
EndSplineSet
EndChar

StartChar: thorn
Encoding: 254 254 180
Width: 377
Flags: MW
HStem: 0 21G<40 40 40 150> 183 100<150 202 150 202> 520 100<150 202 150 202> 680 20G<40 150 150 150>
VStem: 40 110<0 183 0 283 283 520 620 700> 256 110<349 356 356 447 300 454 300 479>
LayerCount: 2
Fore
SplineSet
40 0 m 1
 40 700 l 1
 150 700 l 1
 150 620 l 1
 202 620 l 2
 312 620 366 559 366 447 c 2
 366 356 l 2
 366 244 312 183 202 183 c 2
 150 183 l 1
 150 0 l 1
 40 0 l 1
202 520 m 2
 150 520 l 1
 150 283 l 1
 202 283 l 2
 237 283 256 299 256 349 c 2
 256 454 l 2
 256 504 237 520 202 520 c 2
EndSplineSet
EndChar

StartChar: ydieresis
Encoding: 255 255 181
Width: 396
Flags: MW
HStem: 0 21G<143 143 143 253> 680 20G<4 119 119 119 287 392 392 392> 737 96<78 174 78 174 78 230 230 326>
VStem: 78 96<737 833 737 833> 143 110<0 232 0 232> 230 96<737 833 737 833>
LayerCount: 2
Fore
SplineSet
143 0 m 1xc8
 143 232 l 1
 4 700 l 1
 119 700 l 1
 202 381 l 1
 204 381 l 1
 287 700 l 1
 392 700 l 1
 253 232 l 1
 253 0 l 1
 143 0 l 1xc8
78 833 m 1x34
 174 833 l 1
 174 737 l 1
 78 737 l 1
 78 833 l 1x34
230 833 m 1
 326 833 l 1
 326 737 l 1
 230 737 l 1
 230 833 l 1
EndSplineSet
EndChar

StartChar: Amacron
Encoding: 256 256 182
Width: 407
Flags: MW
HStem: 0 21G<11 112 11 11 285 396 285 285> 127 95<145 251 145 266 131 251> 680 20G<123 284 284 284> 741 78<88 318 88 318>
VStem: 11 385<0 0> 88 230<741 819 741 819>
LayerCount: 2
Fore
SplineSet
284 700 m 1xe8
 396 0 l 1
 285 0 l 1
 266 127 l 1
 131 127 l 1
 112 0 l 1
 11 0 l 1
 123 700 l 1
 284 700 l 1xe8
197 576 m 1
 145 222 l 1
 251 222 l 1
 199 576 l 1
 197 576 l 1
88 819 m 1x14
 318 819 l 1
 318 741 l 1
 88 741 l 1
 88 819 l 1x14
EndSplineSet
EndChar

StartChar: amacron
Encoding: 257 257 183
Width: 407
Flags: MW
HStem: 0 21G<11 112 11 11 285 396 285 285> 127 95<145 251 145 266 131 251> 680 20G<123 284 284 284> 741 78<88 318 88 318>
VStem: 11 385<0 0> 88 230<741 819 741 819>
LayerCount: 2
Fore
SplineSet
284 700 m 1xe8
 396 0 l 1
 285 0 l 1
 266 127 l 1
 131 127 l 1
 112 0 l 1
 11 0 l 1
 123 700 l 1
 284 700 l 1xe8
197 576 m 1
 145 222 l 1
 251 222 l 1
 199 576 l 1
 197 576 l 1
88 819 m 1x14
 318 819 l 1
 318 741 l 1
 88 741 l 1
 88 819 l 1x14
EndSplineSet
EndChar

StartChar: Abreve
Encoding: 258 258 184
Width: 407
Flags: MW
HStem: 0 21G<11 112 11 11 285 396 285 285> 127 95<145 251 145 266 131 251> 680 20G<123 284 284 284> 733 68<188 216.5 188 239.5>
VStem: 11 385<0 0> 91 65<848 848> 250 65<813 848>
LayerCount: 2
Fore
SplineSet
284 700 m 1xe8
 396 0 l 1
 285 0 l 1
 266 127 l 1
 131 127 l 1
 112 0 l 1
 11 0 l 1
 123 700 l 1
 284 700 l 1xe8
197 576 m 1
 145 222 l 1
 251 222 l 1
 199 576 l 1
 197 576 l 1
250 848 m 1x16
 315 848 l 1
 315 778 277 733 202 733 c 0
 127 733 92 778 91 848 c 1
 156 848 l 1
 159 810 174 801 202 801 c 0
 231 801 247 810 250 848 c 1x16
EndSplineSet
EndChar

StartChar: abreve
Encoding: 259 259 185
Width: 407
Flags: MW
HStem: 0 21G<11 112 11 11 285 396 285 285> 127 95<145 251 145 266 131 251> 680 20G<123 284 284 284> 733 68<188 216.5 188 239.5>
VStem: 11 385<0 0> 91 65<848 848> 250 65<813 848>
LayerCount: 2
Fore
SplineSet
284 700 m 1xe8
 396 0 l 1
 285 0 l 1
 266 127 l 1
 131 127 l 1
 112 0 l 1
 11 0 l 1
 123 700 l 1
 284 700 l 1xe8
197 576 m 1
 145 222 l 1
 251 222 l 1
 199 576 l 1
 197 576 l 1
250 848 m 1x16
 315 848 l 1
 315 778 277 733 202 733 c 0
 127 733 92 778 91 848 c 1
 156 848 l 1
 159 810 174 801 202 801 c 0
 231 801 247 810 250 848 c 1x16
EndSplineSet
EndChar

StartChar: Aogonek
Encoding: 260 260 186
Width: 407
Flags: MW
HStem: -147 61<301.5 370> 0 21G<11 112 11 11 355 396 355 355> 127 95<145 251 145 266 131 251> 680 20G<123 284 284 284>
VStem: 241 84<-105.5 -51>
LayerCount: 2
Fore
SplineSet
284 700 m 1
 396 0 l 1
 355 0 l 1
 330 -21 325 -44 325 -58 c 0
 325 -77 342 -86 360 -86 c 0
 380 -86 385 -83 396 -80 c 1
 396 -136 l 1
 373 -145 356 -147 328 -147 c 0
 275 -147 241 -126 241 -85 c 0
 241 -58 256 -33 288 -12 c 1
 266 127 l 1
 131 127 l 1
 112 0 l 1
 11 0 l 1
 123 700 l 1
 284 700 l 1
197 576 m 1
 145 222 l 1
 251 222 l 1
 199 576 l 1
 197 576 l 1
EndSplineSet
EndChar

StartChar: aogonek
Encoding: 261 261 187
Width: 407
Flags: MW
HStem: -147 61<301.5 370> 0 21G<11 112 11 11 355 396 355 355> 127 95<145 251 145 266 131 251> 680 20G<123 284 284 284>
VStem: 241 84<-105.5 -51>
LayerCount: 2
Fore
SplineSet
284 700 m 1
 396 0 l 1
 355 0 l 1
 330 -21 325 -44 325 -58 c 0
 325 -77 342 -86 360 -86 c 0
 380 -86 385 -83 396 -80 c 1
 396 -136 l 1
 373 -145 356 -147 328 -147 c 0
 275 -147 241 -126 241 -85 c 0
 241 -58 256 -33 288 -12 c 1
 266 127 l 1
 131 127 l 1
 112 0 l 1
 11 0 l 1
 123 700 l 1
 284 700 l 1
197 576 m 1
 145 222 l 1
 251 222 l 1
 199 576 l 1
 197 576 l 1
EndSplineSet
EndChar

StartChar: Cacute
Encoding: 262 262 188
Width: 386
Flags: MW
HStem: -8 101<180.5 215.5 180.5 249> 608 100<180.5 215.5> 737 111<205 211 137 313>
VStem: 31 110<168 532 532 539> 137 176<737 848> 255 104<161 168 168 261 112 261 464 532>
LayerCount: 2
Fore
SplineSet
255 261 m 1xd4
 359 261 l 1
 359 168 l 2
 359 56 303 -8 195 -8 c 0
 87 -8 31 56 31 168 c 2
 31 532 l 2
 31 644 87 708 195 708 c 0
 303 708 359 644 359 532 c 2
 359 464 l 1
 255 464 l 1
 255 539 l 2
 255 589 233 608 198 608 c 0
 163 608 141 589 141 539 c 2
 141 161 l 2
 141 111 163 93 198 93 c 0
 233 93 255 111 255 161 c 2
 255 261 l 1xd4
205 848 m 1x28
 313 848 l 1
 211 737 l 1
 137 737 l 1
 205 848 l 1x28
EndSplineSet
EndChar

StartChar: cacute
Encoding: 263 263 189
Width: 386
Flags: MW
HStem: -8 101<180.5 215.5 180.5 249> 608 100<180.5 215.5> 737 111<205 211 137 313>
VStem: 31 110<168 532 532 539> 137 176<737 848> 255 104<161 168 168 261 112 261 464 532>
LayerCount: 2
Fore
SplineSet
255 261 m 1xd4
 359 261 l 1
 359 168 l 2
 359 56 303 -8 195 -8 c 0
 87 -8 31 56 31 168 c 2
 31 532 l 2
 31 644 87 708 195 708 c 0
 303 708 359 644 359 532 c 2
 359 464 l 1
 255 464 l 1
 255 539 l 2
 255 589 233 608 198 608 c 0
 163 608 141 589 141 539 c 2
 141 161 l 2
 141 111 163 93 198 93 c 0
 233 93 255 111 255 161 c 2
 255 261 l 1xd4
205 848 m 1x28
 313 848 l 1
 211 737 l 1
 137 737 l 1
 205 848 l 1x28
EndSplineSet
EndChar

StartChar: Ccircumflex
Encoding: 264 264 190
Width: 386
Flags: MW
HStem: -8 101<180.5 215.5 180.5 249> 608 100<180.5 215.5> 737 111<145 150 56 244 239 239 239 244 145 333>
VStem: 31 110<168 532 532 539> 56 277<737 737> 255 104<161 168 168 261 112 261 464 532>
LayerCount: 2
Fore
SplineSet
255 261 m 1xd4
 359 261 l 1
 359 168 l 2
 359 56 303 -8 195 -8 c 0
 87 -8 31 56 31 168 c 2
 31 532 l 2
 31 644 87 708 195 708 c 0
 303 708 359 644 359 532 c 2
 359 464 l 1
 255 464 l 1
 255 539 l 2
 255 589 233 608 198 608 c 0
 163 608 141 589 141 539 c 2
 141 161 l 2
 141 111 163 93 198 93 c 0
 233 93 255 111 255 161 c 2
 255 261 l 1xd4
150 737 m 1x28
 56 737 l 1
 145 848 l 1
 244 848 l 1
 333 737 l 1
 239 737 l 1
 194 792 l 1
 150 737 l 1x28
EndSplineSet
EndChar

StartChar: ccircumflex
Encoding: 265 265 191
Width: 386
Flags: MW
HStem: -8 101<180.5 215.5 180.5 249> 608 100<180.5 215.5> 737 111<145 150 56 244 239 239 239 244 145 333>
VStem: 31 110<168 532 532 539> 56 277<737 737> 255 104<161 168 168 261 112 261 464 532>
LayerCount: 2
Fore
SplineSet
255 261 m 1xd4
 359 261 l 1
 359 168 l 2
 359 56 303 -8 195 -8 c 0
 87 -8 31 56 31 168 c 2
 31 532 l 2
 31 644 87 708 195 708 c 0
 303 708 359 644 359 532 c 2
 359 464 l 1
 255 464 l 1
 255 539 l 2
 255 589 233 608 198 608 c 0
 163 608 141 589 141 539 c 2
 141 161 l 2
 141 111 163 93 198 93 c 0
 233 93 255 111 255 161 c 2
 255 261 l 1xd4
150 737 m 1x28
 56 737 l 1
 145 848 l 1
 244 848 l 1
 333 737 l 1
 239 737 l 1
 194 792 l 1
 150 737 l 1x28
EndSplineSet
EndChar

StartChar: Cdotaccent
Encoding: 266 266 192
Width: 386
Flags: MW
HStem: -8 101<180.5 215.5 180.5 249> 608 100<180.5 215.5> 737 96<147 243 147 243>
VStem: 31 110<168 532 532 539> 147 96<737 833 737 833> 255 104<161 168 168 261 112 261 464 532>
LayerCount: 2
Fore
SplineSet
255 261 m 1
 359 261 l 1
 359 168 l 2
 359 56 303 -8 195 -8 c 0
 87 -8 31 56 31 168 c 2
 31 532 l 2
 31 644 87 708 195 708 c 0
 303 708 359 644 359 532 c 2
 359 464 l 1
 255 464 l 1
 255 539 l 2
 255 589 233 608 198 608 c 0
 163 608 141 589 141 539 c 2
 141 161 l 2
 141 111 163 93 198 93 c 0
 233 93 255 111 255 161 c 2
 255 261 l 1
147 833 m 1x28
 243 833 l 1
 243 737 l 1
 147 737 l 1
 147 833 l 1x28
EndSplineSet
EndChar

StartChar: cdotaccent
Encoding: 267 267 193
Width: 386
Flags: MW
HStem: -8 101<180.5 215.5 180.5 249> 608 100<180.5 215.5> 737 96<147 243 147 243>
VStem: 31 110<168 532 532 539> 147 96<737 833 737 833> 255 104<161 168 168 261 112 261 464 532>
LayerCount: 2
Fore
SplineSet
255 261 m 1
 359 261 l 1
 359 168 l 2
 359 56 303 -8 195 -8 c 0
 87 -8 31 56 31 168 c 2
 31 532 l 2
 31 644 87 708 195 708 c 0
 303 708 359 644 359 532 c 2
 359 464 l 1
 255 464 l 1
 255 539 l 2
 255 589 233 608 198 608 c 0
 163 608 141 589 141 539 c 2
 141 161 l 2
 141 111 163 93 198 93 c 0
 233 93 255 111 255 161 c 2
 255 261 l 1
147 833 m 1x28
 243 833 l 1
 243 737 l 1
 147 737 l 1
 147 833 l 1x28
EndSplineSet
EndChar

StartChar: Ccaron
Encoding: 268 268 194
Width: 386
Flags: MW
HStem: -8 101<180.5 215.5 180.5 249> 608 100<180.5 215.5> 737 111<145 150 239 244 145 145>
VStem: 31 110<168 532 532 539> 56 277<848 848> 255 104<161 168 168 261 112 261 464 532>
LayerCount: 2
Fore
SplineSet
255 261 m 1xd4
 359 261 l 1
 359 168 l 2
 359 56 303 -8 195 -8 c 0
 87 -8 31 56 31 168 c 2
 31 532 l 2
 31 644 87 708 195 708 c 0
 303 708 359 644 359 532 c 2
 359 464 l 1
 255 464 l 1
 255 539 l 2
 255 589 233 608 198 608 c 0
 163 608 141 589 141 539 c 2
 141 161 l 2
 141 111 163 93 198 93 c 0
 233 93 255 111 255 161 c 2
 255 261 l 1xd4
56 848 m 1x28
 150 848 l 1
 194 792 l 1
 239 848 l 1
 333 848 l 1
 244 737 l 1
 145 737 l 1
 56 848 l 1x28
EndSplineSet
EndChar

StartChar: ccaron
Encoding: 269 269 195
Width: 386
Flags: MW
HStem: -8 101<180.5 215.5 180.5 249> 608 100<180.5 215.5> 737 111<145 150 239 244 145 145>
VStem: 31 110<168 532 532 539> 56 277<848 848> 255 104<161 168 168 261 112 261 464 532>
LayerCount: 2
Fore
SplineSet
255 261 m 1xd4
 359 261 l 1
 359 168 l 2
 359 56 303 -8 195 -8 c 0
 87 -8 31 56 31 168 c 2
 31 532 l 2
 31 644 87 708 195 708 c 0
 303 708 359 644 359 532 c 2
 359 464 l 1
 255 464 l 1
 255 539 l 2
 255 589 233 608 198 608 c 0
 163 608 141 589 141 539 c 2
 141 161 l 2
 141 111 163 93 198 93 c 0
 233 93 255 111 255 161 c 2
 255 261 l 1xd4
56 848 m 1x28
 150 848 l 1
 194 792 l 1
 239 848 l 1
 333 848 l 1
 244 737 l 1
 145 737 l 1
 56 848 l 1x28
EndSplineSet
EndChar

StartChar: Dcaron
Encoding: 270 270 196
Width: 408
Flags: MW
HStem: 0 100<150 212 212 214> 600 100<150 212 150 150> 737 111<145 150 239 244 145 145>
VStem: 40 110<100 600 100 700 100 700> 56 277<848 848> 268 110<168 173 173 527>
LayerCount: 2
Fore
SplineSet
40 0 m 1xd4
 40 700 l 1
 214 700 l 2
 324 700 378 639 378 527 c 2
 378 173 l 2
 378 61 324 0 214 0 c 2
 40 0 l 1xd4
212 600 m 2
 150 600 l 1
 150 100 l 1
 212 100 l 2
 247 100 268 118 268 168 c 2
 268 532 l 2
 268 582 247 600 212 600 c 2
56 848 m 1x28
 150 848 l 1
 194 792 l 1
 239 848 l 1
 333 848 l 1
 244 737 l 1
 145 737 l 1
 56 848 l 1x28
EndSplineSet
EndChar

StartChar: dcaron
Encoding: 271 271 197
Width: 408
Flags: MW
HStem: 0 100<150 212 212 214> 600 100<150 212 150 150> 737 111<145 150 239 244 145 145>
VStem: 40 110<100 600 100 700 100 700> 56 277<848 848> 268 110<168 173 173 527>
LayerCount: 2
Fore
SplineSet
40 0 m 1xd4
 40 700 l 1
 214 700 l 2
 324 700 378 639 378 527 c 2
 378 173 l 2
 378 61 324 0 214 0 c 2
 40 0 l 1xd4
212 600 m 2
 150 600 l 1
 150 100 l 1
 212 100 l 2
 247 100 268 118 268 168 c 2
 268 532 l 2
 268 582 247 600 212 600 c 2
56 848 m 1x28
 150 848 l 1
 194 792 l 1
 239 848 l 1
 333 848 l 1
 244 737 l 1
 145 737 l 1
 56 848 l 1x28
EndSplineSet
EndChar

StartChar: Dcroat
Encoding: 272 272 198
Width: 408
Flags: MW
HStem: 0 100<150 212 212 214> 305 90<4 40 4 40 150 218> 600 100<150 212 150 150>
VStem: 40 110<100 305 100 305 100 305 395 600> 268 110<168 173 173 527>
CounterMasks: 1 e0
LayerCount: 2
Fore
SplineSet
40 0 m 1
 40 305 l 1
 4 305 l 1
 4 395 l 1
 40 395 l 1
 40 700 l 1
 214 700 l 2
 324 700 378 639 378 527 c 2
 378 173 l 2
 378 61 324 0 214 0 c 2
 40 0 l 1
212 600 m 2
 150 600 l 1
 150 395 l 1
 218 395 l 1
 218 305 l 1
 150 305 l 1
 150 100 l 1
 212 100 l 2
 247 100 268 118 268 168 c 2
 268 532 l 2
 268 582 247 600 212 600 c 2
EndSplineSet
EndChar

StartChar: dcroat
Encoding: 273 273 199
Width: 408
Flags: MW
HStem: 0 100<150 212 212 214> 305 90<4 40 4 40 150 218> 600 100<150 212 150 150>
VStem: 40 110<100 305 100 305 100 305 395 600> 268 110<168 173 173 527>
CounterMasks: 1 e0
LayerCount: 2
Fore
SplineSet
40 0 m 1
 40 305 l 1
 4 305 l 1
 4 395 l 1
 40 395 l 1
 40 700 l 1
 214 700 l 2
 324 700 378 639 378 527 c 2
 378 173 l 2
 378 61 324 0 214 0 c 2
 40 0 l 1
212 600 m 2
 150 600 l 1
 150 395 l 1
 218 395 l 1
 218 305 l 1
 150 305 l 1
 150 100 l 1
 212 100 l 2
 247 100 268 118 268 168 c 2
 268 532 l 2
 268 582 247 600 212 600 c 2
EndSplineSet
EndChar

StartChar: Emacron
Encoding: 274 274 200
Width: 368
Flags: MW
HStem: 0 100<150 340 150 340> 305 100<150 301 150 301> 600 100<150 150 150 340> 741 78<73 303 73 303>
VStem: 40 110<100 305 405 600> 73 230<741 819 741 819>
LayerCount: 2
Fore
SplineSet
150 600 m 1xe8
 150 405 l 1
 301 405 l 1
 301 305 l 1
 150 305 l 1
 150 100 l 1
 340 100 l 1
 340 0 l 1
 40 0 l 1
 40 700 l 1
 340 700 l 1
 340 600 l 1
 150 600 l 1xe8
73 819 m 1x14
 303 819 l 1
 303 741 l 1
 73 741 l 1
 73 819 l 1x14
EndSplineSet
EndChar

StartChar: emacron
Encoding: 275 275 201
Width: 368
Flags: MW
HStem: 0 100<150 340 150 340> 305 100<150 301 150 301> 600 100<150 150 150 340> 741 78<73 303 73 303>
VStem: 40 110<100 305 405 600> 73 230<741 819 741 819>
LayerCount: 2
Fore
SplineSet
150 600 m 1xe8
 150 405 l 1
 301 405 l 1
 301 305 l 1
 150 305 l 1
 150 100 l 1
 340 100 l 1
 340 0 l 1
 40 0 l 1
 40 700 l 1
 340 700 l 1
 340 600 l 1
 150 600 l 1xe8
73 819 m 1x14
 303 819 l 1
 303 741 l 1
 73 741 l 1
 73 819 l 1x14
EndSplineSet
EndChar

StartChar: Ebreve
Encoding: 276 276 202
Width: 368
Flags: MW
HStem: 0 100<150 340 150 340> 305 100<150 301 150 301> 600 100<150 150 150 340> 733 68<173 201.5 173 224.5>
VStem: 40 110<100 305 405 600> 76 65<848 848> 235 65<813 848>
LayerCount: 2
Fore
SplineSet
150 600 m 1xe8
 150 405 l 1
 301 405 l 1
 301 305 l 1
 150 305 l 1
 150 100 l 1
 340 100 l 1
 340 0 l 1
 40 0 l 1
 40 700 l 1
 340 700 l 1
 340 600 l 1
 150 600 l 1xe8
235 848 m 1x16
 300 848 l 1
 300 778 262 733 187 733 c 0
 112 733 77 778 76 848 c 1
 141 848 l 1
 144 810 159 801 187 801 c 0
 216 801 232 810 235 848 c 1x16
EndSplineSet
EndChar

StartChar: ebreve
Encoding: 277 277 203
Width: 368
Flags: MW
HStem: 0 100<150 340 150 340> 305 100<150 301 150 301> 600 100<150 150 150 340> 733 68<173 201.5 173 224.5>
VStem: 40 110<100 305 405 600> 76 65<848 848> 235 65<813 848>
LayerCount: 2
Fore
SplineSet
150 600 m 1xe8
 150 405 l 1
 301 405 l 1
 301 305 l 1
 150 305 l 1
 150 100 l 1
 340 100 l 1
 340 0 l 1
 40 0 l 1
 40 700 l 1
 340 700 l 1
 340 600 l 1
 150 600 l 1xe8
235 848 m 1x16
 300 848 l 1
 300 778 262 733 187 733 c 0
 112 733 77 778 76 848 c 1
 141 848 l 1
 144 810 159 801 187 801 c 0
 216 801 232 810 235 848 c 1x16
EndSplineSet
EndChar

StartChar: Edotaccent
Encoding: 278 278 204
Width: 368
Flags: MW
HStem: 0 100<150 340 150 340> 305 100<150 301 150 301> 600 100<150 150 150 340> 737 96<140 236 140 236>
VStem: 40 110<100 305 405 600> 140 96<737 833 737 833>
LayerCount: 2
Fore
SplineSet
150 600 m 1xe8
 150 405 l 1
 301 405 l 1
 301 305 l 1
 150 305 l 1
 150 100 l 1
 340 100 l 1
 340 0 l 1
 40 0 l 1
 40 700 l 1
 340 700 l 1
 340 600 l 1
 150 600 l 1xe8
140 833 m 1x14
 236 833 l 1
 236 737 l 1
 140 737 l 1
 140 833 l 1x14
EndSplineSet
EndChar

StartChar: edotaccent
Encoding: 279 279 205
Width: 368
Flags: MW
HStem: 0 100<150 340 150 340> 305 100<150 301 150 301> 600 100<150 150 150 340> 737 96<140 236 140 236>
VStem: 40 110<100 305 405 600> 140 96<737 833 737 833>
LayerCount: 2
Fore
SplineSet
150 600 m 1xe8
 150 405 l 1
 301 405 l 1
 301 305 l 1
 150 305 l 1
 150 100 l 1
 340 100 l 1
 340 0 l 1
 40 0 l 1
 40 700 l 1
 340 700 l 1
 340 600 l 1
 150 600 l 1xe8
140 833 m 1x14
 236 833 l 1
 236 737 l 1
 140 737 l 1
 140 833 l 1x14
EndSplineSet
EndChar

StartChar: Eogonek
Encoding: 280 280 206
Width: 368
Flags: MW
HStem: -147 61<245.5 314> 0 100<150 250 299 340 299 299> 305 100<150 301 150 301> 600 100<150 150 150 340>
VStem: 40 110<100 305 405 600> 185 84<-105.5 -51>
LayerCount: 2
Fore
SplineSet
150 600 m 1
 150 405 l 1
 301 405 l 1
 301 305 l 1
 150 305 l 1
 150 100 l 1
 340 100 l 1
 340 0 l 1
 299 0 l 1
 274 -21 269 -44 269 -58 c 0
 269 -77 286 -86 304 -86 c 0
 324 -86 329 -83 340 -80 c 1
 340 -136 l 1
 317 -145 300 -147 272 -147 c 0
 219 -147 185 -126 185 -85 c 0
 185 -53 205 -25 250 -2 c 1
 250 0 l 1
 40 0 l 1
 40 700 l 1
 340 700 l 1
 340 600 l 1
 150 600 l 1
EndSplineSet
EndChar

StartChar: eogonek
Encoding: 281 281 207
Width: 368
Flags: MW
HStem: -147 61<245.5 314> 0 100<150 250 299 340 299 299> 305 100<150 301 150 301> 600 100<150 150 150 340>
VStem: 40 110<100 305 405 600> 185 84<-105.5 -51>
LayerCount: 2
Fore
SplineSet
150 600 m 1
 150 405 l 1
 301 405 l 1
 301 305 l 1
 150 305 l 1
 150 100 l 1
 340 100 l 1
 340 0 l 1
 299 0 l 1
 274 -21 269 -44 269 -58 c 0
 269 -77 286 -86 304 -86 c 0
 324 -86 329 -83 340 -80 c 1
 340 -136 l 1
 317 -145 300 -147 272 -147 c 0
 219 -147 185 -126 185 -85 c 0
 185 -53 205 -25 250 -2 c 1
 250 0 l 1
 40 0 l 1
 40 700 l 1
 340 700 l 1
 340 600 l 1
 150 600 l 1
EndSplineSet
EndChar

StartChar: Ecaron
Encoding: 282 282 208
Width: 368
Flags: MW
HStem: 0 100<150 340 150 340> 305 100<150 301 150 301> 600 100<150 150 150 340> 737 111<138 143 232 237 138 138>
VStem: 40 110<100 305 405 600> 49 277<848 848>
LayerCount: 2
Fore
SplineSet
150 600 m 1xe8
 150 405 l 1
 301 405 l 1
 301 305 l 1
 150 305 l 1
 150 100 l 1
 340 100 l 1
 340 0 l 1
 40 0 l 1
 40 700 l 1
 340 700 l 1
 340 600 l 1
 150 600 l 1xe8
49 848 m 1x14
 143 848 l 1
 187 792 l 1
 232 848 l 1
 326 848 l 1
 237 737 l 1
 138 737 l 1
 49 848 l 1x14
EndSplineSet
EndChar

StartChar: ecaron
Encoding: 283 283 209
Width: 368
Flags: MW
HStem: 0 100<150 340 150 340> 305 100<150 301 150 301> 600 100<150 150 150 340> 737 111<138 143 232 237 138 138>
VStem: 40 110<100 305 405 600> 49 277<848 848>
LayerCount: 2
Fore
SplineSet
150 600 m 1xe8
 150 405 l 1
 301 405 l 1
 301 305 l 1
 150 305 l 1
 150 100 l 1
 340 100 l 1
 340 0 l 1
 40 0 l 1
 40 700 l 1
 340 700 l 1
 340 600 l 1
 150 600 l 1xe8
49 848 m 1x14
 143 848 l 1
 187 792 l 1
 232 848 l 1
 326 848 l 1
 237 737 l 1
 138 737 l 1
 49 848 l 1x14
EndSplineSet
EndChar

StartChar: Gcircumflex
Encoding: 284 284 210
Width: 390
Flags: MW
HStem: -8 101<180.5 215.5 180.5 249> 290 100<205 359 205 255> 608 100<180.5 215.5> 737 111<145 150 56 244 239 239 239 244 145 333>
VStem: 31 110<168 532 532 539> 56 277<737 737> 255 104<161 168 168 290 290 290 464 532>
LayerCount: 2
Fore
SplineSet
205 290 m 1xea
 205 390 l 1
 359 390 l 1
 359 168 l 2
 359 56 303 -8 195 -8 c 0
 87 -8 31 56 31 168 c 2
 31 532 l 2
 31 644 87 708 195 708 c 0
 303 708 359 644 359 532 c 2
 359 464 l 1
 255 464 l 1
 255 539 l 2
 255 589 233 608 198 608 c 0
 163 608 141 589 141 539 c 2
 141 161 l 2
 141 111 163 93 198 93 c 0
 233 93 255 111 255 161 c 2
 255 290 l 1
 205 290 l 1xea
150 737 m 1x14
 56 737 l 1
 145 848 l 1
 244 848 l 1
 333 737 l 1
 239 737 l 1
 194 792 l 1
 150 737 l 1x14
EndSplineSet
EndChar

StartChar: gcircumflex
Encoding: 285 285 211
Width: 390
Flags: MW
HStem: -8 101<180.5 215.5 180.5 249> 290 100<205 359 205 255> 608 100<180.5 215.5> 737 111<145 150 56 244 239 239 239 244 145 333>
VStem: 31 110<168 532 532 539> 56 277<737 737> 255 104<161 168 168 290 290 290 464 532>
LayerCount: 2
Fore
SplineSet
205 290 m 1xea
 205 390 l 1
 359 390 l 1
 359 168 l 2
 359 56 303 -8 195 -8 c 0
 87 -8 31 56 31 168 c 2
 31 532 l 2
 31 644 87 708 195 708 c 0
 303 708 359 644 359 532 c 2
 359 464 l 1
 255 464 l 1
 255 539 l 2
 255 589 233 608 198 608 c 0
 163 608 141 589 141 539 c 2
 141 161 l 2
 141 111 163 93 198 93 c 0
 233 93 255 111 255 161 c 2
 255 290 l 1
 205 290 l 1xea
150 737 m 1x14
 56 737 l 1
 145 848 l 1
 244 848 l 1
 333 737 l 1
 239 737 l 1
 194 792 l 1
 150 737 l 1x14
EndSplineSet
EndChar

StartChar: Gbreve
Encoding: 286 286 212
Width: 390
Flags: MW
HStem: -8 101<180.5 215.5 180.5 249> 290 100<205 359 205 255> 608 100<180.5 215.5> 733 68<179 207.5 179 230.5>
VStem: 31 110<168 532 532 539> 82 65<848 848> 241 65<813 848> 255 104<161 168 168 290 290 290 464 532>
LayerCount: 2
Fore
SplineSet
205 290 m 1xe9
 205 390 l 1
 359 390 l 1
 359 168 l 2
 359 56 303 -8 195 -8 c 0
 87 -8 31 56 31 168 c 2
 31 532 l 2
 31 644 87 708 195 708 c 0
 303 708 359 644 359 532 c 2
 359 464 l 1
 255 464 l 1
 255 539 l 2
 255 589 233 608 198 608 c 0
 163 608 141 589 141 539 c 2
 141 161 l 2
 141 111 163 93 198 93 c 0
 233 93 255 111 255 161 c 2
 255 290 l 1
 205 290 l 1xe9
241 848 m 1x16
 306 848 l 1
 306 778 268 733 193 733 c 0
 118 733 83 778 82 848 c 1
 147 848 l 1
 150 810 165 801 193 801 c 0
 222 801 238 810 241 848 c 1x16
EndSplineSet
EndChar

StartChar: gbreve
Encoding: 287 287 213
Width: 390
Flags: MW
HStem: -8 101<180.5 215.5 180.5 249> 290 100<205 359 205 255> 608 100<180.5 215.5> 733 68<179 207.5 179 230.5>
VStem: 31 110<168 532 532 539> 82 65<848 848> 241 65<813 848> 255 104<161 168 168 290 290 290 464 532>
LayerCount: 2
Fore
SplineSet
205 290 m 1xe9
 205 390 l 1
 359 390 l 1
 359 168 l 2
 359 56 303 -8 195 -8 c 0
 87 -8 31 56 31 168 c 2
 31 532 l 2
 31 644 87 708 195 708 c 0
 303 708 359 644 359 532 c 2
 359 464 l 1
 255 464 l 1
 255 539 l 2
 255 589 233 608 198 608 c 0
 163 608 141 589 141 539 c 2
 141 161 l 2
 141 111 163 93 198 93 c 0
 233 93 255 111 255 161 c 2
 255 290 l 1
 205 290 l 1xe9
241 848 m 1x16
 306 848 l 1
 306 778 268 733 193 733 c 0
 118 733 83 778 82 848 c 1
 147 848 l 1
 150 810 165 801 193 801 c 0
 222 801 238 810 241 848 c 1x16
EndSplineSet
EndChar

StartChar: Gdotaccent
Encoding: 288 288 214
Width: 390
Flags: MW
HStem: -8 101<180.5 215.5 180.5 249> 290 100<205 359 205 255> 608 100<180.5 215.5> 737 96<146 242 146 242>
VStem: 31 110<168 532 532 539> 146 96<737 833 737 833> 255 104<161 168 168 290 290 290 464 532>
LayerCount: 2
Fore
SplineSet
205 290 m 1
 205 390 l 1
 359 390 l 1
 359 168 l 2
 359 56 303 -8 195 -8 c 0
 87 -8 31 56 31 168 c 2
 31 532 l 2
 31 644 87 708 195 708 c 0
 303 708 359 644 359 532 c 2
 359 464 l 1
 255 464 l 1
 255 539 l 2
 255 589 233 608 198 608 c 0
 163 608 141 589 141 539 c 2
 141 161 l 2
 141 111 163 93 198 93 c 0
 233 93 255 111 255 161 c 2
 255 290 l 1
 205 290 l 1
146 833 m 1x14
 242 833 l 1
 242 737 l 1
 146 737 l 1
 146 833 l 1x14
EndSplineSet
EndChar

StartChar: gdotaccent
Encoding: 289 289 215
Width: 390
Flags: MW
HStem: -8 101<180.5 215.5 180.5 249> 290 100<205 359 205 255> 608 100<180.5 215.5> 737 96<146 242 146 242>
VStem: 31 110<168 532 532 539> 146 96<737 833 737 833> 255 104<161 168 168 290 290 290 464 532>
LayerCount: 2
Fore
SplineSet
205 290 m 1
 205 390 l 1
 359 390 l 1
 359 168 l 2
 359 56 303 -8 195 -8 c 0
 87 -8 31 56 31 168 c 2
 31 532 l 2
 31 644 87 708 195 708 c 0
 303 708 359 644 359 532 c 2
 359 464 l 1
 255 464 l 1
 255 539 l 2
 255 589 233 608 198 608 c 0
 163 608 141 589 141 539 c 2
 141 161 l 2
 141 111 163 93 198 93 c 0
 233 93 255 111 255 161 c 2
 255 290 l 1
 205 290 l 1
146 833 m 1x14
 242 833 l 1
 242 737 l 1
 146 737 l 1
 146 833 l 1x14
EndSplineSet
EndChar

StartChar: uni0122
Encoding: 290 290 216
Width: 390
Flags: MW
HStem: -125 92<149 185 149 241> -8 101<180.5 215.5 180.5 249> 290 100<205 359 205 255> 608 100<180.5 215.5>
VStem: 31 110<168 532 532 539> 149 92<-115 -33 -115 -33 -115 -33> 255 104<161 168 168 290 290 290 464 532>
LayerCount: 2
Fore
SplineSet
205 290 m 1
 205 390 l 1
 359 390 l 1
 359 168 l 2
 359 56 303 -8 195 -8 c 0
 87 -8 31 56 31 168 c 2
 31 532 l 2
 31 644 87 708 195 708 c 0
 303 708 359 644 359 532 c 2
 359 464 l 1
 255 464 l 1
 255 539 l 2
 255 589 233 608 198 608 c 0
 163 608 141 589 141 539 c 2
 141 161 l 2
 141 111 163 93 198 93 c 0
 233 93 255 111 255 161 c 2
 255 290 l 1
 205 290 l 1
185 -125 m 1x84
 149 -125 l 1
 149 -33 l 1
 241 -33 l 1
 241 -115 l 1
 198 -179 l 1
 159 -179 l 1
 185 -125 l 1x84
EndSplineSet
EndChar

StartChar: uni0123
Encoding: 291 291 217
Width: 390
Flags: MW
HStem: -125 92<149 185 149 241> -8 101<180.5 215.5 180.5 249> 290 100<205 359 205 255> 608 100<180.5 215.5>
VStem: 31 110<168 532 532 539> 149 92<-115 -33 -115 -33 -115 -33> 255 104<161 168 168 290 290 290 464 532>
LayerCount: 2
Fore
SplineSet
205 290 m 1
 205 390 l 1
 359 390 l 1
 359 168 l 2
 359 56 303 -8 195 -8 c 0
 87 -8 31 56 31 168 c 2
 31 532 l 2
 31 644 87 708 195 708 c 0
 303 708 359 644 359 532 c 2
 359 464 l 1
 255 464 l 1
 255 539 l 2
 255 589 233 608 198 608 c 0
 163 608 141 589 141 539 c 2
 141 161 l 2
 141 111 163 93 198 93 c 0
 233 93 255 111 255 161 c 2
 255 290 l 1
 205 290 l 1
185 -125 m 1x84
 149 -125 l 1
 149 -33 l 1
 241 -33 l 1
 241 -115 l 1
 198 -179 l 1
 159 -179 l 1
 185 -125 l 1x84
EndSplineSet
EndChar

StartChar: Hcircumflex
Encoding: 292 292 218
Width: 427
Flags: MW
HStem: 0 21G<40 150 40 40 275 275 275 387> 300 100<150 275 150 275> 680 20G<40 150 150 150 275 387 387 387> 737 111<164 169 75 263 258 258 258 263 164 352>
VStem: 40 110<0 300 0 400 400 700> 75 277<737 737> 275 112<0 300 300 300 400 700 0 700>
LayerCount: 2
Fore
SplineSet
150 300 m 1xea
 150 0 l 1
 40 0 l 1
 40 700 l 1
 150 700 l 1
 150 400 l 1
 275 400 l 1
 275 700 l 1
 387 700 l 1
 387 0 l 1
 275 0 l 1
 275 300 l 1
 150 300 l 1xea
169 737 m 1x14
 75 737 l 1
 164 848 l 1
 263 848 l 1
 352 737 l 1
 258 737 l 1
 213 792 l 1
 169 737 l 1x14
EndSplineSet
EndChar

StartChar: hcircumflex
Encoding: 293 293 219
Width: 427
Flags: MW
HStem: 0 21G<40 150 40 40 275 275 275 387> 300 100<150 275 150 275> 680 20G<40 150 150 150 275 387 387 387> 737 111<164 169 75 263 258 258 258 263 164 352>
VStem: 40 110<0 300 0 400 400 700> 75 277<737 737> 275 112<0 300 300 300 400 700 0 700>
LayerCount: 2
Fore
SplineSet
150 300 m 1xea
 150 0 l 1
 40 0 l 1
 40 700 l 1
 150 700 l 1
 150 400 l 1
 275 400 l 1
 275 700 l 1
 387 700 l 1
 387 0 l 1
 275 0 l 1
 275 300 l 1
 150 300 l 1xea
169 737 m 1x14
 75 737 l 1
 164 848 l 1
 263 848 l 1
 352 737 l 1
 258 737 l 1
 213 792 l 1
 169 737 l 1x14
EndSplineSet
EndChar

StartChar: Hbar
Encoding: 294 294 220
Width: 437
Flags: MW
HStem: 0 21G<45 155 45 45 280 280 280 392> 300 100<155 280 155 280> 502 82<10 45 10 45 155 280 392 427> 680 20G<45 155 155 155 280 392 392 392>
VStem: 45 110<0 300 400 502 584 700> 280 112<0 300 300 300 400 502 0 502 584 700>
LayerCount: 2
Fore
SplineSet
155 300 m 1
 155 0 l 1
 45 0 l 1
 45 502 l 1
 10 502 l 1
 10 584 l 1
 45 584 l 1
 45 700 l 1
 155 700 l 1
 155 584 l 1
 280 584 l 1
 280 700 l 1
 392 700 l 1
 392 584 l 1
 427 584 l 1
 427 502 l 1
 392 502 l 1
 392 0 l 1
 280 0 l 1
 280 300 l 1
 155 300 l 1
155 400 m 1
 280 400 l 1
 280 502 l 1
 155 502 l 1
 155 400 l 1
EndSplineSet
EndChar

StartChar: hbar
Encoding: 295 295 221
Width: 437
Flags: MW
HStem: 0 21G<45 155 45 45 280 280 280 392> 300 100<155 280 155 280> 502 82<10 45 10 45 155 280 392 427> 680 20G<45 155 155 155 280 392 392 392>
VStem: 45 110<0 300 400 502 584 700> 280 112<0 300 300 300 400 502 0 502 584 700>
LayerCount: 2
Fore
SplineSet
155 300 m 1
 155 0 l 1
 45 0 l 1
 45 502 l 1
 10 502 l 1
 10 584 l 1
 45 584 l 1
 45 700 l 1
 155 700 l 1
 155 584 l 1
 280 584 l 1
 280 700 l 1
 392 700 l 1
 392 584 l 1
 427 584 l 1
 427 502 l 1
 392 502 l 1
 392 0 l 1
 280 0 l 1
 280 300 l 1
 155 300 l 1
155 400 m 1
 280 400 l 1
 280 502 l 1
 155 502 l 1
 155 400 l 1
EndSplineSet
EndChar

StartChar: Itilde
Encoding: 296 296 222
Width: 190
Flags: MW
HStem: 0 21G<40 40 40 150> 680 20G<40 150 150 150> 737 76<138 146 129.5 166> 762 76<45 54 25 61.5>
VStem: -40 271<770 805> 40 110<0 700 0 700>
LayerCount: 2
Fore
SplineSet
40 0 m 1xc4
 40 700 l 1
 150 700 l 1
 150 0 l 1
 40 0 l 1xc4
135 813 m 0x28
 157 813 168 821 178 842 c 1
 231 805 l 1
 214 760 186 737 146 737 c 0x28
 130 737 116 740 93 751 c 0
 77 759 67 762 56 762 c 0
 34 762 23 754 13 733 c 1
 -40 770 l 1
 -23 815 5 838 45 838 c 0x18
 63 838 78 834 98 824 c 0
 114 816 124 813 135 813 c 0x28
EndSplineSet
EndChar

StartChar: itilde
Encoding: 297 297 223
Width: 190
Flags: MW
HStem: 0 21G<40 40 40 150> 680 20G<40 150 150 150> 737 76<138 146 129.5 166> 762 76<45 54 25 61.5>
VStem: -40 271<770 805> 40 110<0 700 0 700>
LayerCount: 2
Fore
SplineSet
40 0 m 1xc4
 40 700 l 1
 150 700 l 1
 150 0 l 1
 40 0 l 1xc4
135 813 m 0x28
 157 813 168 821 178 842 c 1
 231 805 l 1
 214 760 186 737 146 737 c 0x28
 130 737 116 740 93 751 c 0
 77 759 67 762 56 762 c 0
 34 762 23 754 13 733 c 1
 -40 770 l 1
 -23 815 5 838 45 838 c 0x18
 63 838 78 834 98 824 c 0
 114 816 124 813 135 813 c 0x28
EndSplineSet
EndChar

StartChar: Imacron
Encoding: 298 298 224
Width: 190
Flags: MW
HStem: 0 21G<40 40 40 150> 680 20G<40 150 150 150> 741 78<-20 210 -20 210>
VStem: -20 230<741 819 741 819> 40 110<0 700 0 700>
LayerCount: 2
Fore
SplineSet
40 0 m 1xc8
 40 700 l 1
 150 700 l 1
 150 0 l 1
 40 0 l 1xc8
-20 819 m 1x30
 210 819 l 1
 210 741 l 1
 -20 741 l 1
 -20 819 l 1x30
EndSplineSet
EndChar

StartChar: imacron
Encoding: 299 299 225
Width: 190
Flags: MW
HStem: 0 21G<40 40 40 150> 680 20G<40 150 150 150> 741 78<-20 210 -20 210>
VStem: -20 230<741 819 741 819> 40 110<0 700 0 700>
LayerCount: 2
Fore
SplineSet
40 0 m 1xc8
 40 700 l 1
 150 700 l 1
 150 0 l 1
 40 0 l 1xc8
-20 819 m 1x30
 210 819 l 1
 210 741 l 1
 -20 741 l 1
 -20 819 l 1x30
EndSplineSet
EndChar

StartChar: Ibreve
Encoding: 300 300 226
Width: 190
Flags: MW
HStem: 0 21G<40 40 40 150> 680 20G<40 150 150 150> 733 68<80 108.5 80 131.5>
VStem: -17 65<848 848> 40 110<0 700 0 700> 142 65<813 848>
LayerCount: 2
Fore
SplineSet
40 0 m 1xc8
 40 700 l 1
 150 700 l 1
 150 0 l 1
 40 0 l 1xc8
142 848 m 1x34
 207 848 l 1
 207 778 169 733 94 733 c 0
 19 733 -16 778 -17 848 c 1
 48 848 l 1
 51 810 66 801 94 801 c 0
 123 801 139 810 142 848 c 1x34
EndSplineSet
EndChar

StartChar: ibreve
Encoding: 301 301 227
Width: 190
Flags: MW
HStem: 0 21G<40 40 40 150> 680 20G<40 150 150 150> 733 68<80 108.5 80 131.5>
VStem: -17 65<848 848> 40 110<0 700 0 700> 142 65<813 848>
LayerCount: 2
Fore
SplineSet
40 0 m 1xc8
 40 700 l 1
 150 700 l 1
 150 0 l 1
 40 0 l 1xc8
142 848 m 1x34
 207 848 l 1
 207 778 169 733 94 733 c 0
 19 733 -16 778 -17 848 c 1
 48 848 l 1
 51 810 66 801 94 801 c 0
 123 801 139 810 142 848 c 1x34
EndSplineSet
EndChar

StartChar: Iogonek
Encoding: 302 302 228
Width: 190
Flags: MW
HStem: -147 61<76.5 145> 0 21G<40 40 40 81 130 130 130 150> 680 20G<40 150 150 150>
VStem: 16 84<-105.5 -51> 40 110<0 700 0 700>
LayerCount: 2
Fore
SplineSet
40 0 m 1xe8
 40 700 l 1
 150 700 l 1
 150 0 l 1xe8
 130 0 l 1
 105 -21 100 -44 100 -58 c 0
 100 -77 117 -86 135 -86 c 0
 155 -86 160 -83 171 -80 c 1
 171 -136 l 1
 148 -145 131 -147 103 -147 c 0
 50 -147 16 -126 16 -85 c 0xf0
 16 -53 36 -25 81 -2 c 1
 81 0 l 1
 40 0 l 1xe8
EndSplineSet
EndChar

StartChar: iogonek
Encoding: 303 303 229
Width: 190
Flags: MW
HStem: -147 61<76.5 145> 0 21G<40 40 40 81 130 130 130 150> 680 20G<40 150 150 150>
VStem: 16 84<-105.5 -51> 40 110<0 700 0 700>
LayerCount: 2
Fore
SplineSet
40 0 m 1xe8
 40 700 l 1
 150 700 l 1
 150 0 l 1xe8
 130 0 l 1
 105 -21 100 -44 100 -58 c 0
 100 -77 117 -86 135 -86 c 0
 155 -86 160 -83 171 -80 c 1
 171 -136 l 1
 148 -145 131 -147 103 -147 c 0
 50 -147 16 -126 16 -85 c 0xf0
 16 -53 36 -25 81 -2 c 1
 81 0 l 1
 40 0 l 1xe8
EndSplineSet
EndChar

StartChar: Idotaccent
Encoding: 304 304 230
Width: 190
Flags: MW
HStem: 0 21G<40 40 40 150> 680 20G<40 150 150 150> 737 96<47 143 47 143>
VStem: 40 110<0 700 0 700> 47 96<737 833 737 833>
LayerCount: 2
Fore
SplineSet
40 0 m 1xd0
 40 700 l 1
 150 700 l 1
 150 0 l 1
 40 0 l 1xd0
47 833 m 1x28
 143 833 l 1
 143 737 l 1
 47 737 l 1
 47 833 l 1x28
EndSplineSet
EndChar

StartChar: dotlessi
Encoding: 305 305 231
Width: 190
Flags: MW
HStem: 0 21G<40 40 40 150> 680 20G<40 150 150 150>
VStem: 40 110<0 700 0 700>
LayerCount: 2
Fore
SplineSet
40 0 m 1
 40 700 l 1
 150 700 l 1
 150 0 l 1
 40 0 l 1
EndSplineSet
EndChar

StartChar: IJ
Encoding: 306 306 232
Width: 446
Flags: MW
HStem: -2 101<243 255.5 232 294.5> 0 21G<40 40 40 150 200 200> 680 20G<40 150 150 150 301 411 411 411>
VStem: 40 110<0 700 0 700> 301 110<166 174 174 700>
LayerCount: 2
Fore
SplineSet
40 0 m 1x70
 40 700 l 1
 150 700 l 1
 150 0 l 1
 40 0 l 1x70
200 0 m 1xa8
 200 100 l 1
 212 99 226 99 238 99 c 0
 273 99 301 112 301 166 c 2
 301 700 l 1
 411 700 l 1
 411 174 l 2
 411 34 336 -2 253 -2 c 0
 233 -2 218 -2 200 0 c 1xa8
EndSplineSet
EndChar

StartChar: ij
Encoding: 307 307 233
Width: 446
Flags: MW
HStem: -2 101<243 255.5 232 294.5> 0 21G<40 40 40 150 200 200> 680 20G<40 150 150 150 301 411 411 411>
VStem: 40 110<0 700 0 700> 301 110<166 174 174 700>
LayerCount: 2
Fore
SplineSet
40 0 m 1x70
 40 700 l 1
 150 700 l 1
 150 0 l 1
 40 0 l 1x70
200 0 m 1xa8
 200 100 l 1
 212 99 226 99 238 99 c 0
 273 99 301 112 301 166 c 2
 301 700 l 1
 411 700 l 1
 411 174 l 2
 411 34 336 -2 253 -2 c 0
 233 -2 218 -2 200 0 c 1xa8
EndSplineSet
EndChar

StartChar: Jcircumflex
Encoding: 308 308 234
Width: 256
Flags: MW
HStem: -2 101<53 65.5 42 104.5> 680 20G<111 221 221 221> 737 111<98 103 9 197 192 192 192 197 98 286>
VStem: 9 277<737 737> 111 110<166 174 174 700>
LayerCount: 2
Fore
SplineSet
10 0 m 1xc8
 10 100 l 1
 22 99 36 99 48 99 c 0
 83 99 111 112 111 166 c 2
 111 700 l 1
 221 700 l 1
 221 174 l 2
 221 34 146 -2 63 -2 c 0
 43 -2 28 -2 10 0 c 1xc8
103 737 m 1x30
 9 737 l 1
 98 848 l 1
 197 848 l 1
 286 737 l 1
 192 737 l 1
 147 792 l 1
 103 737 l 1x30
EndSplineSet
EndChar

StartChar: jcircumflex
Encoding: 309 309 235
Width: 256
Flags: MW
HStem: -2 101<53 65.5 42 104.5> 680 20G<111 221 221 221> 737 111<98 103 9 197 192 192 192 197 98 286>
VStem: 9 277<737 737> 111 110<166 174 174 700>
LayerCount: 2
Fore
SplineSet
10 0 m 1xc8
 10 100 l 1
 22 99 36 99 48 99 c 0
 83 99 111 112 111 166 c 2
 111 700 l 1
 221 700 l 1
 221 174 l 2
 221 34 146 -2 63 -2 c 0
 43 -2 28 -2 10 0 c 1xc8
103 737 m 1x30
 9 737 l 1
 98 848 l 1
 197 848 l 1
 286 737 l 1
 192 737 l 1
 147 792 l 1
 103 737 l 1x30
EndSplineSet
EndChar

StartChar: uni0136
Encoding: 310 310 236
Width: 414
Flags: MW
HStem: -125 92<169 205 169 261> 0 21G<40 150 40 40 291 404 291 291> 680 20G<40 150 150 150 294 404 404 404>
VStem: 40 110<0 215 397 700> 169 92<-115 -33 -115 -33 -115 -33>
LayerCount: 2
Fore
SplineSet
291 0 m 1
 184 279 l 1
 150 215 l 1
 150 0 l 1
 40 0 l 1
 40 700 l 1
 150 700 l 1
 150 397 l 1
 152 397 l 1
 294 700 l 1
 404 700 l 1
 251 388 l 1
 404 0 l 1
 291 0 l 1
205 -125 m 1x88
 169 -125 l 1
 169 -33 l 1
 261 -33 l 1
 261 -115 l 1
 218 -179 l 1
 179 -179 l 1
 205 -125 l 1x88
EndSplineSet
EndChar

StartChar: uni0137
Encoding: 311 311 237
Width: 414
Flags: MW
HStem: -125 92<169 205 169 261> 0 21G<40 150 40 40 291 404 291 291> 680 20G<40 150 150 150 294 404 404 404>
VStem: 40 110<0 215 397 700> 169 92<-115 -33 -115 -33 -115 -33>
LayerCount: 2
Fore
SplineSet
291 0 m 1
 184 279 l 1
 150 215 l 1
 150 0 l 1
 40 0 l 1
 40 700 l 1
 150 700 l 1
 150 397 l 1
 152 397 l 1
 294 700 l 1
 404 700 l 1
 251 388 l 1
 404 0 l 1
 291 0 l 1
205 -125 m 1x88
 169 -125 l 1
 169 -33 l 1
 261 -33 l 1
 261 -115 l 1
 218 -179 l 1
 179 -179 l 1
 205 -125 l 1x88
EndSplineSet
EndChar

StartChar: kgreenlandic
Encoding: 312 312 238
Width: 414
Flags: MW
HStem: 0 21G<40 150 40 40 291 404 291 291> 680 20G<40 150 150 150 294 404 404 404>
VStem: 40 110<0 215 397 700>
LayerCount: 2
Fore
SplineSet
291 0 m 1
 184 279 l 1
 150 215 l 1
 150 0 l 1
 40 0 l 1
 40 700 l 1
 150 700 l 1
 150 397 l 1
 152 397 l 1
 294 700 l 1
 404 700 l 1
 251 388 l 1
 404 0 l 1
 291 0 l 1
EndSplineSet
EndChar

StartChar: Lacute
Encoding: 313 313 239
Width: 339
Flags: MW
HStem: 0 100<150 331 150 331> 680 20G<40 150 150 150> 737 111<140 146 72 248>
VStem: 40 110<100 700 100 700 100 700> 72 176<737 848>
LayerCount: 2
Fore
SplineSet
40 0 m 1xd0
 40 700 l 1
 150 700 l 1
 150 100 l 1
 331 100 l 1
 331 0 l 1
 40 0 l 1xd0
140 848 m 1x28
 248 848 l 1
 146 737 l 1
 72 737 l 1
 140 848 l 1x28
EndSplineSet
EndChar

StartChar: lacute
Encoding: 314 314 240
Width: 339
Flags: MW
HStem: 0 100<150 331 150 331> 680 20G<40 150 150 150> 737 111<140 146 72 248>
VStem: 40 110<100 700 100 700 100 700> 72 176<737 848>
LayerCount: 2
Fore
SplineSet
40 0 m 1xd0
 40 700 l 1
 150 700 l 1
 150 100 l 1
 331 100 l 1
 331 0 l 1
 40 0 l 1xd0
140 848 m 1x28
 248 848 l 1
 146 737 l 1
 72 737 l 1
 140 848 l 1x28
EndSplineSet
EndChar

StartChar: uni013B
Encoding: 315 315 241
Width: 339
Flags: MW
HStem: -125 92<140 176 140 232> 0 100<150 331 150 331> 680 20G<40 150 150 150>
VStem: 40 110<100 700> 140 92<-115 -33 -115 -33 -115 -33>
LayerCount: 2
Fore
SplineSet
40 0 m 1x70
 40 700 l 1
 150 700 l 1
 150 100 l 1
 331 100 l 1
 331 0 l 1
 40 0 l 1x70
176 -125 m 1x88
 140 -125 l 1
 140 -33 l 1
 232 -33 l 1
 232 -115 l 1
 189 -179 l 1
 150 -179 l 1
 176 -125 l 1x88
EndSplineSet
EndChar

StartChar: uni013C
Encoding: 316 316 242
Width: 339
Flags: MW
HStem: -125 92<140 176 140 232> 0 100<150 331 150 331> 680 20G<40 150 150 150>
VStem: 40 110<100 700> 140 92<-115 -33 -115 -33 -115 -33>
LayerCount: 2
Fore
SplineSet
40 0 m 1x70
 40 700 l 1
 150 700 l 1
 150 100 l 1
 331 100 l 1
 331 0 l 1
 40 0 l 1x70
176 -125 m 1x88
 140 -125 l 1
 140 -33 l 1
 232 -33 l 1
 232 -115 l 1
 189 -179 l 1
 150 -179 l 1
 176 -125 l 1x88
EndSplineSet
EndChar

StartChar: Lcaron
Encoding: 317 317 243
Width: 339
Flags: MW
HStem: 0 100<150 331 150 331> 494 21G<224 269 224 224> 594 106<211 253 40 211> 680 20G<40 150 150 150 211 317 317 317>
VStem: 40 110<100 700 100 700 100 700> 211 106<605 700 605 700 605 700>
LayerCount: 2
Fore
SplineSet
40 0 m 1x98
 40 700 l 1
 150 700 l 1
 150 100 l 1
 331 100 l 1
 331 0 l 1
 40 0 l 1x98
253 594 m 1x64
 211 594 l 1
 211 700 l 1
 317 700 l 1
 317 605 l 1
 269 494 l 1
 224 494 l 1
 253 594 l 1x64
EndSplineSet
EndChar

StartChar: lcaron
Encoding: 318 318 244
Width: 339
Flags: MW
HStem: 0 100<150 331 150 331> 494 21G<224 269 224 224> 594 106<211 253 40 211> 680 20G<40 150 150 150 211 317 317 317>
VStem: 40 110<100 700 100 700 100 700> 211 106<605 700 605 700 605 700>
LayerCount: 2
Fore
SplineSet
40 0 m 1x98
 40 700 l 1
 150 700 l 1
 150 100 l 1
 331 100 l 1
 331 0 l 1
 40 0 l 1x98
253 594 m 1x64
 211 594 l 1
 211 700 l 1
 317 700 l 1
 317 605 l 1
 269 494 l 1
 224 494 l 1
 253 594 l 1x64
EndSplineSet
EndChar

StartChar: Ldot
Encoding: 319 319 245
Width: 339
Flags: MW
HStem: 0 100<150 331 150 331> 297 106<210 316 210 316> 680 20G<40 150 150 150>
VStem: 40 110<100 700 100 700 100 700> 210 106<297 403 297 403>
LayerCount: 2
Fore
SplineSet
40 0 m 1
 40 700 l 1
 150 700 l 1
 150 100 l 1
 331 100 l 1
 331 0 l 1
 40 0 l 1
210 403 m 1x48
 316 403 l 1
 316 297 l 1
 210 297 l 1
 210 403 l 1x48
EndSplineSet
EndChar

StartChar: ldot
Encoding: 320 320 246
Width: 339
Flags: MW
HStem: 0 100<150 331 150 331> 297 106<210 316 210 316> 680 20G<40 150 150 150>
VStem: 40 110<100 700 100 700 100 700> 210 106<297 403 297 403>
LayerCount: 2
Fore
SplineSet
40 0 m 1
 40 700 l 1
 150 700 l 1
 150 100 l 1
 331 100 l 1
 331 0 l 1
 40 0 l 1
210 403 m 1x48
 316 403 l 1
 316 297 l 1
 210 297 l 1
 210 403 l 1x48
EndSplineSet
EndChar

StartChar: Lslash
Encoding: 321 321 247
Width: 348
Flags: MW
HStem: 0 100<159 340 159 340> 680 20G<49 159 159 159>
VStem: 49 110<100 147 147 147 247 265 365 700>
LayerCount: 2
Fore
SplineSet
0 95 m 1
 0 195 l 1
 49 247 l 1
 49 700 l 1
 159 700 l 1
 159 365 l 1
 280 495 l 1
 280 395 l 1
 159 265 l 1
 159 100 l 1
 340 100 l 1
 340 0 l 1
 49 0 l 1
 49 147 l 1
 0 95 l 1
EndSplineSet
EndChar

StartChar: lslash
Encoding: 322 322 248
Width: 348
Flags: MW
HStem: 0 100<159 340 159 340> 680 20G<49 159 159 159>
VStem: 49 110<100 147 147 147 247 265 365 700>
LayerCount: 2
Fore
SplineSet
0 95 m 1
 0 195 l 1
 49 247 l 1
 49 700 l 1
 159 700 l 1
 159 365 l 1
 280 495 l 1
 280 395 l 1
 159 265 l 1
 159 100 l 1
 340 100 l 1
 340 0 l 1
 49 0 l 1
 49 147 l 1
 0 95 l 1
EndSplineSet
EndChar

StartChar: Nacute
Encoding: 323 323 249
Width: 427
Flags: MW
HStem: 0 21G<39 138 39 39 275 388 275 275> 680 20G<39 177 177 177 290 388 388 388> 737 111<223 229 155 331>
VStem: 39 99<0 507 0 700> 155 176<737 848> 290 98<281 700 0 700>
LayerCount: 2
Fore
SplineSet
275 0 m 1xd4
 140 507 l 1
 138 507 l 1
 138 0 l 1
 39 0 l 1
 39 700 l 1
 177 700 l 1
 288 281 l 1
 290 281 l 1
 290 700 l 1
 388 700 l 1
 388 0 l 1
 275 0 l 1xd4
223 848 m 1x28
 331 848 l 1
 229 737 l 1
 155 737 l 1
 223 848 l 1x28
EndSplineSet
EndChar

StartChar: nacute
Encoding: 324 324 250
Width: 427
Flags: MW
HStem: 0 21G<39 138 39 39 275 388 275 275> 680 20G<39 177 177 177 290 388 388 388> 737 111<223 229 155 331>
VStem: 39 99<0 507 0 700> 155 176<737 848> 290 98<281 700 0 700>
LayerCount: 2
Fore
SplineSet
275 0 m 1xd4
 140 507 l 1
 138 507 l 1
 138 0 l 1
 39 0 l 1
 39 700 l 1
 177 700 l 1
 288 281 l 1
 290 281 l 1
 290 700 l 1
 388 700 l 1
 388 0 l 1
 275 0 l 1xd4
223 848 m 1x28
 331 848 l 1
 229 737 l 1
 155 737 l 1
 223 848 l 1x28
EndSplineSet
EndChar

StartChar: uni0145
Encoding: 325 325 251
Width: 427
Flags: MW
HStem: -125 92<167 203 167 259> 0 21G<39 138 39 39 275 388 275 275> 680 20G<39 177 177 177 290 388 388 388>
VStem: 39 99<0 507 0 700> 167 92<-115 -33 -115 -33 -115 -33> 290 98<281 700 0 700>
LayerCount: 2
Fore
SplineSet
275 0 m 1
 140 507 l 1
 138 507 l 1
 138 0 l 1
 39 0 l 1
 39 700 l 1
 177 700 l 1
 288 281 l 1
 290 281 l 1
 290 700 l 1
 388 700 l 1
 388 0 l 1
 275 0 l 1
203 -125 m 1x88
 167 -125 l 1
 167 -33 l 1
 259 -33 l 1
 259 -115 l 1
 216 -179 l 1
 177 -179 l 1
 203 -125 l 1x88
EndSplineSet
EndChar

StartChar: uni0146
Encoding: 326 326 252
Width: 427
Flags: MW
HStem: -125 92<167 203 167 259> 0 21G<39 138 39 39 275 388 275 275> 680 20G<39 177 177 177 290 388 388 388>
VStem: 39 99<0 507 0 700> 167 92<-115 -33 -115 -33 -115 -33> 290 98<281 700 0 700>
LayerCount: 2
Fore
SplineSet
275 0 m 1
 140 507 l 1
 138 507 l 1
 138 0 l 1
 39 0 l 1
 39 700 l 1
 177 700 l 1
 288 281 l 1
 290 281 l 1
 290 700 l 1
 388 700 l 1
 388 0 l 1
 275 0 l 1
203 -125 m 1x88
 167 -125 l 1
 167 -33 l 1
 259 -33 l 1
 259 -115 l 1
 216 -179 l 1
 177 -179 l 1
 203 -125 l 1x88
EndSplineSet
EndChar

StartChar: Ncaron
Encoding: 327 327 253
Width: 427
Flags: MW
HStem: 0 21G<39 138 39 39 275 388 275 275> 680 20G<39 177 177 177 290 388 388 388> 737 111<164 169 258 263 164 164>
VStem: 39 99<0 507 0 700> 75 277<848 848> 290 98<281 700 0 700>
LayerCount: 2
Fore
SplineSet
275 0 m 1xd4
 140 507 l 1
 138 507 l 1
 138 0 l 1
 39 0 l 1
 39 700 l 1
 177 700 l 1
 288 281 l 1
 290 281 l 1
 290 700 l 1
 388 700 l 1
 388 0 l 1
 275 0 l 1xd4
75 848 m 1x28
 169 848 l 1
 213 792 l 1
 258 848 l 1
 352 848 l 1
 263 737 l 1
 164 737 l 1
 75 848 l 1x28
EndSplineSet
EndChar

StartChar: ncaron
Encoding: 328 328 254
Width: 427
Flags: MW
HStem: 0 21G<39 138 39 39 275 388 275 275> 680 20G<39 177 177 177 290 388 388 388> 737 111<164 169 258 263 164 164>
VStem: 39 99<0 507 0 700> 75 277<848 848> 290 98<281 700 0 700>
LayerCount: 2
Fore
SplineSet
275 0 m 1xd4
 140 507 l 1
 138 507 l 1
 138 0 l 1
 39 0 l 1
 39 700 l 1
 177 700 l 1
 288 281 l 1
 290 281 l 1
 290 700 l 1
 388 700 l 1
 388 0 l 1
 275 0 l 1xd4
75 848 m 1x28
 169 848 l 1
 213 792 l 1
 258 848 l 1
 352 848 l 1
 263 737 l 1
 164 737 l 1
 75 848 l 1x28
EndSplineSet
EndChar

StartChar: napostrophe
Encoding: 329 329 255
Width: 543
Flags: MW
HStem: 0 21G<155 254 155 155 391 504 391 391> 494 21G<18 63 18 18> 594 106<5 47 5 111> 680 20G<5 111 111 111 155 293 293 293 406 504 504 504>
VStem: 5 106<605 700 605 700 605 700> 155 99<0 507 0 700> 406 98<281 700 0 700>
LayerCount: 2
Fore
SplineSet
391 0 m 1x96
 256 507 l 1
 254 507 l 1
 254 0 l 1
 155 0 l 1
 155 700 l 1
 293 700 l 1
 404 281 l 1
 406 281 l 1
 406 700 l 1
 504 700 l 1
 504 0 l 1
 391 0 l 1x96
47 594 m 1x68
 5 594 l 1
 5 700 l 1
 111 700 l 1
 111 605 l 1
 63 494 l 1
 18 494 l 1
 47 594 l 1x68
EndSplineSet
EndChar

StartChar: Omacron
Encoding: 332 332 256
Width: 396
Flags: MW
HStem: -8 100<180.5 215.5 180.5 252> 608 100<180.5 215.5> 741 78<83 313 83 313>
VStem: 31 110<168 532 532 539> 83 230<741 819 741 819> 255 110<161 168 168 532>
LayerCount: 2
Fore
SplineSet
141 539 m 2xd4
 141 161 l 2
 141 111 163 92 198 92 c 0
 233 92 255 111 255 161 c 2
 255 539 l 2
 255 589 233 608 198 608 c 0
 163 608 141 589 141 539 c 2xd4
31 168 m 2
 31 532 l 2
 31 644 90 708 198 708 c 0
 306 708 365 644 365 532 c 2
 365 168 l 2
 365 56 306 -8 198 -8 c 0
 90 -8 31 56 31 168 c 2
83 819 m 1x28
 313 819 l 1
 313 741 l 1
 83 741 l 1
 83 819 l 1x28
EndSplineSet
EndChar

StartChar: omacron
Encoding: 333 333 257
Width: 396
Flags: MW
HStem: -8 100<180.5 215.5 180.5 252> 608 100<180.5 215.5> 741 78<83 313 83 313>
VStem: 31 110<168 532 532 539> 83 230<741 819 741 819> 255 110<161 168 168 532>
LayerCount: 2
Fore
SplineSet
141 539 m 2xd4
 141 161 l 2
 141 111 163 92 198 92 c 0
 233 92 255 111 255 161 c 2
 255 539 l 2
 255 589 233 608 198 608 c 0
 163 608 141 589 141 539 c 2xd4
31 168 m 2
 31 532 l 2
 31 644 90 708 198 708 c 0
 306 708 365 644 365 532 c 2
 365 168 l 2
 365 56 306 -8 198 -8 c 0
 90 -8 31 56 31 168 c 2
83 819 m 1x28
 313 819 l 1
 313 741 l 1
 83 741 l 1
 83 819 l 1x28
EndSplineSet
EndChar

StartChar: Obreve
Encoding: 334 334 258
Width: 396
Flags: MW
HStem: -8 100<180.5 215.5 180.5 252> 608 100<180.5 215.5> 733 68<183 211.5 183 234.5>
VStem: 31 110<168 532 532 539> 86 65<848 848> 245 65<813 848> 255 110<161 168 168 532>
LayerCount: 2
Fore
SplineSet
141 539 m 2xd2
 141 161 l 2
 141 111 163 92 198 92 c 0
 233 92 255 111 255 161 c 2
 255 539 l 2
 255 589 233 608 198 608 c 0
 163 608 141 589 141 539 c 2xd2
31 168 m 2
 31 532 l 2
 31 644 90 708 198 708 c 0
 306 708 365 644 365 532 c 2
 365 168 l 2
 365 56 306 -8 198 -8 c 0
 90 -8 31 56 31 168 c 2
245 848 m 1x2c
 310 848 l 1
 310 778 272 733 197 733 c 0
 122 733 87 778 86 848 c 1
 151 848 l 1
 154 810 169 801 197 801 c 0
 226 801 242 810 245 848 c 1x2c
EndSplineSet
EndChar

StartChar: obreve
Encoding: 335 335 259
Width: 396
Flags: MW
HStem: -8 100<180.5 215.5 180.5 252> 608 100<180.5 215.5> 733 68<183 211.5 183 234.5>
VStem: 31 110<168 532 532 539> 86 65<848 848> 245 65<813 848> 255 110<161 168 168 532>
LayerCount: 2
Fore
SplineSet
141 539 m 2xd2
 141 161 l 2
 141 111 163 92 198 92 c 0
 233 92 255 111 255 161 c 2
 255 539 l 2
 255 589 233 608 198 608 c 0
 163 608 141 589 141 539 c 2xd2
31 168 m 2
 31 532 l 2
 31 644 90 708 198 708 c 0
 306 708 365 644 365 532 c 2
 365 168 l 2
 365 56 306 -8 198 -8 c 0
 90 -8 31 56 31 168 c 2
245 848 m 1x2c
 310 848 l 1
 310 778 272 733 197 733 c 0
 122 733 87 778 86 848 c 1
 151 848 l 1
 154 810 169 801 197 801 c 0
 226 801 242 810 245 848 c 1x2c
EndSplineSet
EndChar

StartChar: Ohungarumlaut
Encoding: 336 336 260
Width: 396
Flags: MW
HStem: -8 100<180.5 215.5 180.5 252> 608 100<180.5 215.5> 737 111<132 149 82 232 213 213 213 232 262 279>
VStem: 31 110<168 532 532 539> 82 281<737 848> 255 110<161 168 168 532>
LayerCount: 2
Fore
SplineSet
141 539 m 2xd4
 141 161 l 2
 141 111 163 92 198 92 c 0
 233 92 255 111 255 161 c 2
 255 539 l 2
 255 589 233 608 198 608 c 0
 163 608 141 589 141 539 c 2xd4
31 168 m 2
 31 532 l 2
 31 644 90 708 198 708 c 0
 306 708 365 644 365 532 c 2
 365 168 l 2
 365 56 306 -8 198 -8 c 0
 90 -8 31 56 31 168 c 2
132 848 m 1x28
 232 848 l 1
 149 737 l 1
 82 737 l 1
 132 848 l 1x28
262 848 m 1
 363 848 l 1
 279 737 l 1
 213 737 l 1
 262 848 l 1
EndSplineSet
EndChar

StartChar: ohungarumlaut
Encoding: 337 337 261
Width: 396
Flags: MW
HStem: -8 100<180.5 215.5 180.5 252> 608 100<180.5 215.5> 737 111<132 149 82 232 213 213 213 232 262 279>
VStem: 31 110<168 532 532 539> 82 281<737 848> 255 110<161 168 168 532>
LayerCount: 2
Fore
SplineSet
141 539 m 2xd4
 141 161 l 2
 141 111 163 92 198 92 c 0
 233 92 255 111 255 161 c 2
 255 539 l 2
 255 589 233 608 198 608 c 0
 163 608 141 589 141 539 c 2xd4
31 168 m 2
 31 532 l 2
 31 644 90 708 198 708 c 0
 306 708 365 644 365 532 c 2
 365 168 l 2
 365 56 306 -8 198 -8 c 0
 90 -8 31 56 31 168 c 2
132 848 m 1x28
 232 848 l 1
 149 737 l 1
 82 737 l 1
 132 848 l 1x28
262 848 m 1
 363 848 l 1
 279 737 l 1
 213 737 l 1
 262 848 l 1
EndSplineSet
EndChar

StartChar: OE
Encoding: 338 338 262
Width: 586
Flags: MW
HStem: 0 100<139 258 196 258 368 558> 305 100<368 519 368 519> 600 100<194 196 196 258 368 368 368 558>
VStem: 30 110<173 527 527 532> 258 110<100 305 405 600>
LayerCount: 2
Fore
SplineSet
368 600 m 1
 368 405 l 1
 519 405 l 1
 519 305 l 1
 368 305 l 1
 368 100 l 1
 558 100 l 1
 558 0 l 1
 194 0 l 2
 84 0 30 61 30 173 c 2
 30 527 l 2
 30 639 84 700 194 700 c 2
 558 700 l 1
 558 600 l 1
 368 600 l 1
258 100 m 1
 258 600 l 1
 196 600 l 2
 161 600 140 582 140 532 c 2
 140 168 l 2
 140 118 161 100 196 100 c 2
 258 100 l 1
EndSplineSet
EndChar

StartChar: oe
Encoding: 339 339 263
Width: 586
Flags: MW
HStem: 0 100<139 258 196 258 368 558> 305 100<368 519 368 519> 600 100<194 196 196 258 368 368 368 558>
VStem: 30 110<173 527 527 532> 258 110<100 305 405 600>
LayerCount: 2
Fore
SplineSet
368 600 m 1
 368 405 l 1
 519 405 l 1
 519 305 l 1
 368 305 l 1
 368 100 l 1
 558 100 l 1
 558 0 l 1
 194 0 l 2
 84 0 30 61 30 173 c 2
 30 527 l 2
 30 639 84 700 194 700 c 2
 558 700 l 1
 558 600 l 1
 368 600 l 1
258 100 m 1
 258 600 l 1
 196 600 l 2
 161 600 140 582 140 532 c 2
 140 168 l 2
 140 118 161 100 196 100 c 2
 258 100 l 1
EndSplineSet
EndChar

StartChar: Racute
Encoding: 340 340 264
Width: 402
Flags: MW
HStem: 0 21G<40 150 40 40 270 382 270 270> 285 100<150 188 150 193> 600 100<150 203 150 150> 737 111<205 211 137 313>
VStem: 40 110<0 285 0 385 385 600> 137 176<737 848> 260 110<86 193 68 196>
LayerCount: 2
Fore
SplineSet
382 0 m 1xea
 270 0 l 1
 264 18 260 29 260 86 c 2
 260 196 l 2
 260 261 238 285 188 285 c 2
 150 285 l 1
 150 0 l 1
 40 0 l 1
 40 700 l 1
 206 700 l 2
 320 700 369 647 369 539 c 2
 369 484 l 2
 369 412 346 366 297 343 c 1
 297 341 l 1
 352 318 370 266 370 193 c 2
 370 85 l 2
 370 51 371 26 382 0 c 1xea
203 600 m 2
 150 600 l 1
 150 385 l 1
 193 385 l 2
 234 385 259 403 259 459 c 2
 259 528 l 2
 259 578 242 600 203 600 c 2
205 848 m 1x14
 313 848 l 1
 211 737 l 1
 137 737 l 1
 205 848 l 1x14
EndSplineSet
EndChar

StartChar: racute
Encoding: 341 341 265
Width: 402
Flags: MW
HStem: 0 21G<40 150 40 40 270 382 270 270> 285 100<150 188 150 193> 600 100<150 203 150 150> 737 111<205 211 137 313>
VStem: 40 110<0 285 0 385 385 600> 137 176<737 848> 260 110<86 193 68 196>
LayerCount: 2
Fore
SplineSet
382 0 m 1xea
 270 0 l 1
 264 18 260 29 260 86 c 2
 260 196 l 2
 260 261 238 285 188 285 c 2
 150 285 l 1
 150 0 l 1
 40 0 l 1
 40 700 l 1
 206 700 l 2
 320 700 369 647 369 539 c 2
 369 484 l 2
 369 412 346 366 297 343 c 1
 297 341 l 1
 352 318 370 266 370 193 c 2
 370 85 l 2
 370 51 371 26 382 0 c 1xea
203 600 m 2
 150 600 l 1
 150 385 l 1
 193 385 l 2
 234 385 259 403 259 459 c 2
 259 528 l 2
 259 578 242 600 203 600 c 2
205 848 m 1x14
 313 848 l 1
 211 737 l 1
 137 737 l 1
 205 848 l 1x14
EndSplineSet
EndChar

StartChar: uni0156
Encoding: 342 342 266
Width: 402
Flags: MW
HStem: -125 92<157 193 157 249> 0 21G<40 150 40 40 270 382 270 270> 285 100<150 188 150 193> 600 100<150 203 150 150>
VStem: 40 110<0 285 0 385 385 600> 157 92<-115 -33 -115 -33 -115 -33> 260 110<86 193 68 196>
LayerCount: 2
Fore
SplineSet
382 0 m 1
 270 0 l 1
 264 18 260 29 260 86 c 2
 260 196 l 2
 260 261 238 285 188 285 c 2
 150 285 l 1
 150 0 l 1
 40 0 l 1
 40 700 l 1
 206 700 l 2
 320 700 369 647 369 539 c 2
 369 484 l 2
 369 412 346 366 297 343 c 1
 297 341 l 1
 352 318 370 266 370 193 c 2
 370 85 l 2
 370 51 371 26 382 0 c 1
203 600 m 2
 150 600 l 1
 150 385 l 1
 193 385 l 2
 234 385 259 403 259 459 c 2
 259 528 l 2
 259 578 242 600 203 600 c 2
193 -125 m 1x84
 157 -125 l 1
 157 -33 l 1
 249 -33 l 1
 249 -115 l 1
 206 -179 l 1
 167 -179 l 1
 193 -125 l 1x84
EndSplineSet
EndChar

StartChar: uni0157
Encoding: 343 343 267
Width: 402
Flags: MW
HStem: -125 92<157 193 157 249> 0 21G<40 150 40 40 270 382 270 270> 285 100<150 188 150 193> 600 100<150 203 150 150>
VStem: 40 110<0 285 0 385 385 600> 157 92<-115 -33 -115 -33 -115 -33> 260 110<86 193 68 196>
LayerCount: 2
Fore
SplineSet
382 0 m 1
 270 0 l 1
 264 18 260 29 260 86 c 2
 260 196 l 2
 260 261 238 285 188 285 c 2
 150 285 l 1
 150 0 l 1
 40 0 l 1
 40 700 l 1
 206 700 l 2
 320 700 369 647 369 539 c 2
 369 484 l 2
 369 412 346 366 297 343 c 1
 297 341 l 1
 352 318 370 266 370 193 c 2
 370 85 l 2
 370 51 371 26 382 0 c 1
203 600 m 2
 150 600 l 1
 150 385 l 1
 193 385 l 2
 234 385 259 403 259 459 c 2
 259 528 l 2
 259 578 242 600 203 600 c 2
193 -125 m 1x84
 157 -125 l 1
 157 -33 l 1
 249 -33 l 1
 249 -115 l 1
 206 -179 l 1
 167 -179 l 1
 193 -125 l 1x84
EndSplineSet
EndChar

StartChar: Rcaron
Encoding: 344 344 268
Width: 402
Flags: MW
HStem: 0 21G<40 150 40 40 270 382 270 270> 285 100<150 188 150 193> 600 100<150 203 150 150> 737 111<145 150 239 244 145 145>
VStem: 40 110<0 285 0 385 385 600> 56 277<848 848> 260 110<86 193 68 196>
LayerCount: 2
Fore
SplineSet
382 0 m 1xea
 270 0 l 1
 264 18 260 29 260 86 c 2
 260 196 l 2
 260 261 238 285 188 285 c 2
 150 285 l 1
 150 0 l 1
 40 0 l 1
 40 700 l 1
 206 700 l 2
 320 700 369 647 369 539 c 2
 369 484 l 2
 369 412 346 366 297 343 c 1
 297 341 l 1
 352 318 370 266 370 193 c 2
 370 85 l 2
 370 51 371 26 382 0 c 1xea
203 600 m 2
 150 600 l 1
 150 385 l 1
 193 385 l 2
 234 385 259 403 259 459 c 2
 259 528 l 2
 259 578 242 600 203 600 c 2
56 848 m 1x14
 150 848 l 1
 194 792 l 1
 239 848 l 1
 333 848 l 1
 244 737 l 1
 145 737 l 1
 56 848 l 1x14
EndSplineSet
EndChar

StartChar: rcaron
Encoding: 345 345 269
Width: 402
Flags: MW
HStem: 0 21G<40 150 40 40 270 382 270 270> 285 100<150 188 150 193> 600 100<150 203 150 150> 737 111<145 150 239 244 145 145>
VStem: 40 110<0 285 0 385 385 600> 56 277<848 848> 260 110<86 193 68 196>
LayerCount: 2
Fore
SplineSet
382 0 m 1xea
 270 0 l 1
 264 18 260 29 260 86 c 2
 260 196 l 2
 260 261 238 285 188 285 c 2
 150 285 l 1
 150 0 l 1
 40 0 l 1
 40 700 l 1
 206 700 l 2
 320 700 369 647 369 539 c 2
 369 484 l 2
 369 412 346 366 297 343 c 1
 297 341 l 1
 352 318 370 266 370 193 c 2
 370 85 l 2
 370 51 371 26 382 0 c 1xea
203 600 m 2
 150 600 l 1
 150 385 l 1
 193 385 l 2
 234 385 259 403 259 459 c 2
 259 528 l 2
 259 578 242 600 203 600 c 2
56 848 m 1x14
 150 848 l 1
 194 792 l 1
 239 848 l 1
 333 848 l 1
 244 737 l 1
 145 737 l 1
 56 848 l 1x14
EndSplineSet
EndChar

StartChar: Sacute
Encoding: 346 346 270
Width: 374
Flags: MW
HStem: -8 101<166.5 201.5 166.5 241> 608 100<173.5 208.5> 737 111<197 203 129 305>
VStem: 23 104<168 211 136 211> 26 110<513.5 564 513.5 588> 129 176<737 848> 241 110<136 186.5> 246 104<510 532 510 539 510 564>
LayerCount: 2
Fore
SplineSet
26 532 m 0xca
 26 644 81 708 188 708 c 0
 295 708 350 644 350 532 c 2
 350 510 l 1
 246 510 l 1
 246 539 l 2
 246 589 226 608 191 608 c 0
 156 608 136 589 136 539 c 0xc9
 136 488 158 450 230 387 c 0
 322 306 351 248 351 168 c 0
 351 56 295 -8 187 -8 c 0
 79 -8 23 56 23 168 c 2
 23 211 l 1
 127 211 l 1
 127 161 l 2xd2
 127 111 149 93 184 93 c 0
 219 93 241 111 241 161 c 0
 241 212 219 250 147 313 c 0
 55 394 26 452 26 532 c 0xca
197 848 m 1x24
 305 848 l 1
 203 737 l 1
 129 737 l 1
 197 848 l 1x24
EndSplineSet
EndChar

StartChar: sacute
Encoding: 347 347 271
Width: 374
Flags: MW
HStem: -8 101<166.5 201.5 166.5 241> 608 100<173.5 208.5> 737 111<197 203 129 305>
VStem: 23 104<168 211 136 211> 26 110<513.5 564 513.5 588> 129 176<737 848> 241 110<136 186.5> 246 104<510 532 510 539 510 564>
LayerCount: 2
Fore
SplineSet
26 532 m 0xca
 26 644 81 708 188 708 c 0
 295 708 350 644 350 532 c 2
 350 510 l 1
 246 510 l 1
 246 539 l 2
 246 589 226 608 191 608 c 0
 156 608 136 589 136 539 c 0xc9
 136 488 158 450 230 387 c 0
 322 306 351 248 351 168 c 0
 351 56 295 -8 187 -8 c 0
 79 -8 23 56 23 168 c 2
 23 211 l 1
 127 211 l 1
 127 161 l 2xd2
 127 111 149 93 184 93 c 0
 219 93 241 111 241 161 c 0
 241 212 219 250 147 313 c 0
 55 394 26 452 26 532 c 0xca
197 848 m 1x24
 305 848 l 1
 203 737 l 1
 129 737 l 1
 197 848 l 1x24
EndSplineSet
EndChar

StartChar: Scircumflex
Encoding: 348 348 272
Width: 374
Flags: MW
HStem: -8 101<166.5 201.5 166.5 241> 608 100<173.5 208.5> 737 111<137 142 48 236 231 231 231 236 137 325>
VStem: 23 104<168 211 136 211> 26 110<513.5 564 513.5 588> 48 277<737 737> 241 110<136 186.5> 246 104<510 532 510 539 510 564>
LayerCount: 2
Fore
SplineSet
26 532 m 0xca
 26 644 81 708 188 708 c 0
 295 708 350 644 350 532 c 2
 350 510 l 1
 246 510 l 1
 246 539 l 2
 246 589 226 608 191 608 c 0
 156 608 136 589 136 539 c 0xc9
 136 488 158 450 230 387 c 0
 322 306 351 248 351 168 c 0
 351 56 295 -8 187 -8 c 0
 79 -8 23 56 23 168 c 2
 23 211 l 1
 127 211 l 1
 127 161 l 2xd2
 127 111 149 93 184 93 c 0
 219 93 241 111 241 161 c 0
 241 212 219 250 147 313 c 0
 55 394 26 452 26 532 c 0xca
142 737 m 1x24
 48 737 l 1
 137 848 l 1
 236 848 l 1
 325 737 l 1
 231 737 l 1
 186 792 l 1
 142 737 l 1x24
EndSplineSet
EndChar

StartChar: scircumflex
Encoding: 349 349 273
Width: 374
Flags: MW
HStem: -8 101<166.5 201.5 166.5 241> 608 100<173.5 208.5> 737 111<137 142 48 236 231 231 231 236 137 325>
VStem: 23 104<168 211 136 211> 26 110<513.5 564 513.5 588> 48 277<737 737> 241 110<136 186.5> 246 104<510 532 510 539 510 564>
LayerCount: 2
Fore
SplineSet
26 532 m 0xca
 26 644 81 708 188 708 c 0
 295 708 350 644 350 532 c 2
 350 510 l 1
 246 510 l 1
 246 539 l 2
 246 589 226 608 191 608 c 0
 156 608 136 589 136 539 c 0xc9
 136 488 158 450 230 387 c 0
 322 306 351 248 351 168 c 0
 351 56 295 -8 187 -8 c 0
 79 -8 23 56 23 168 c 2
 23 211 l 1
 127 211 l 1
 127 161 l 2xd2
 127 111 149 93 184 93 c 0
 219 93 241 111 241 161 c 0
 241 212 219 250 147 313 c 0
 55 394 26 452 26 532 c 0xca
142 737 m 1x24
 48 737 l 1
 137 848 l 1
 236 848 l 1
 325 737 l 1
 231 737 l 1
 186 792 l 1
 142 737 l 1x24
EndSplineSet
EndChar

StartChar: Scedilla
Encoding: 350 350 274
Width: 374
Flags: MW
HStem: -147 40<172.5 186.5 172.5 207.5> -147 68<150.5 156 82 207.5> -57 18 -6 99<157 201.5> 608 100<173.5 208.5>
VStem: 23 104<168 211 136 211> 26 110<513.5 564 513.5 588> 82 74<-89 -87 -87 -79 -94.5 -79> 157 48<-39 -7 -39 -6 -39 -6> 203 76<-91.5 -73.5> 241 110<136 186.5> 246 104<510 532 510 539 510 564>
LayerCount: 2
Fore
SplineSet
23 168 m 2x7ca0
 23 211 l 1
 127 211 l 1
 127 161 l 2
 127 111 149 93 184 93 c 0
 219 93 241 111 241 161 c 0x7ca0
 241 212 219 250 147 313 c 0
 55 394 26 452 26 532 c 0
 26 644 81 708 188 708 c 0
 295 708 350 644 350 532 c 2
 350 510 l 1
 246 510 l 1
 246 539 l 2x7a90
 246 589 226 608 191 608 c 0
 156 608 136 589 136 539 c 0
 136 488 158 450 230 387 c 0
 322 306 351 248 351 168 c 0
 351 62 301 0 205 -7 c 1
 205 -39 l 1x7aa0
 254 -39 279 -51 279 -86 c 0
 279 -140 237 -147 178 -147 c 0
 123 -147 82 -135 82 -89 c 2
 82 -79 l 1
 156 -79 l 1x7940
 156 -87 l 2
 156 -102 167 -107 178 -107 c 0
 195 -107 203 -100 203 -83 c 0xb940
 203 -64 191 -57 167 -57 c 2
 157 -57 l 1
 157 -6 l 1
 68 5 23 67 23 168 c 2x7ca0
EndSplineSet
Substitution2: "'locl' Localized Forms in Latin lookup 1 subtable" uni0218
EndChar

StartChar: scedilla
Encoding: 351 351 275
Width: 374
Flags: MW
HStem: -147 40<172.5 186.5 172.5 207.5> -147 68<150.5 156 82 207.5> -57 18 -7 100<166.5 205> 608 100<173.5 208.5>
VStem: 23 104<168 211 136 211> 26 110<513.5 564 513.5 588> 82 74<-89 -87 -87 -79 -94.5 -79> 157 48<-39 -7 -39 -6 -39 -6> 203 76<-91.5 -73.5> 241 110<136 186.5> 246 104<510 532 510 539 510 564>
LayerCount: 2
Fore
SplineSet
23 168 m 2x7ca0
 23 211 l 1
 127 211 l 1
 127 161 l 2
 127 111 149 93 184 93 c 0
 219 93 241 111 241 161 c 0x7ca0
 241 212 219 250 147 313 c 0
 55 394 26 452 26 532 c 0
 26 644 81 708 188 708 c 0
 295 708 350 644 350 532 c 2
 350 510 l 1
 246 510 l 1
 246 539 l 2x7a90
 246 589 226 608 191 608 c 0
 156 608 136 589 136 539 c 0
 136 488 158 450 230 387 c 0
 322 306 351 248 351 168 c 0
 351 62 301 0 205 -7 c 1
 205 -39 l 1x7aa0
 254 -39 279 -51 279 -86 c 0
 279 -140 237 -147 178 -147 c 0
 123 -147 82 -135 82 -89 c 2
 82 -79 l 1
 156 -79 l 1x7940
 156 -87 l 2
 156 -102 167 -107 178 -107 c 0
 195 -107 203 -100 203 -83 c 0xb940
 203 -64 191 -57 167 -57 c 2
 157 -57 l 1
 157 -6 l 1
 68 5 23 67 23 168 c 2x7ca0
EndSplineSet
Substitution2: "'locl' Localized Forms in Latin lookup 1 subtable" uni0219
EndChar

StartChar: Scaron
Encoding: 352 352 276
Width: 374
Flags: MW
HStem: -8 101<166.5 201.5 166.5 241> 608 100<173.5 208.5> 737 111<138 143 232 237 138 138>
VStem: 23 104<168 211 136 211> 26 110<513.5 564 513.5 588> 49 277<848 848> 241 110<136 186.5> 246 104<510 532 510 539 510 564>
LayerCount: 2
Fore
SplineSet
26 532 m 0xca
 26 644 81 708 188 708 c 0
 295 708 350 644 350 532 c 2
 350 510 l 1
 246 510 l 1
 246 539 l 2
 246 589 226 608 191 608 c 0
 156 608 136 589 136 539 c 0xc9
 136 488 158 450 230 387 c 0
 322 306 351 248 351 168 c 0
 351 56 295 -8 187 -8 c 0
 79 -8 23 56 23 168 c 2
 23 211 l 1
 127 211 l 1
 127 161 l 2xd2
 127 111 149 93 184 93 c 0
 219 93 241 111 241 161 c 0
 241 212 219 250 147 313 c 0
 55 394 26 452 26 532 c 0xca
49 848 m 1x24
 143 848 l 1
 187 792 l 1
 232 848 l 1
 326 848 l 1
 237 737 l 1
 138 737 l 1
 49 848 l 1x24
EndSplineSet
EndChar

StartChar: scaron
Encoding: 353 353 277
Width: 374
Flags: MW
HStem: -8 101<166.5 201.5 166.5 241> 608 100<173.5 208.5> 737 111<137 142 231 236 137 137>
VStem: 23 104<168 211 136 211> 26 110<513.5 564 513.5 588> 48 277<848 848> 241 110<136 186.5> 246 104<510 532 510 539 510 564>
LayerCount: 2
Fore
SplineSet
26 532 m 0xca
 26 644 81 708 188 708 c 0
 295 708 350 644 350 532 c 2
 350 510 l 1
 246 510 l 1
 246 539 l 2
 246 589 226 608 191 608 c 0
 156 608 136 589 136 539 c 0xc9
 136 488 158 450 230 387 c 0
 322 306 351 248 351 168 c 0
 351 56 295 -8 187 -8 c 0
 79 -8 23 56 23 168 c 2
 23 211 l 1
 127 211 l 1
 127 161 l 2xd2
 127 111 149 93 184 93 c 0
 219 93 241 111 241 161 c 0
 241 212 219 250 147 313 c 0
 55 394 26 452 26 532 c 0xca
48 848 m 1x24
 142 848 l 1
 186 792 l 1
 231 848 l 1
 325 848 l 1
 236 737 l 1
 137 737 l 1
 48 848 l 1x24
EndSplineSet
EndChar

StartChar: uni0162
Encoding: 354 354 278
Width: 356
Flags: MW
HStem: -178 51<168 181.5 168 198.5> -178 79<151.5 152 88 198.5> -73 34 600 100<8 123 8 348 233 233 233 348>
VStem: 88 64<-109 -99 -116 -99> 123 110<0 600 0 600> 199 66<-109.5 -91.5>
LayerCount: 2
Fore
SplineSet
88 -109 m 2xba
 88 -99 l 1
 152 -99 l 1x7a
 152 -109 l 2
 152 -123 163 -127 173 -127 c 0
 190 -127 199 -118 199 -101 c 0
 199 -82 187 -73 163 -73 c 2
 152 -73 l 1
 152 0 l 1xba
 123 0 l 1
 123 600 l 1
 8 600 l 1
 8 700 l 1
 348 700 l 1
 348 600 l 1
 233 600 l 1
 233 0 l 1x74
 202 0 l 1
 202 -39 l 1
 241 -39 265 -61 265 -96 c 0
 265 -156 223 -178 174 -178 c 0
 129 -178 88 -155 88 -109 c 2xba
EndSplineSet
Substitution2: "'locl' Localized Forms in Latin lookup 1 subtable" uni021A
EndChar

StartChar: uni0163
Encoding: 355 355 279
Width: 356
Flags: MW
HStem: -178 51<168 181.5 168 198.5> -178 79<151.5 152 88 198.5> -73 34 600 100<8 123 8 348 233 233 233 348>
VStem: 88 64<-109 -99 -116 -99> 123 110<0 600 0 600> 199 66<-109.5 -91.5>
LayerCount: 2
Fore
SplineSet
88 -109 m 2xba
 88 -99 l 1
 152 -99 l 1x7a
 152 -109 l 2
 152 -123 163 -127 173 -127 c 0
 190 -127 199 -118 199 -101 c 0
 199 -82 187 -73 163 -73 c 2
 152 -73 l 1
 152 0 l 1xba
 123 0 l 1
 123 600 l 1
 8 600 l 1
 8 700 l 1
 348 700 l 1
 348 600 l 1
 233 600 l 1
 233 0 l 1x74
 202 0 l 1
 202 -39 l 1
 241 -39 265 -61 265 -96 c 0
 265 -156 223 -178 174 -178 c 0
 129 -178 88 -155 88 -109 c 2xba
EndSplineSet
Substitution2: "'locl' Localized Forms in Latin lookup 1 subtable" uni021B
EndChar

StartChar: Tcaron
Encoding: 356 356 280
Width: 356
Flags: MW
HStem: 0 21G<123 233 123 123> 600 100<8 348 8 123 233 233 233 348> 737 111<128 133 222 227 128 128>
VStem: 39 277<848 848> 123 110<0 600 0 600>
LayerCount: 2
Fore
SplineSet
8 600 m 1xc8
 8 700 l 1
 348 700 l 1
 348 600 l 1
 233 600 l 1
 233 0 l 1
 123 0 l 1
 123 600 l 1
 8 600 l 1xc8
39 848 m 1x30
 133 848 l 1
 177 792 l 1
 222 848 l 1
 316 848 l 1
 227 737 l 1
 128 737 l 1
 39 848 l 1x30
EndSplineSet
EndChar

StartChar: tcaron
Encoding: 357 357 281
Width: 356
Flags: MW
HStem: 0 21G<123 233 123 123> 600 100<8 348 8 123 233 233 233 348> 737 111<128 133 222 227 128 128>
VStem: 39 277<848 848> 123 110<0 600 0 600>
LayerCount: 2
Fore
SplineSet
8 600 m 1xc8
 8 700 l 1
 348 700 l 1
 348 600 l 1
 233 600 l 1
 233 0 l 1
 123 0 l 1
 123 600 l 1
 8 600 l 1xc8
39 848 m 1x30
 133 848 l 1
 177 792 l 1
 222 848 l 1
 316 848 l 1
 227 737 l 1
 128 737 l 1
 39 848 l 1x30
EndSplineSet
EndChar

StartChar: Tbar
Encoding: 358 358 282
Width: 356
Flags: MW
HStem: 0 21G<123 233 123 123> 405 82<57 123 57 123 233 299> 600 100<8 123 8 348 233 233 233 348>
VStem: 123 110<0 405 0 405 487 600>
LayerCount: 2
Fore
SplineSet
57 487 m 1
 123 487 l 1
 123 600 l 1
 8 600 l 1
 8 700 l 1
 348 700 l 1
 348 600 l 1
 233 600 l 1
 233 487 l 1
 299 487 l 1
 299 405 l 1
 233 405 l 1
 233 0 l 1
 123 0 l 1
 123 405 l 1
 57 405 l 1
 57 487 l 1
EndSplineSet
EndChar

StartChar: tbar
Encoding: 359 359 283
Width: 356
Flags: MW
HStem: 0 21G<123 233 123 123> 405 82<57 123 57 123 233 299> 600 100<8 123 8 348 233 233 233 348>
VStem: 123 110<0 405 0 405 487 600>
LayerCount: 2
Fore
SplineSet
57 487 m 1
 123 487 l 1
 123 600 l 1
 8 600 l 1
 8 700 l 1
 348 700 l 1
 348 600 l 1
 233 600 l 1
 233 487 l 1
 299 487 l 1
 299 405 l 1
 233 405 l 1
 233 0 l 1
 123 0 l 1
 123 405 l 1
 57 405 l 1
 57 487 l 1
EndSplineSet
EndChar

StartChar: Utilde
Encoding: 360 360 284
Width: 398
Flags: MW
HStem: -9 101<184.5 219.5 184.5 253> 680 20G<35 145 145 145 259 363 363 363> 737 76<243 251 234.5 271> 762 76<150 159 130 166.5>
VStem: 35 110<167 700> 65 271<770 805> 259 104<160 167 167 700>
LayerCount: 2
Fore
SplineSet
35 700 m 1xca
 145 700 l 1
 145 160 l 2
 145 110 167 92 202 92 c 0
 237 92 259 110 259 160 c 2
 259 700 l 1
 363 700 l 1
 363 167 l 2
 363 55 307 -9 199 -9 c 0
 91 -9 35 55 35 167 c 2
 35 700 l 1xca
240 813 m 0x24
 262 813 273 821 283 842 c 1
 336 805 l 1
 319 760 291 737 251 737 c 0x24
 235 737 221 740 198 751 c 0
 182 759 172 762 161 762 c 0
 139 762 128 754 118 733 c 1
 65 770 l 1
 82 815 110 838 150 838 c 0x14
 168 838 183 834 203 824 c 0
 219 816 229 813 240 813 c 0x24
EndSplineSet
EndChar

StartChar: utilde
Encoding: 361 361 285
Width: 398
Flags: MW
HStem: -9 101<184.5 219.5 184.5 253> 680 20G<35 145 145 145 259 363 363 363> 737 76<243 251 234.5 271> 762 76<150 159 130 166.5>
VStem: 35 110<167 700> 65 271<770 805> 259 104<160 167 167 700>
LayerCount: 2
Fore
SplineSet
35 700 m 1xca
 145 700 l 1
 145 160 l 2
 145 110 167 92 202 92 c 0
 237 92 259 110 259 160 c 2
 259 700 l 1
 363 700 l 1
 363 167 l 2
 363 55 307 -9 199 -9 c 0
 91 -9 35 55 35 167 c 2
 35 700 l 1xca
240 813 m 0x24
 262 813 273 821 283 842 c 1
 336 805 l 1
 319 760 291 737 251 737 c 0x24
 235 737 221 740 198 751 c 0
 182 759 172 762 161 762 c 0
 139 762 128 754 118 733 c 1
 65 770 l 1
 82 815 110 838 150 838 c 0x14
 168 838 183 834 203 824 c 0
 219 816 229 813 240 813 c 0x24
EndSplineSet
EndChar

StartChar: Umacron
Encoding: 362 362 286
Width: 398
Flags: MW
HStem: -9 101<184.5 219.5 184.5 253> 680 20G<35 145 145 145 259 363 363 363> 741 78<85 315 85 315>
VStem: 35 110<167 700> 85 230<741 819 741 819> 259 104<160 167 167 700>
LayerCount: 2
Fore
SplineSet
35 700 m 1xd4
 145 700 l 1
 145 160 l 2
 145 110 167 92 202 92 c 0
 237 92 259 110 259 160 c 2
 259 700 l 1
 363 700 l 1
 363 167 l 2
 363 55 307 -9 199 -9 c 0
 91 -9 35 55 35 167 c 2
 35 700 l 1xd4
85 819 m 1x28
 315 819 l 1
 315 741 l 1
 85 741 l 1
 85 819 l 1x28
EndSplineSet
EndChar

StartChar: umacron
Encoding: 363 363 287
Width: 398
Flags: MW
HStem: -9 101<184.5 219.5 184.5 253> 680 20G<35 145 145 145 259 363 363 363> 741 78<85 315 85 315>
VStem: 35 110<167 700> 85 230<741 819 741 819> 259 104<160 167 167 700>
LayerCount: 2
Fore
SplineSet
35 700 m 1xd4
 145 700 l 1
 145 160 l 2
 145 110 167 92 202 92 c 0
 237 92 259 110 259 160 c 2
 259 700 l 1
 363 700 l 1
 363 167 l 2
 363 55 307 -9 199 -9 c 0
 91 -9 35 55 35 167 c 2
 35 700 l 1xd4
85 819 m 1x28
 315 819 l 1
 315 741 l 1
 85 741 l 1
 85 819 l 1x28
EndSplineSet
EndChar

StartChar: Ubreve
Encoding: 364 364 288
Width: 398
Flags: MW
HStem: -9 101<184.5 219.5 184.5 253> 680 20G<35 145 145 145 259 363 363 363> 733 68<185 213.5 185 236.5>
VStem: 35 110<167 700> 88 65<848 848> 247 65<813 848> 259 104<160 167 167 700>
LayerCount: 2
Fore
SplineSet
35 700 m 1xd2
 145 700 l 1
 145 160 l 2
 145 110 167 92 202 92 c 0
 237 92 259 110 259 160 c 2
 259 700 l 1
 363 700 l 1
 363 167 l 2
 363 55 307 -9 199 -9 c 0
 91 -9 35 55 35 167 c 2
 35 700 l 1xd2
247 848 m 1x2c
 312 848 l 1
 312 778 274 733 199 733 c 0
 124 733 89 778 88 848 c 1
 153 848 l 1
 156 810 171 801 199 801 c 0
 228 801 244 810 247 848 c 1x2c
EndSplineSet
EndChar

StartChar: ubreve
Encoding: 365 365 289
Width: 398
Flags: MW
HStem: -9 101<184.5 219.5 184.5 253> 680 20G<35 145 145 145 259 363 363 363> 733 68<185 213.5 185 236.5>
VStem: 35 110<167 700> 88 65<848 848> 247 65<813 848> 259 104<160 167 167 700>
LayerCount: 2
Fore
SplineSet
35 700 m 1xd2
 145 700 l 1
 145 160 l 2
 145 110 167 92 202 92 c 0
 237 92 259 110 259 160 c 2
 259 700 l 1
 363 700 l 1
 363 167 l 2
 363 55 307 -9 199 -9 c 0
 91 -9 35 55 35 167 c 2
 35 700 l 1xd2
247 848 m 1x2c
 312 848 l 1
 312 778 274 733 199 733 c 0
 124 733 89 778 88 848 c 1
 153 848 l 1
 156 810 171 801 199 801 c 0
 228 801 244 810 247 848 c 1x2c
EndSplineSet
EndChar

StartChar: Uring
Encoding: 366 366 290
Width: 398
Flags: MW
HStem: -9 101<184.5 219.5 184.5 253> 680 20G<35 145 145 145 259 363 363 363> 734 50<191.5 208.5 191.5 222.5> 844 50<191.5 208.5>
VStem: 35 110<167 700> 120 50<805.5 822.5 805.5 836.5> 230 50<805.5 822.5> 259 104<160 167 167 700>
LayerCount: 2
Fore
SplineSet
35 700 m 1xc9
 145 700 l 1
 145 160 l 2
 145 110 167 92 202 92 c 0
 237 92 259 110 259 160 c 2
 259 700 l 1
 363 700 l 1
 363 167 l 2
 363 55 307 -9 199 -9 c 0
 91 -9 35 55 35 167 c 2
 35 700 l 1xc9
120 814 m 0x36
 120 859 155 894 200 894 c 0
 245 894 280 859 280 814 c 0
 280 769 245 734 200 734 c 0
 155 734 120 769 120 814 c 0x36
170 814 m 0
 170 797 183 784 200 784 c 0
 217 784 230 797 230 814 c 0
 230 831 217 844 200 844 c 0
 183 844 170 831 170 814 c 0
EndSplineSet
EndChar

StartChar: uring
Encoding: 367 367 291
Width: 398
Flags: MW
HStem: -9 101<184.5 219.5 184.5 253> 680 20G<35 145 145 145 259 363 363 363> 734 50<191.5 208.5 191.5 222.5> 844 50<191.5 208.5>
VStem: 35 110<167 700> 120 50<805.5 822.5 805.5 836.5> 230 50<805.5 822.5> 259 104<160 167 167 700>
LayerCount: 2
Fore
SplineSet
35 700 m 1xc9
 145 700 l 1
 145 160 l 2
 145 110 167 92 202 92 c 0
 237 92 259 110 259 160 c 2
 259 700 l 1
 363 700 l 1
 363 167 l 2
 363 55 307 -9 199 -9 c 0
 91 -9 35 55 35 167 c 2
 35 700 l 1xc9
120 814 m 0x36
 120 859 155 894 200 894 c 0
 245 894 280 859 280 814 c 0
 280 769 245 734 200 734 c 0
 155 734 120 769 120 814 c 0x36
170 814 m 0
 170 797 183 784 200 784 c 0
 217 784 230 797 230 814 c 0
 230 831 217 844 200 844 c 0
 183 844 170 831 170 814 c 0
EndSplineSet
EndChar

StartChar: Uhungarumlaut
Encoding: 368 368 292
Width: 398
Flags: MW
HStem: -9 101<184.5 219.5 184.5 253> 680 20G<35 145 145 145 259 363 363 363> 737 111<134 151 84 234 215 215 215 234 264 281>
VStem: 35 110<167 700> 84 281<737 848> 259 104<160 167 167 700>
LayerCount: 2
Fore
SplineSet
35 700 m 1xd4
 145 700 l 1
 145 160 l 2
 145 110 167 92 202 92 c 0
 237 92 259 110 259 160 c 2
 259 700 l 1
 363 700 l 1
 363 167 l 2
 363 55 307 -9 199 -9 c 0
 91 -9 35 55 35 167 c 2
 35 700 l 1xd4
134 848 m 1x28
 234 848 l 1
 151 737 l 1
 84 737 l 1
 134 848 l 1x28
264 848 m 1
 365 848 l 1
 281 737 l 1
 215 737 l 1
 264 848 l 1
EndSplineSet
EndChar

StartChar: uhungarumlaut
Encoding: 369 369 293
Width: 398
Flags: MW
HStem: -9 101<184.5 219.5 184.5 253> 680 20G<35 145 145 145 259 363 363 363> 737 111<134 151 84 234 215 215 215 234 264 281>
VStem: 35 110<167 700> 84 281<737 848> 259 104<160 167 167 700>
LayerCount: 2
Fore
SplineSet
35 700 m 1xd4
 145 700 l 1
 145 160 l 2
 145 110 167 92 202 92 c 0
 237 92 259 110 259 160 c 2
 259 700 l 1
 363 700 l 1
 363 167 l 2
 363 55 307 -9 199 -9 c 0
 91 -9 35 55 35 167 c 2
 35 700 l 1xd4
134 848 m 1x28
 234 848 l 1
 151 737 l 1
 84 737 l 1
 134 848 l 1x28
264 848 m 1
 365 848 l 1
 281 737 l 1
 215 737 l 1
 264 848 l 1
EndSplineSet
EndChar

StartChar: Uogonek
Encoding: 370 370 294
Width: 398
Flags: MW
HStem: -147 61<242.5 311> -9 101<184.5 206> 680 20G<35 145 145 145 259 363 363 363>
VStem: 35 110<167 700> 182 84<-105.5 -50.5> 259 104<160 167 167 700>
LayerCount: 2
Fore
SplineSet
35 700 m 1xf8
 145 700 l 1
 145 160 l 2
 145 110 167 92 202 92 c 0
 237 92 259 110 259 160 c 2
 259 700 l 1
 363 700 l 1
 363 167 l 2xf4
 363 108 354 50 300 8 c 0
 272 -14 266 -43 266 -58 c 0
 266 -77 283 -86 301 -86 c 0
 321 -86 326 -83 337 -80 c 1
 337 -136 l 1
 314 -145 297 -147 269 -147 c 0
 216 -147 182 -126 182 -85 c 0
 182 -55 200 -29 238 -7 c 1
 238 -5 l 1
 226 -8 213 -9 199 -9 c 0
 91 -9 35 55 35 167 c 2
 35 700 l 1xf8
EndSplineSet
EndChar

StartChar: uogonek
Encoding: 371 371 295
Width: 398
Flags: MW
HStem: -147 61<242.5 311> -9 101<184.5 206> 680 20G<35 145 145 145 259 363 363 363>
VStem: 35 110<167 700> 182 84<-105.5 -50.5> 259 104<160 167 167 700>
LayerCount: 2
Fore
SplineSet
35 700 m 1xf8
 145 700 l 1
 145 160 l 2
 145 110 167 92 202 92 c 0
 237 92 259 110 259 160 c 2
 259 700 l 1
 363 700 l 1
 363 167 l 2xf4
 363 108 354 50 300 8 c 0
 272 -14 266 -43 266 -58 c 0
 266 -77 283 -86 301 -86 c 0
 321 -86 326 -83 337 -80 c 1
 337 -136 l 1
 314 -145 297 -147 269 -147 c 0
 216 -147 182 -126 182 -85 c 0
 182 -55 200 -29 238 -7 c 1
 238 -5 l 1
 226 -8 213 -9 199 -9 c 0
 91 -9 35 55 35 167 c 2
 35 700 l 1xf8
EndSplineSet
EndChar

StartChar: Wcircumflex
Encoding: 372 372 296
Width: 563
Flags: MW
HStem: 0 21G<93 244 93 93 324 470 324 324> 680 20G<15 122 122 122 234 340 340 340 452 548 548 548> 737 111<232 237 143 331 326 326 326 331 232 420>
VStem: 15 533<700 700> 143 277<737 737>
LayerCount: 2
Fore
SplineSet
324 0 m 1xd0
 285 373 l 1
 283 373 l 1
 244 0 l 1
 93 0 l 1
 15 700 l 1
 122 700 l 1
 180 148 l 1
 182 148 l 1
 234 700 l 1
 340 700 l 1
 394 144 l 1
 396 144 l 1
 452 700 l 1
 548 700 l 1
 470 0 l 1
 324 0 l 1xd0
237 737 m 1x28
 143 737 l 1
 232 848 l 1
 331 848 l 1
 420 737 l 1
 326 737 l 1
 281 792 l 1
 237 737 l 1x28
EndSplineSet
EndChar

StartChar: wcircumflex
Encoding: 373 373 297
Width: 563
Flags: MW
HStem: 0 21G<93 244 93 93 324 470 324 324> 680 20G<15 122 122 122 234 340 340 340 452 548 548 548> 737 111<232 237 143 331 326 326 326 331 232 420>
VStem: 15 533<700 700> 143 277<737 737>
LayerCount: 2
Fore
SplineSet
324 0 m 1xd0
 285 373 l 1
 283 373 l 1
 244 0 l 1
 93 0 l 1
 15 700 l 1
 122 700 l 1
 180 148 l 1
 182 148 l 1
 234 700 l 1
 340 700 l 1
 394 144 l 1
 396 144 l 1
 452 700 l 1
 548 700 l 1
 470 0 l 1
 324 0 l 1xd0
237 737 m 1x28
 143 737 l 1
 232 848 l 1
 331 848 l 1
 420 737 l 1
 326 737 l 1
 281 792 l 1
 237 737 l 1x28
EndSplineSet
EndChar

StartChar: Ycircumflex
Encoding: 374 374 298
Width: 396
Flags: MW
HStem: 0 21G<143 143 143 253> 680 20G<4 119 119 119 287 392 392 392> 737 111<153 158 64 252 247 247 247 252 153 341>
VStem: 64 277<737 737> 143 110<0 232 0 232>
LayerCount: 2
Fore
SplineSet
143 0 m 1xc8
 143 232 l 1
 4 700 l 1
 119 700 l 1
 202 381 l 1
 204 381 l 1
 287 700 l 1
 392 700 l 1
 253 232 l 1
 253 0 l 1
 143 0 l 1xc8
158 737 m 1x30
 64 737 l 1
 153 848 l 1
 252 848 l 1
 341 737 l 1
 247 737 l 1
 202 792 l 1
 158 737 l 1x30
EndSplineSet
EndChar

StartChar: ycircumflex
Encoding: 375 375 299
Width: 396
Flags: MW
HStem: 0 21G<143 143 143 253> 680 20G<4 119 119 119 287 392 392 392> 737 111<153 158 64 252 247 247 247 252 153 341>
VStem: 64 277<737 737> 143 110<0 232 0 232>
LayerCount: 2
Fore
SplineSet
143 0 m 1xc8
 143 232 l 1
 4 700 l 1
 119 700 l 1
 202 381 l 1
 204 381 l 1
 287 700 l 1
 392 700 l 1
 253 232 l 1
 253 0 l 1
 143 0 l 1xc8
158 737 m 1x30
 64 737 l 1
 153 848 l 1
 252 848 l 1
 341 737 l 1
 247 737 l 1
 202 792 l 1
 158 737 l 1x30
EndSplineSet
EndChar

StartChar: Ydieresis
Encoding: 376 376 300
Width: 396
Flags: MW
HStem: 0 21G<143 143 143 253> 680 20G<4 119 119 119 287 392 392 392> 737 96<78 174 78 174 78 230 230 326>
VStem: 78 96<737 833 737 833> 143 110<0 232 0 232> 230 96<737 833 737 833>
LayerCount: 2
Fore
SplineSet
143 0 m 1xc8
 143 232 l 1
 4 700 l 1
 119 700 l 1
 202 381 l 1
 204 381 l 1
 287 700 l 1
 392 700 l 1
 253 232 l 1
 253 0 l 1
 143 0 l 1xc8
78 833 m 1x34
 174 833 l 1
 174 737 l 1
 78 737 l 1
 78 833 l 1x34
230 833 m 1
 326 833 l 1
 326 737 l 1
 230 737 l 1
 230 833 l 1
EndSplineSet
EndChar

StartChar: Zacute
Encoding: 377 377 301
Width: 370
Flags: MW
HStem: 0 100<136 345 136 345> 600 100<33 232 33 345> 737 111<196 202 128 304>
VStem: 23 322<0 98 98 98> 128 176<737 848>
LayerCount: 2
Fore
SplineSet
33 700 m 1xd0
 345 700 l 1
 345 602 l 1
 136 100 l 1
 345 100 l 1
 345 0 l 1
 23 0 l 1
 23 98 l 1
 232 600 l 1
 33 600 l 1
 33 700 l 1xd0
196 848 m 1x28
 304 848 l 1
 202 737 l 1
 128 737 l 1
 196 848 l 1x28
EndSplineSet
EndChar

StartChar: zacute
Encoding: 378 378 302
Width: 370
Flags: MW
HStem: 0 100<136 345 136 345> 600 100<33 232 33 345> 737 111<196 202 128 304>
VStem: 23 322<0 98 98 98> 128 176<737 848>
LayerCount: 2
Fore
SplineSet
33 700 m 1xd0
 345 700 l 1
 345 602 l 1
 136 100 l 1
 345 100 l 1
 345 0 l 1
 23 0 l 1
 23 98 l 1
 232 600 l 1
 33 600 l 1
 33 700 l 1xd0
196 848 m 1x28
 304 848 l 1
 202 737 l 1
 128 737 l 1
 196 848 l 1x28
EndSplineSet
EndChar

StartChar: Zdotaccent
Encoding: 379 379 303
Width: 370
Flags: MW
HStem: 0 100<136 345 136 345> 600 100<33 232 33 345> 737 96<138 234 138 234>
VStem: 23 322<0 98 98 98> 138 96<737 833 737 833>
LayerCount: 2
Fore
SplineSet
33 700 m 1xd0
 345 700 l 1
 345 602 l 1
 136 100 l 1
 345 100 l 1
 345 0 l 1
 23 0 l 1
 23 98 l 1
 232 600 l 1
 33 600 l 1
 33 700 l 1xd0
138 833 m 1x28
 234 833 l 1
 234 737 l 1
 138 737 l 1
 138 833 l 1x28
EndSplineSet
EndChar

StartChar: zdotaccent
Encoding: 380 380 304
Width: 370
Flags: MW
HStem: 0 100<136 345 136 345> 600 100<33 232 33 345> 737 96<138 234 138 234>
VStem: 23 322<0 98 98 98> 138 96<737 833 737 833>
LayerCount: 2
Fore
SplineSet
33 700 m 1xd0
 345 700 l 1
 345 602 l 1
 136 100 l 1
 345 100 l 1
 345 0 l 1
 23 0 l 1
 23 98 l 1
 232 600 l 1
 33 600 l 1
 33 700 l 1xd0
138 833 m 1x28
 234 833 l 1
 234 737 l 1
 138 737 l 1
 138 833 l 1x28
EndSplineSet
EndChar

StartChar: Zcaron
Encoding: 381 381 305
Width: 370
Flags: MW
HStem: 0 100<136 345 136 345> 600 100<33 232 33 345> 737 111<137 142 231 236 137 137>
VStem: 23 322<0 98 98 98> 48 277<848 848>
LayerCount: 2
Fore
SplineSet
33 700 m 1xd0
 345 700 l 1
 345 602 l 1
 136 100 l 1
 345 100 l 1
 345 0 l 1
 23 0 l 1
 23 98 l 1
 232 600 l 1
 33 600 l 1
 33 700 l 1xd0
48 848 m 1x28
 142 848 l 1
 186 792 l 1
 231 848 l 1
 325 848 l 1
 236 737 l 1
 137 737 l 1
 48 848 l 1x28
EndSplineSet
EndChar

StartChar: zcaron
Encoding: 382 382 306
Width: 370
Flags: MW
HStem: 0 100<136 345 136 345> 600 100<33 232 33 345> 737 111<137 142 231 236 137 137>
VStem: 23 322<0 98 98 98> 48 277<848 848>
LayerCount: 2
Fore
SplineSet
33 700 m 1xd0
 345 700 l 1
 345 602 l 1
 136 100 l 1
 345 100 l 1
 345 0 l 1
 23 0 l 1
 23 98 l 1
 232 600 l 1
 33 600 l 1
 33 700 l 1xd0
48 848 m 1x28
 142 848 l 1
 186 792 l 1
 231 848 l 1
 325 848 l 1
 236 737 l 1
 137 737 l 1
 48 848 l 1x28
EndSplineSet
EndChar

StartChar: AEacute
Encoding: 508 508 307
Width: 580
Flags: MW
HStem: 0 100<362 552 362 552> 127 95<166 252 166 252 141 252> 305 100<362 513 362 513> 600 100<362 552 362 362> 737 111<300 306 232 408>
VStem: 232 176<737 848> 252 110<100 127 127 127 222 305 405 559 559 559>
LayerCount: 2
Fore
SplineSet
252 0 m 1xb2
 252 127 l 1
 141 127 l 1xf2
 109 0 l 1
 4 0 l 1
 191 700 l 1
 552 700 l 1
 552 600 l 1
 362 600 l 1
 362 405 l 1
 513 405 l 1
 513 305 l 1
 362 305 l 1
 362 100 l 1
 552 100 l 1
 552 0 l 1
 252 0 l 1xb2
166 222 m 1
 252 222 l 1
 252 559 l 1
 250 559 l 1
 166 222 l 1
300 848 m 1x0c
 408 848 l 1
 306 737 l 1
 232 737 l 1
 300 848 l 1x0c
EndSplineSet
EndChar

StartChar: aeacute
Encoding: 509 509 308
Width: 580
Flags: MW
HStem: 0 100<362 552 362 552> 127 95<166 252 166 252 141 252> 305 100<362 513 362 513> 600 100<362 552 362 362> 737 111<300 306 232 408>
VStem: 232 176<737 848> 252 110<100 127 127 127 222 305 405 559 559 559>
LayerCount: 2
Fore
SplineSet
252 0 m 1xb2
 252 127 l 1
 141 127 l 1xf2
 109 0 l 1
 4 0 l 1
 191 700 l 1
 552 700 l 1
 552 600 l 1
 362 600 l 1
 362 405 l 1
 513 405 l 1
 513 305 l 1
 362 305 l 1
 362 100 l 1
 552 100 l 1
 552 0 l 1
 252 0 l 1xb2
166 222 m 1
 252 222 l 1
 252 559 l 1
 250 559 l 1
 166 222 l 1
300 848 m 1x0c
 408 848 l 1
 306 737 l 1
 232 737 l 1
 300 848 l 1x0c
EndSplineSet
EndChar

StartChar: Oslashacute
Encoding: 510 510 309
Width: 396
Flags: MW
HStem: -8 100<183 215.5 183 252> 608 100<180.5 212.5> 737 111<208 214 140 316 208 318>
VStem: 31 110<257 532 532 539 257 588> 140 176<737 848> 255 110<161 168 168 443 443 443>
LayerCount: 2
Fore
SplineSet
31 168 m 2xd4
 31 532 l 2
 31 644 90 708 198 708 c 0
 238 708 272 699 298 682 c 1
 318 737 l 1
 355 724 l 1
 329 653 l 1
 353 624 365 583 365 532 c 2
 365 168 l 2
 365 56 306 -8 198 -8 c 0
 158 -8 124 0 98 17 c 1
 78 -37 l 1
 41 -24 l 1
 66 46 l 1
 43 76 31 117 31 168 c 2xd4
253 443 m 1
 142 140 l 1
 148 105 168 92 198 92 c 0
 233 92 255 111 255 161 c 2
 255 443 l 1
 253 443 l 1
141 539 m 2
 141 257 l 1
 143 257 l 1
 253 560 l 1
 248 594 227 608 198 608 c 0
 163 608 141 589 141 539 c 2
208 848 m 1x28
 316 848 l 1
 214 737 l 1
 140 737 l 1
 208 848 l 1x28
EndSplineSet
EndChar

StartChar: oslashacute
Encoding: 511 511 310
Width: 396
Flags: MW
HStem: -8 100<183 215.5 183 252> 608 100<180.5 212.5> 737 111<208 214 140 316 208 318>
VStem: 31 110<257 532 532 539 257 588> 140 176<737 848> 255 110<161 168 168 443 443 443>
LayerCount: 2
Fore
SplineSet
31 168 m 2xd4
 31 532 l 2
 31 644 90 708 198 708 c 0
 238 708 272 699 298 682 c 1
 318 737 l 1
 355 724 l 1
 329 653 l 1
 353 624 365 583 365 532 c 2
 365 168 l 2
 365 56 306 -8 198 -8 c 0
 158 -8 124 0 98 17 c 1
 78 -37 l 1
 41 -24 l 1
 66 46 l 1
 43 76 31 117 31 168 c 2xd4
253 443 m 1
 142 140 l 1
 148 105 168 92 198 92 c 0
 233 92 255 111 255 161 c 2
 255 443 l 1
 253 443 l 1
141 539 m 2
 141 257 l 1
 143 257 l 1
 253 560 l 1
 248 594 227 608 198 608 c 0
 163 608 141 589 141 539 c 2
208 848 m 1x28
 316 848 l 1
 214 737 l 1
 140 737 l 1
 208 848 l 1x28
EndSplineSet
EndChar

StartChar: uni0218
Encoding: 536 536 311
Width: 374
Flags: MW
HStem: -125 92<138 174 138 230> -8 101<166.5 201.5 166.5 241> 608 100<173.5 208.5>
VStem: 23 104<168 211 136 211> 26 110<513.5 564 513.5 588> 138 92<-115 -33 -115 -33 -115 -33> 241 110<136 186.5> 246 104<510 532 510 539 510 564>
LayerCount: 2
Fore
SplineSet
174 -125 m 1x84
 138 -125 l 1
 138 -33 l 1
 230 -33 l 1
 230 -115 l 1
 187 -179 l 1
 148 -179 l 1
 174 -125 l 1x84
26 532 m 0x6a
 26 644 81 708 188 708 c 0
 295 708 350 644 350 532 c 2
 350 510 l 1
 246 510 l 1
 246 539 l 2
 246 589 226 608 191 608 c 0
 156 608 136 589 136 539 c 0x69
 136 488 158 450 230 387 c 0
 322 306 351 248 351 168 c 0
 351 56 295 -8 187 -8 c 0
 79 -8 23 56 23 168 c 2
 23 211 l 1
 127 211 l 1
 127 161 l 2x72
 127 111 149 93 184 93 c 0
 219 93 241 111 241 161 c 0
 241 212 219 250 147 313 c 0
 55 394 26 452 26 532 c 0x6a
EndSplineSet
EndChar

StartChar: uni0219
Encoding: 537 537 312
Width: 374
Flags: MW
HStem: -125 92<138 174 138 230> -8 101<166.5 201.5 166.5 241> 608 100<173.5 208.5>
VStem: 23 104<168 211 136 211> 26 110<513.5 564 513.5 588> 138 92<-115 -33 -115 -33 -115 -33> 241 110<136 186.5> 246 104<510 532 510 539 510 564>
LayerCount: 2
Fore
SplineSet
174 -125 m 1x84
 138 -125 l 1
 138 -33 l 1
 230 -33 l 1
 230 -115 l 1
 187 -179 l 1
 148 -179 l 1
 174 -125 l 1x84
26 532 m 0x6a
 26 644 81 708 188 708 c 0
 295 708 350 644 350 532 c 2
 350 510 l 1
 246 510 l 1
 246 539 l 2
 246 589 226 608 191 608 c 0
 156 608 136 589 136 539 c 0x69
 136 488 158 450 230 387 c 0
 322 306 351 248 351 168 c 0
 351 56 295 -8 187 -8 c 0
 79 -8 23 56 23 168 c 2
 23 211 l 1
 127 211 l 1
 127 161 l 2x72
 127 111 149 93 184 93 c 0
 219 93 241 111 241 161 c 0
 241 212 219 250 147 313 c 0
 55 394 26 452 26 532 c 0x6a
EndSplineSet
EndChar

StartChar: uni021A
Encoding: 538 538 313
Width: 356
Flags: MW
HStem: -125 92<132 168 132 224> 0 21G<123 233 123 123> 600 100<8 348 8 123 233 233 233 348>
VStem: 123 110<0 600 0 600> 132 92<-115 -33 -115 -33 -115 -33>
LayerCount: 2
Fore
SplineSet
8 600 m 1x70
 8 700 l 1
 348 700 l 1
 348 600 l 1
 233 600 l 1
 233 0 l 1
 123 0 l 1
 123 600 l 1
 8 600 l 1x70
168 -125 m 1x88
 132 -125 l 1
 132 -33 l 1
 224 -33 l 1
 224 -115 l 1
 181 -179 l 1
 142 -179 l 1
 168 -125 l 1x88
EndSplineSet
EndChar

StartChar: uni021B
Encoding: 539 539 314
Width: 356
Flags: MW
HStem: -125 92<132 168 132 224> 0 21G<123 233 123 123> 600 100<8 348 8 123 233 233 233 348>
VStem: 123 110<0 600 0 600> 132 92<-115 -33 -115 -33 -115 -33>
LayerCount: 2
Fore
SplineSet
8 600 m 1x70
 8 700 l 1
 348 700 l 1
 348 600 l 1
 233 600 l 1
 233 0 l 1
 123 0 l 1
 123 600 l 1
 8 600 l 1x70
168 -125 m 1x88
 132 -125 l 1
 132 -33 l 1
 224 -33 l 1
 224 -115 l 1
 181 -179 l 1
 142 -179 l 1
 168 -125 l 1x88
EndSplineSet
EndChar

StartChar: uni0237
Encoding: 567 567 315
Width: 256
Flags: MW
HStem: -2 101<53 65.5 42 104.5> 680 20G<111 221 221 221>
VStem: 111 110<166 174 174 700>
LayerCount: 2
Fore
SplineSet
10 0 m 1
 10 100 l 1
 22 99 36 99 48 99 c 0
 83 99 111 112 111 166 c 2
 111 700 l 1
 221 700 l 1
 221 174 l 2
 221 34 146 -2 63 -2 c 0
 43 -2 28 -2 10 0 c 1
EndSplineSet
EndChar

StartChar: uni02BC
Encoding: 700 700 316
Width: 186
Flags: MW
HStem: 494 21G<53 98 53 53> 594 106<40 82 40 146>
VStem: 40 106<605 700 605 700 605 700>
LayerCount: 2
Fore
SplineSet
82 594 m 1
 40 594 l 1
 40 700 l 1
 146 700 l 1
 146 605 l 1
 98 494 l 1
 53 494 l 1
 82 594 l 1
EndSplineSet
EndChar

StartChar: circumflex
Encoding: 710 710 317
Width: 250
Flags: MW
HStem: 737 111<76 81 -13 175 170 170 170 175 76 264>
VStem: -13 277<737 737>
LayerCount: 2
Fore
SplineSet
81 737 m 1
 -13 737 l 1
 76 848 l 1
 175 848 l 1
 264 737 l 1
 170 737 l 1
 125 792 l 1
 81 737 l 1
EndSplineSet
EndChar

StartChar: caron
Encoding: 711 711 318
Width: 250
Flags: MW
HStem: 737 111<76 81 170 175 76 76>
VStem: -13 277<848 848>
LayerCount: 2
Fore
SplineSet
-13 848 m 1
 81 848 l 1
 125 792 l 1
 170 848 l 1
 264 848 l 1
 175 737 l 1
 76 737 l 1
 -13 848 l 1
EndSplineSet
EndChar

StartChar: breve
Encoding: 728 728 319
Width: 250
Flags: MW
HStem: 733 68<110 138.5 110 161.5>
VStem: 13 65<848 848> 172 65<813 848>
LayerCount: 2
Fore
SplineSet
172 848 m 1
 237 848 l 1
 237 778 199 733 124 733 c 0
 49 733 14 778 13 848 c 1
 78 848 l 1
 81 810 96 801 124 801 c 0
 153 801 169 810 172 848 c 1
EndSplineSet
EndChar

StartChar: dotaccent
Encoding: 729 729 320
Width: 250
Flags: MW
HStem: 737 96<77 173 77 173>
VStem: 77 96<737 833 737 833>
LayerCount: 2
Fore
SplineSet
77 833 m 1
 173 833 l 1
 173 737 l 1
 77 737 l 1
 77 833 l 1
EndSplineSet
EndChar

StartChar: ring
Encoding: 730 730 321
Width: 250
Flags: MW
HStem: 734 50<116.5 133.5 116.5 147.5> 844 50<116.5 133.5>
VStem: 45 50<805.5 822.5 805.5 836.5> 155 50<805.5 822.5>
LayerCount: 2
Fore
SplineSet
45 814 m 0
 45 859 80 894 125 894 c 0
 170 894 205 859 205 814 c 0
 205 769 170 734 125 734 c 0
 80 734 45 769 45 814 c 0
95 814 m 0
 95 797 108 784 125 784 c 0
 142 784 155 797 155 814 c 0
 155 831 142 844 125 844 c 0
 108 844 95 831 95 814 c 0
EndSplineSet
EndChar

StartChar: ogonek
Encoding: 731 731 322
Width: 250
Flags: MW
HStem: -147 61<107.5 176>
VStem: 47 84<-105.5 -50.5>
LayerCount: 2
Fore
SplineSet
123 4 m 1
 166 4 l 1
 137 -18 131 -43 131 -58 c 0
 131 -77 148 -86 166 -86 c 0
 186 -86 191 -83 202 -80 c 1
 202 -136 l 1
 179 -145 162 -147 134 -147 c 0
 81 -147 47 -126 47 -85 c 0
 47 -51 72 -20 123 4 c 1
EndSplineSet
EndChar

StartChar: tilde
Encoding: 732 732 323
Width: 250
Flags: MW
HStem: 737 76<168 176 159.5 196> 762 76<75 84 55 91.5>
VStem: -10 271<770 805>
LayerCount: 2
Fore
SplineSet
165 813 m 0xa0
 187 813 198 821 208 842 c 1
 261 805 l 1
 244 760 216 737 176 737 c 0xa0
 160 737 146 740 123 751 c 0
 107 759 97 762 86 762 c 0
 64 762 53 754 43 733 c 1
 -10 770 l 1
 7 815 35 838 75 838 c 0x60
 93 838 108 834 128 824 c 0
 144 816 154 813 165 813 c 0xa0
EndSplineSet
EndChar

StartChar: hungarumlaut
Encoding: 733 733 324
Width: 250
Flags: MW
HStem: 737 111<25 42 -25 125 106 106 106 125 155 172>
VStem: -25 281<737 848>
LayerCount: 2
Fore
SplineSet
25 848 m 1
 125 848 l 1
 42 737 l 1
 -25 737 l 1
 25 848 l 1
155 848 m 1
 256 848 l 1
 172 737 l 1
 106 737 l 1
 155 848 l 1
EndSplineSet
EndChar

StartChar: uni1E02
Encoding: 7682 7682 325
Width: 406
Flags: MW
HStem: 0 100<150 213 150 213> 315 100<150 193 193 199 150 193> 600 100<150 203 150 150> 737 96<138 234 138 234>
VStem: 40 110<100 315 100 415 415 600> 138 96<737 833 737 833> 259 110<489 514 514 528 528 539 478 553> 270 110<169 223 112 230 112 262.5>
LayerCount: 2
Fore
SplineSet
206 700 m 2xea
 320 700 369 647 369 539 c 2
 369 514 l 2
 369 442 347 397 298 374 c 1xea
 298 372 l 1
 357 349 380 297 380 223 c 2
 380 166 l 2xe9
 380 58 323 0 213 0 c 2
 40 0 l 1
 40 700 l 1
 206 700 l 2xea
199 315 m 2
 150 315 l 1xea
 150 100 l 1
 213 100 l 2
 250 100 270 117 270 169 c 2
 270 230 l 2
 270 295 249 315 199 315 c 2
203 600 m 2
 150 600 l 1
 150 415 l 1
 193 415 l 2
 234 415 259 433 259 489 c 2
 259 528 l 2
 259 578 242 600 203 600 c 2
138 833 m 1x14
 234 833 l 1
 234 737 l 1
 138 737 l 1
 138 833 l 1x14
EndSplineSet
EndChar

StartChar: uni1E03
Encoding: 7683 7683 326
Width: 406
Flags: MW
HStem: 0 100<150 213 150 213> 315 100<150 193 193 199 150 193> 600 100<150 203 150 150> 737 96<138 234 138 234>
VStem: 40 110<100 315 100 415 415 600> 138 96<737 833 737 833> 259 110<489 514 514 528 528 539 478 553> 270 110<169 223 112 230 112 262.5>
LayerCount: 2
Fore
SplineSet
206 700 m 2xea
 320 700 369 647 369 539 c 2
 369 514 l 2
 369 442 347 397 298 374 c 1xea
 298 372 l 1
 357 349 380 297 380 223 c 2
 380 166 l 2xe9
 380 58 323 0 213 0 c 2
 40 0 l 1
 40 700 l 1
 206 700 l 2xea
199 315 m 2
 150 315 l 1xea
 150 100 l 1
 213 100 l 2
 250 100 270 117 270 169 c 2
 270 230 l 2
 270 295 249 315 199 315 c 2
203 600 m 2
 150 600 l 1
 150 415 l 1
 193 415 l 2
 234 415 259 433 259 489 c 2
 259 528 l 2
 259 578 242 600 203 600 c 2
138 833 m 1x14
 234 833 l 1
 234 737 l 1
 138 737 l 1
 138 833 l 1x14
EndSplineSet
EndChar

StartChar: uni1E0A
Encoding: 7690 7690 327
Width: 408
Flags: MW
HStem: 0 100<150 212 212 214> 600 100<150 212 150 150> 737 96<146 242 146 242>
VStem: 40 110<100 600 100 700 100 700> 146 96<737 833 737 833> 268 110<168 173 173 527>
LayerCount: 2
Fore
SplineSet
40 0 m 1xd4
 40 700 l 1
 214 700 l 2
 324 700 378 639 378 527 c 2
 378 173 l 2
 378 61 324 0 214 0 c 2
 40 0 l 1xd4
212 600 m 2
 150 600 l 1
 150 100 l 1
 212 100 l 2
 247 100 268 118 268 168 c 2
 268 532 l 2
 268 582 247 600 212 600 c 2
146 833 m 1x28
 242 833 l 1
 242 737 l 1
 146 737 l 1
 146 833 l 1x28
EndSplineSet
EndChar

StartChar: uni1E0B
Encoding: 7691 7691 328
Width: 408
Flags: MW
HStem: 0 100<150 212 212 214> 600 100<150 212 150 150> 737 96<146 242 146 242>
VStem: 40 110<100 600 100 700 100 700> 146 96<737 833 737 833> 268 110<168 173 173 527>
LayerCount: 2
Fore
SplineSet
40 0 m 1xd4
 40 700 l 1
 214 700 l 2
 324 700 378 639 378 527 c 2
 378 173 l 2
 378 61 324 0 214 0 c 2
 40 0 l 1xd4
212 600 m 2
 150 600 l 1
 150 100 l 1
 212 100 l 2
 247 100 268 118 268 168 c 2
 268 532 l 2
 268 582 247 600 212 600 c 2
146 833 m 1x28
 242 833 l 1
 242 737 l 1
 146 737 l 1
 146 833 l 1x28
EndSplineSet
EndChar

StartChar: uni1E1E
Encoding: 7710 7710 329
Width: 344
Flags: MW
HStem: 0 21G<40 150 40 40> 289 100<150 292 150 292> 600 100<150 150 150 331> 737 96<134 230 134 230>
VStem: 40 110<0 289 389 600> 134 96<737 833 737 833>
LayerCount: 2
Fore
SplineSet
150 600 m 1xe8
 150 389 l 1
 292 389 l 1
 292 289 l 1
 150 289 l 1
 150 0 l 1
 40 0 l 1
 40 700 l 1
 331 700 l 1
 331 600 l 1
 150 600 l 1xe8
134 833 m 1x14
 230 833 l 1
 230 737 l 1
 134 737 l 1
 134 833 l 1x14
EndSplineSet
EndChar

StartChar: uni1E1F
Encoding: 7711 7711 330
Width: 344
Flags: MW
HStem: 0 21G<40 150 40 40> 289 100<150 292 150 292> 600 100<150 150 150 331> 737 96<134 230 134 230>
VStem: 40 110<0 289 389 600> 134 96<737 833 737 833>
LayerCount: 2
Fore
SplineSet
150 600 m 1xe8
 150 389 l 1
 292 389 l 1
 292 289 l 1
 150 289 l 1
 150 0 l 1
 40 0 l 1
 40 700 l 1
 331 700 l 1
 331 600 l 1
 150 600 l 1xe8
134 833 m 1x14
 230 833 l 1
 230 737 l 1
 134 737 l 1
 134 833 l 1x14
EndSplineSet
EndChar

StartChar: uni1E40
Encoding: 7744 7744 331
Width: 541
Flags: MW
HStem: 0 21G<39 135 39 39 217 321 217 217 397 501 397 397> 680 20G<39 192 192 192 348 501 501 501> 737 96<222 318 222 318>
VStem: 39 96<0 495 0 700> 222 96<737 833 737 833> 397 104<0 502 502 502>
LayerCount: 2
Fore
SplineSet
192 700 m 1
 272 203 l 1
 274 203 l 1
 348 700 l 1
 501 700 l 1
 501 0 l 1
 397 0 l 1
 397 502 l 1
 395 502 l 1
 321 0 l 1
 217 0 l 1
 137 495 l 1
 135 495 l 1
 135 0 l 1
 39 0 l 1
 39 700 l 1
 192 700 l 1
222 833 m 1x28
 318 833 l 1
 318 737 l 1
 222 737 l 1
 222 833 l 1x28
EndSplineSet
EndChar

StartChar: uni1E41
Encoding: 7745 7745 332
Width: 541
Flags: MW
HStem: 0 21G<39 135 39 39 217 321 217 217 397 501 397 397> 680 20G<39 192 192 192 348 501 501 501> 737 96<222 318 222 318>
VStem: 39 96<0 495 0 700> 222 96<737 833 737 833> 397 104<0 502 502 502>
LayerCount: 2
Fore
SplineSet
192 700 m 1
 272 203 l 1
 274 203 l 1
 348 700 l 1
 501 700 l 1
 501 0 l 1
 397 0 l 1
 397 502 l 1
 395 502 l 1
 321 0 l 1
 217 0 l 1
 137 495 l 1
 135 495 l 1
 135 0 l 1
 39 0 l 1
 39 700 l 1
 192 700 l 1
222 833 m 1x28
 318 833 l 1
 318 737 l 1
 222 737 l 1
 222 833 l 1x28
EndSplineSet
EndChar

StartChar: uni1E56
Encoding: 7766 7766 333
Width: 377
Flags: MW
HStem: 0 21G<40 150 40 40> 263 100<150 202 150 202> 600 100<150 202 150 150> 737 96<142 238 142 238>
VStem: 40 110<0 263 0 363 363 600> 142 96<737 833 737 833> 256 110<429 436 436 527 380 534 380 559>
LayerCount: 2
Fore
SplineSet
202 700 m 2xea
 312 700 366 639 366 527 c 2
 366 436 l 2
 366 324 312 263 202 263 c 2
 150 263 l 1
 150 0 l 1
 40 0 l 1
 40 700 l 1
 202 700 l 2xea
202 600 m 2
 150 600 l 1
 150 363 l 1
 202 363 l 2
 237 363 256 379 256 429 c 2
 256 534 l 2
 256 584 237 600 202 600 c 2
142 833 m 1x14
 238 833 l 1
 238 737 l 1
 142 737 l 1
 142 833 l 1x14
EndSplineSet
EndChar

StartChar: uni1E57
Encoding: 7767 7767 334
Width: 377
Flags: MW
HStem: 0 21G<40 150 40 40> 263 100<150 202 150 202> 600 100<150 202 150 150> 737 96<142 238 142 238>
VStem: 40 110<0 263 0 363 363 600> 142 96<737 833 737 833> 256 110<429 436 436 527 380 534 380 559>
LayerCount: 2
Fore
SplineSet
202 700 m 2xea
 312 700 366 639 366 527 c 2
 366 436 l 2
 366 324 312 263 202 263 c 2
 150 263 l 1
 150 0 l 1
 40 0 l 1
 40 700 l 1
 202 700 l 2xea
202 600 m 2
 150 600 l 1
 150 363 l 1
 202 363 l 2
 237 363 256 379 256 429 c 2
 256 534 l 2
 256 584 237 600 202 600 c 2
142 833 m 1x14
 238 833 l 1
 238 737 l 1
 142 737 l 1
 142 833 l 1x14
EndSplineSet
EndChar

StartChar: uni1E60
Encoding: 7776 7776 335
Width: 374
Flags: MW
HStem: -8 101<166.5 201.5 166.5 241> 608 100<173.5 208.5> 737 96<139 235 139 235>
VStem: 23 104<168 211 136 211> 26 110<513.5 564 513.5 588> 139 96<737 833 737 833> 241 110<136 186.5> 246 104<510 532 510 539 510 564>
LayerCount: 2
Fore
SplineSet
26 532 m 0xca
 26 644 81 708 188 708 c 0
 295 708 350 644 350 532 c 2
 350 510 l 1
 246 510 l 1
 246 539 l 2
 246 589 226 608 191 608 c 0
 156 608 136 589 136 539 c 0xc9
 136 488 158 450 230 387 c 0
 322 306 351 248 351 168 c 0
 351 56 295 -8 187 -8 c 0
 79 -8 23 56 23 168 c 2
 23 211 l 1
 127 211 l 1
 127 161 l 2xd2
 127 111 149 93 184 93 c 0
 219 93 241 111 241 161 c 0
 241 212 219 250 147 313 c 0
 55 394 26 452 26 532 c 0xca
139 833 m 1x24
 235 833 l 1
 235 737 l 1
 139 737 l 1
 139 833 l 1x24
EndSplineSet
EndChar

StartChar: uni1E61
Encoding: 7777 7777 336
Width: 374
Flags: MW
HStem: -8 101<166.5 201.5 166.5 241> 608 100<173.5 208.5> 737 96<139 235 139 235>
VStem: 23 104<168 211 136 211> 26 110<513.5 564 513.5 588> 139 96<737 833 737 833> 241 110<136 186.5> 246 104<510 532 510 539 510 564>
LayerCount: 2
Fore
SplineSet
26 532 m 0xca
 26 644 81 708 188 708 c 0
 295 708 350 644 350 532 c 2
 350 510 l 1
 246 510 l 1
 246 539 l 2
 246 589 226 608 191 608 c 0
 156 608 136 589 136 539 c 0xc9
 136 488 158 450 230 387 c 0
 322 306 351 248 351 168 c 0
 351 56 295 -8 187 -8 c 0
 79 -8 23 56 23 168 c 2
 23 211 l 1
 127 211 l 1
 127 161 l 2xd2
 127 111 149 93 184 93 c 0
 219 93 241 111 241 161 c 0
 241 212 219 250 147 313 c 0
 55 394 26 452 26 532 c 0xca
139 833 m 1x24
 235 833 l 1
 235 737 l 1
 139 737 l 1
 139 833 l 1x24
EndSplineSet
EndChar

StartChar: uni1E6A
Encoding: 7786 7786 337
Width: 356
Flags: MW
HStem: 0 21G<123 233 123 123> 600 100<8 348 8 123 233 233 233 348> 737 96<130 226 130 226>
VStem: 123 110<0 600 0 600> 130 96<737 833 737 833>
LayerCount: 2
Fore
SplineSet
8 600 m 1xd0
 8 700 l 1
 348 700 l 1
 348 600 l 1
 233 600 l 1
 233 0 l 1
 123 0 l 1
 123 600 l 1
 8 600 l 1xd0
130 833 m 1x28
 226 833 l 1
 226 737 l 1
 130 737 l 1
 130 833 l 1x28
EndSplineSet
EndChar

StartChar: uni1E6B
Encoding: 7787 7787 338
Width: 356
Flags: MW
HStem: 0 21G<123 233 123 123> 600 100<8 348 8 123 233 233 233 348> 737 96<130 226 130 226>
VStem: 123 110<0 600 0 600> 130 96<737 833 737 833>
LayerCount: 2
Fore
SplineSet
8 600 m 1xd0
 8 700 l 1
 348 700 l 1
 348 600 l 1
 233 600 l 1
 233 0 l 1
 123 0 l 1
 123 600 l 1
 8 600 l 1xd0
130 833 m 1x28
 226 833 l 1
 226 737 l 1
 130 737 l 1
 130 833 l 1x28
EndSplineSet
EndChar

StartChar: Wgrave
Encoding: 7808 7808 339
Width: 563
Flags: MW
HStem: 0 21G<93 244 93 93 324 470 324 324> 680 20G<15 122 122 122 234 340 340 340 452 548 548 548> 737 111<263 274 161 342 263 263>
VStem: 15 533<700 700> 161 181<737 848>
LayerCount: 2
Fore
SplineSet
324 0 m 1xd0
 285 373 l 1
 283 373 l 1
 244 0 l 1
 93 0 l 1
 15 700 l 1
 122 700 l 1
 180 148 l 1
 182 148 l 1
 234 700 l 1
 340 700 l 1
 394 144 l 1
 396 144 l 1
 452 700 l 1
 548 700 l 1
 470 0 l 1
 324 0 l 1xd0
161 848 m 1x28
 274 848 l 1
 342 737 l 1
 263 737 l 1
 161 848 l 1x28
EndSplineSet
EndChar

StartChar: wgrave
Encoding: 7809 7809 340
Width: 563
Flags: MW
HStem: 0 21G<93 244 93 93 324 470 324 324> 680 20G<15 122 122 122 234 340 340 340 452 548 548 548> 737 111<263 274 161 342 263 263>
VStem: 15 533<700 700> 161 181<737 848>
LayerCount: 2
Fore
SplineSet
324 0 m 1xd0
 285 373 l 1
 283 373 l 1
 244 0 l 1
 93 0 l 1
 15 700 l 1
 122 700 l 1
 180 148 l 1
 182 148 l 1
 234 700 l 1
 340 700 l 1
 394 144 l 1
 396 144 l 1
 452 700 l 1
 548 700 l 1
 470 0 l 1
 324 0 l 1xd0
161 848 m 1x28
 274 848 l 1
 342 737 l 1
 263 737 l 1
 161 848 l 1x28
EndSplineSet
EndChar

